{"glyphs":{"0":{"ha":911,"x_min":114,"x_max":797,"o":"m 797 333 q 772 203 797 265 q 697 92 746 142 q 586 17 649 43 q 456 -8 524 -8 q 326 17 388 -8 q 214 92 264 43 q 140 203 165 140 q 114 333 114 265 l 114 581 q 140 711 114 649 q 214 822 165 774 q 325 897 263 871 q 456 922 388 922 q 586 897 524 922 q 697 822 649 871 q 772 711 746 774 q 797 581 797 649 l 797 333 m 633 581 q 625 726 633 664 q 578 841 617 789 q 456 893 539 893 q 333 841 372 893 q 286 726 294 789 q 278 581 278 664 l 278 333 q 286 188 278 250 q 333 73 294 125 q 456 21 372 21 q 578 73 539 21 q 625 188 617 125 q 633 333 633 250 l 633 581 z "},"1":{"ha":549,"x_min":61,"x_max":433,"o":"m 406 914 l 433 914 l 433 0 l 276 0 l 276 781 l 61 617 l 61 651 l 406 914 z "},"2":{"ha":882,"x_min":90,"x_max":792,"o":"m 792 29 l 792 0 l 90 0 q 303 244 146 64 q 494 463 460 425 q 586 588 556 526 q 617 717 617 650 q 599 794 617 753 q 542 864 582 835 q 436 893 501 893 q 282 852 350 893 q 176 740 214 811 q 138 581 138 668 l 108 581 q 151 752 108 674 q 268 876 193 831 q 436 922 343 922 q 574 898 514 922 q 672 838 635 874 q 754 631 754 753 q 642 388 754 517 l 329 29 l 792 29 z "},"3":{"ha":863,"x_min":94,"x_max":769,"o":"m 554 585 q 649 537 599 574 q 734 442 699 500 q 769 314 769 385 q 747 196 769 253 q 678 92 724 139 q 567 17 629 43 q 436 -8 504 -8 q 265 38 343 -8 q 140 162 186 83 q 94 333 94 240 l 124 333 q 165 177 124 249 q 279 63 207 106 q 436 21 351 21 q 558 71 519 21 q 606 181 597 121 q 614 319 614 240 q 578 442 614 388 q 472 525 543 496 q 425 541 450 535 q 382 550 400 547 q 358 553 364 553 l 547 885 l 122 885 l 122 914 l 739 914 l 554 585 z "},"4":{"ha":865,"x_min":61,"x_max":810,"o":"m 696 285 l 810 285 l 810 257 l 696 257 l 696 0 l 539 0 l 539 257 l 61 257 l 542 914 l 696 914 l 696 285 m 118 285 l 539 285 l 540 864 l 118 285 z "},"5":{"ha":875,"x_min":96,"x_max":771,"o":"m 568 582 q 660 532 613 568 q 739 440 707 496 q 771 314 771 385 q 748 196 771 253 q 679 92 725 139 q 568 17 631 43 q 438 -8 506 -8 q 266 38 344 -8 q 142 162 188 83 q 96 333 96 240 l 125 333 q 167 177 125 249 q 281 63 208 106 q 438 21 353 21 q 560 71 521 21 q 607 181 599 121 q 615 319 615 240 q 576 484 615 422 q 451 565 538 546 q 390 571 428 571 q 274 558 336 571 q 168 528 213 544 l 338 914 l 731 914 l 731 885 l 506 885 l 382 604 q 568 582 483 608 z "},"6":{"ha":885,"x_min":110,"x_max":781,"o":"m 439 21 q 581 101 547 21 q 617 300 615 182 q 581 499 615 418 q 439 579 547 579 q 403 576 425 579 l 321 428 q 282 334 296 382 q 268 246 268 286 q 276 153 268 199 q 321 65 283 108 q 439 21 358 21 m 781 300 q 736 150 781 221 q 613 35 692 79 q 439 -8 535 -8 q 309 17 371 -8 q 197 92 247 43 q 110 292 110 182 q 117 354 110 326 q 190 518 131 415 l 301 715 q 413 914 332 769 l 594 914 q 529 801 578 886 q 421 607 481 715 q 439 608 426 608 q 615 565 536 608 q 737 449 693 521 q 781 300 781 378 z "},"7":{"ha":836,"x_min":78,"x_max":757,"o":"m 757 914 l 353 0 l 174 0 l 561 885 l 78 885 l 78 914 l 757 914 z "},"8":{"ha":917,"x_min":104,"x_max":813,"o":"m 458 19 q 606 84 561 19 q 650 243 650 149 q 606 403 650 339 q 458 468 561 468 q 315 401 364 468 q 267 243 267 335 q 315 85 267 151 q 458 19 364 19 m 813 243 q 764 103 813 160 q 635 18 715 46 q 458 -10 556 -10 q 286 18 367 -10 q 155 103 206 46 q 104 243 104 161 q 205 433 104 369 q 458 497 306 497 q 715 434 618 497 q 813 243 813 371 m 458 497 q 583 551 544 497 q 622 694 622 606 q 584 838 622 783 q 458 893 546 893 q 338 837 381 893 q 294 694 294 781 q 338 553 294 610 q 458 497 381 497 m 785 694 q 690 524 785 581 q 458 468 594 468 q 303 492 378 468 q 181 567 229 515 q 132 694 132 618 q 227 866 132 810 q 458 922 322 922 q 694 867 603 922 q 785 694 785 811 z "},"9":{"ha":885,"x_min":104,"x_max":775,"o":"m 446 893 q 303 813 338 893 q 268 614 269 732 q 303 415 269 496 q 446 335 338 335 q 482 338 460 335 l 564 486 q 603 580 589 532 q 617 668 617 628 q 609 760 617 715 q 564 849 601 806 q 446 893 526 893 m 104 614 q 149 764 104 693 q 272 878 193 835 q 446 922 350 922 q 576 897 514 922 q 688 822 639 871 q 775 622 775 732 q 768 560 775 588 q 694 396 754 499 l 583 199 q 472 0 553 144 l 290 0 q 356 113 307 28 q 464 307 404 199 q 446 306 458 306 q 270 349 349 306 q 148 465 192 393 q 104 614 104 536 z "}," ":{"ha":417,"x_min":0,"x_max":0,"o":""},"A":{"ha":951,"x_min":63,"x_max":889,"o":"m 718 0 l 601 265 l 215 265 l 93 0 l 63 0 l 486 922 l 889 0 l 718 0 m 228 293 l 590 293 l 414 697 l 228 293 z "},"Á":{"ha":951,"x_min":63,"x_max":889,"o":"m 578 1158 l 689 1158 l 503 978 l 468 978 l 578 1158 m 718 0 l 601 265 l 215 265 l 93 0 l 63 0 l 486 922 l 889 0 l 718 0 m 228 293 l 590 293 l 414 697 l 228 293 z "},"Â":{"ha":951,"x_min":63,"x_max":889,"o":"m 313 978 l 486 1213 l 661 978 l 522 978 l 435 1096 l 347 978 l 313 978 m 718 0 l 601 265 l 215 265 l 93 0 l 63 0 l 486 922 l 889 0 l 718 0 m 228 293 l 590 293 l 414 697 l 228 293 z "},"Ä":{"ha":951,"x_min":63,"x_max":889,"o":"m 718 0 l 601 265 l 215 265 l 93 0 l 63 0 l 486 922 l 889 0 l 718 0 m 228 293 l 590 293 l 414 697 l 228 293 m 404 1049 q 383 1099 404 1078 q 331 1119 361 1119 q 281 1099 301 1119 q 260 1049 260 1078 q 281 999 260 1019 q 331 978 301 978 q 382 999 360 978 q 404 1049 404 1019 m 708 1049 q 687 1099 708 1078 q 635 1119 665 1119 q 585 1099 606 1119 q 564 1049 564 1078 q 585 999 564 1019 q 635 978 606 978 q 686 999 664 978 q 708 1049 708 1019 z "},"À":{"ha":951,"x_min":63,"x_max":889,"o":"m 718 0 l 601 265 l 215 265 l 93 0 l 63 0 l 486 922 l 889 0 l 718 0 m 228 293 l 590 293 l 414 697 l 228 293 m 393 1158 l 503 978 l 468 978 l 282 1158 l 393 1158 z "},"Å":{"ha":951,"x_min":63,"x_max":889,"o":"m 486 1211 q 569 1177 535 1211 q 603 1094 603 1143 q 569 1012 603 1046 q 486 978 535 978 q 403 1012 438 978 q 369 1094 369 1046 q 404 1177 369 1143 q 486 1211 439 1211 m 486 1006 q 515 1024 506 1006 q 524 1094 524 1043 q 515 1165 524 1146 q 486 1183 506 1183 q 458 1165 467 1183 q 450 1094 450 1147 q 458 1024 450 1042 q 486 1006 467 1006 m 718 0 l 601 265 l 215 265 l 93 0 l 63 0 l 486 922 l 889 0 l 718 0 m 228 293 l 590 293 l 414 697 l 228 293 z "},"Ã":{"ha":951,"x_min":63,"x_max":889,"o":"m 669 1047 q 625 1006 646 1021 q 571 983 604 990 q 526 978 543 978 q 444 1006 479 978 q 423 1022 439 1010 q 394 1042 407 1035 q 368 1049 381 1049 q 347 1042 356 1047 q 331 1031 338 1038 q 321 1021 324 1024 l 301 1040 q 345 1081 324 1065 q 400 1106 367 1097 q 440 1111 425 1111 q 528 1082 489 1111 q 550 1064 535 1076 q 578 1046 565 1051 q 603 1040 590 1040 q 624 1046 615 1040 q 640 1058 633 1051 q 650 1067 647 1064 l 669 1047 m 718 0 l 601 265 l 215 265 l 93 0 l 63 0 l 486 922 l 889 0 l 718 0 m 228 293 l 590 293 l 414 697 l 228 293 z "},"Æ":{"ha":1329,"x_min":63,"x_max":1218,"o":"m 1218 886 l 797 886 l 797 471 l 1114 471 l 1114 443 l 797 443 l 797 28 l 1218 28 l 1218 0 l 640 0 l 640 265 l 246 265 l 94 0 l 63 0 l 586 914 l 1218 914 l 1218 886 m 263 293 l 640 293 l 640 886 l 603 886 l 263 293 z "},"B":{"ha":885,"x_min":115,"x_max":815,"o":"m 640 499 q 768 400 721 464 q 815 260 815 336 q 793 165 815 211 q 728 81 771 119 q 619 20 682 40 q 467 0 556 0 l 115 0 l 115 914 l 431 914 q 553 898 496 914 q 644 856 610 882 q 703 784 681 826 q 726 693 726 742 q 640 499 726 572 m 272 886 l 272 500 l 426 500 q 530 558 490 500 q 569 693 569 615 q 534 830 569 774 q 431 886 499 886 l 272 886 m 465 28 q 613 99 567 28 q 660 260 660 169 q 614 409 660 346 q 467 472 568 472 l 272 472 l 272 28 l 465 28 z "},"C":{"ha":939,"x_min":63,"x_max":876,"o":"m 876 156 q 719 35 811 78 q 525 -8 628 -8 q 294 54 400 -8 q 125 224 188 117 q 63 457 63 331 q 125 690 63 583 q 294 860 188 797 q 525 922 400 922 q 709 884 622 922 q 861 776 796 846 l 843 756 q 525 894 711 894 q 369 843 439 894 q 263 706 300 790 q 226 457 226 622 q 263 208 226 292 q 369 71 300 124 q 525 19 439 19 q 858 176 722 19 l 876 156 z "},"Ç":{"ha":939,"x_min":63,"x_max":876,"o":"m 876 156 q 726 38 814 81 q 539 -8 639 -6 l 539 -39 q 618 -65 588 -42 q 649 -133 649 -89 q 615 -205 649 -182 q 525 -228 581 -228 q 436 -205 469 -228 q 403 -133 403 -182 l 486 -133 q 496 -186 486 -172 q 525 -200 506 -200 q 554 -186 544 -200 q 564 -133 564 -172 q 528 -65 564 -65 l 511 -65 l 511 -8 q 286 59 389 -4 q 123 228 183 122 q 63 457 63 333 q 125 690 63 583 q 294 860 188 797 q 525 922 400 922 q 709 884 622 922 q 861 776 796 846 l 843 756 q 525 894 711 894 q 369 843 439 894 q 263 706 300 790 q 226 457 226 622 q 263 208 226 292 q 369 71 300 124 q 525 19 439 19 q 858 176 722 19 l 876 156 z "},"D":{"ha":919,"x_min":115,"x_max":843,"o":"m 381 914 q 613 853 507 914 q 781 687 718 792 q 843 457 843 582 q 781 227 843 332 q 613 61 718 122 q 381 0 507 0 l 115 0 l 115 914 l 381 914 m 536 79 q 613 156 582 114 q 662 270 643 197 q 681 457 681 343 q 662 644 681 571 q 613 758 643 717 q 536 835 582 800 q 381 886 471 886 l 272 886 l 272 28 l 381 28 q 536 79 471 28 z "},"Ð":{"ha":919,"x_min":32,"x_max":843,"o":"m 381 914 q 613 853 507 914 q 781 687 718 792 q 843 457 843 582 q 781 227 843 332 q 613 61 718 122 q 381 0 507 0 l 115 0 l 115 914 l 381 914 m 536 79 q 612 156 582 114 q 660 270 642 197 q 679 457 679 343 q 660 644 679 571 q 612 758 642 717 q 536 835 582 800 q 381 886 468 886 l 272 886 l 272 28 l 381 28 q 536 79 468 28 m 32 471 l 400 471 l 400 443 l 32 443 l 32 471 z "},"E":{"ha":775,"x_min":114,"x_max":692,"o":"m 692 886 l 271 886 l 271 471 l 588 471 l 588 443 l 271 443 l 271 28 l 692 28 l 692 0 l 114 0 l 114 914 l 692 914 l 692 886 z "},"É":{"ha":775,"x_min":114,"x_max":692,"o":"m 692 886 l 271 886 l 271 471 l 588 471 l 588 443 l 271 443 l 271 28 l 692 28 l 692 0 l 114 0 l 114 914 l 692 914 l 692 886 m 496 1158 l 607 1158 l 421 978 l 386 978 l 496 1158 z "},"Ê":{"ha":775,"x_min":114,"x_max":692,"o":"m 692 886 l 271 886 l 271 471 l 588 471 l 588 443 l 271 443 l 271 28 l 692 28 l 692 0 l 114 0 l 114 914 l 692 914 l 692 886 m 576 978 l 542 978 l 454 1096 l 367 978 l 228 978 l 403 1213 l 576 978 z "},"Ë":{"ha":775,"x_min":114,"x_max":692,"o":"m 692 886 l 271 886 l 271 471 l 588 471 l 588 443 l 271 443 l 271 28 l 692 28 l 692 0 l 114 0 l 114 914 l 692 914 l 692 886 m 324 1049 q 302 1099 324 1078 q 250 1119 281 1119 q 200 1099 221 1119 q 179 1049 179 1078 q 200 999 179 1019 q 250 978 221 978 q 301 999 279 978 q 324 1049 324 1019 m 628 1049 q 606 1099 628 1078 q 554 1119 585 1119 q 504 1099 525 1119 q 483 1049 483 1078 q 504 999 483 1019 q 554 978 525 978 q 606 999 583 978 q 628 1049 628 1019 z "},"È":{"ha":775,"x_min":114,"x_max":692,"o":"m 311 1158 l 421 978 l 386 978 l 200 1158 l 311 1158 m 692 886 l 271 886 l 271 471 l 588 471 l 588 443 l 271 443 l 271 28 l 692 28 l 692 0 l 114 0 l 114 914 l 692 914 l 692 886 z "},"F":{"ha":767,"x_min":113,"x_max":690,"o":"m 586 443 l 269 443 l 269 0 l 113 0 l 113 914 l 690 914 l 690 886 l 269 886 l 269 471 l 586 471 l 586 443 z "},"G":{"ha":985,"x_min":69,"x_max":871,"o":"m 871 442 l 871 0 l 532 0 q 299 60 406 0 q 131 226 193 121 q 69 457 69 331 q 132 690 69 583 q 301 860 194 797 q 532 922 407 922 q 716 884 629 922 q 868 776 803 846 l 850 756 q 532 894 718 894 q 376 843 443 894 q 270 706 307 790 q 233 457 233 622 q 252 270 233 343 q 301 156 271 197 q 376 79 331 114 q 532 28 446 28 l 714 28 l 714 414 l 497 414 l 497 442 l 871 442 z "},"H":{"ha":929,"x_min":114,"x_max":815,"o":"m 658 914 l 815 914 l 815 0 l 658 0 l 658 442 l 271 442 l 271 0 l 114 0 l 114 914 l 271 914 l 271 469 l 658 469 l 658 914 z "},"I":{"ha":407,"x_min":125,"x_max":282,"o":"m 125 0 l 282 0 l 282 914 l 125 914 l 125 0 z "},"Í":{"ha":407,"x_min":125,"x_max":407,"o":"m 125 0 l 282 0 l 282 914 l 125 914 l 125 0 m 296 1158 l 407 1158 l 221 978 l 186 978 l 296 1158 z "},"Î":{"ha":407,"x_min":29,"x_max":378,"o":"m 125 0 l 282 0 l 282 914 l 125 914 l 125 0 m 378 978 l 343 978 l 256 1096 l 168 978 l 29 978 l 204 1213 l 378 978 z "},"Ï":{"ha":407,"x_min":-21,"x_max":428,"o":"m 125 0 l 282 0 l 282 914 l 125 914 l 125 0 m 124 1049 q 102 1099 124 1078 q 50 1119 81 1119 q 0 1099 21 1119 q -21 1049 -21 1078 q 0 999 -21 1019 q 50 978 21 978 q 101 999 79 978 q 124 1049 124 1019 m 428 1049 q 406 1099 428 1078 q 354 1119 385 1119 q 304 1099 325 1119 q 283 1049 283 1078 q 304 999 283 1019 q 354 978 325 978 q 406 999 383 978 q 428 1049 428 1019 z "},"Ì":{"ha":407,"x_min":0,"x_max":282,"o":"m 282 0 l 282 914 l 125 914 l 125 0 l 282 0 m 111 1158 l 221 978 l 186 978 l 0 1158 l 111 1158 z "},"J":{"ha":721,"x_min":35,"x_max":614,"o":"m 614 914 l 614 381 q 499 72 614 172 q 265 -8 408 -8 q 133 20 193 -8 q 35 106 72 49 l 61 121 q 139 45 92 71 q 238 19 186 19 q 395 78 332 19 q 458 299 458 136 l 458 914 l 614 914 z "},"K":{"ha":882,"x_min":113,"x_max":813,"o":"m 468 468 l 813 0 l 617 0 l 374 332 l 140 0 l 113 0 l 113 914 l 269 914 l 269 232 l 749 914 l 782 914 l 468 468 z "},"L":{"ha":789,"x_min":114,"x_max":692,"o":"m 271 28 l 692 28 l 692 0 l 114 0 l 114 914 l 271 914 l 271 28 z "},"M":{"ha":1079,"x_min":114,"x_max":967,"o":"m 810 914 l 967 914 l 967 0 l 810 0 l 810 843 l 482 78 l 142 851 l 142 0 l 114 0 l 114 914 l 285 914 l 551 310 l 810 914 z "},"N":{"ha":925,"x_min":113,"x_max":813,"o":"m 813 914 l 813 0 l 785 0 l 140 685 l 140 0 l 113 0 l 113 914 l 140 914 l 785 229 l 785 914 l 813 914 z "},"Ñ":{"ha":925,"x_min":113,"x_max":813,"o":"m 646 1047 q 601 1006 622 1021 q 547 983 581 990 q 503 978 519 978 q 421 1006 456 978 q 399 1022 415 1010 q 370 1042 383 1035 q 344 1049 357 1049 q 323 1042 332 1047 q 307 1031 314 1038 q 297 1021 300 1024 l 278 1040 q 322 1081 300 1065 q 376 1106 343 1097 q 417 1111 401 1111 q 504 1082 465 1111 q 526 1064 511 1076 q 554 1046 542 1051 q 579 1040 567 1040 q 601 1046 592 1040 q 617 1058 610 1051 q 626 1067 624 1064 l 646 1047 m 813 914 l 813 0 l 785 0 l 140 685 l 140 0 l 113 0 l 113 914 l 140 914 l 785 229 l 785 914 l 813 914 z "},"O":{"ha":1064,"x_min":69,"x_max":994,"o":"m 532 922 q 763 859 657 922 q 932 689 869 796 q 994 457 994 582 q 932 225 994 332 q 763 55 869 118 q 532 -8 657 -8 q 301 54 407 -8 q 132 224 194 117 q 69 457 69 331 q 132 690 69 583 q 301 860 194 797 q 532 922 407 922 m 688 71 q 793 208 756 124 q 831 457 831 292 q 793 706 831 622 q 688 843 756 790 q 532 893 621 893 q 376 843 442 893 q 270 706 307 790 q 233 457 233 622 q 270 208 233 292 q 376 71 307 124 q 532 19 443 19 q 688 71 619 19 z "},"Ó":{"ha":1064,"x_min":69,"x_max":994,"o":"m 532 922 q 763 859 657 922 q 932 689 869 796 q 994 457 994 582 q 932 225 994 332 q 763 55 869 118 q 532 -8 657 -8 q 301 54 407 -8 q 132 224 194 117 q 69 457 69 331 q 132 690 69 583 q 301 860 194 797 q 532 922 407 922 m 688 71 q 793 208 756 124 q 831 457 831 292 q 793 706 831 622 q 688 843 756 790 q 532 893 621 893 q 376 843 442 893 q 270 706 307 790 q 233 457 233 622 q 270 208 233 292 q 376 71 307 124 q 532 19 443 19 q 688 71 619 19 m 624 1158 l 735 1158 l 549 978 l 514 978 l 624 1158 z "},"Ô":{"ha":1064,"x_min":69,"x_max":994,"o":"m 706 978 l 671 978 l 583 1096 l 496 978 l 357 978 l 532 1213 l 706 978 m 532 922 q 763 859 657 922 q 932 689 869 796 q 994 457 994 582 q 932 225 994 332 q 763 55 869 118 q 532 -8 657 -8 q 301 54 407 -8 q 132 224 194 117 q 69 457 69 331 q 132 690 69 583 q 301 860 194 797 q 532 922 407 922 m 688 71 q 793 208 756 124 q 831 457 831 292 q 793 706 831 622 q 688 843 756 790 q 532 893 621 893 q 376 843 442 893 q 270 706 307 790 q 233 457 233 622 q 270 208 233 292 q 376 71 307 124 q 532 19 443 19 q 688 71 619 19 z "},"Ö":{"ha":1064,"x_min":69,"x_max":994,"o":"m 532 922 q 763 859 657 922 q 932 689 869 796 q 994 457 994 582 q 932 225 994 332 q 763 55 869 118 q 532 -8 657 -8 q 301 54 407 -8 q 132 224 194 117 q 69 457 69 331 q 132 690 69 583 q 301 860 194 797 q 532 922 407 922 m 688 71 q 793 208 756 124 q 831 457 831 292 q 793 706 831 622 q 688 843 756 790 q 532 893 621 893 q 376 843 442 893 q 270 706 307 790 q 233 457 233 622 q 270 208 233 292 q 376 71 307 124 q 532 19 443 19 q 688 71 619 19 m 453 1049 q 431 1099 453 1078 q 379 1119 410 1119 q 329 1099 350 1119 q 308 1049 308 1078 q 329 999 308 1019 q 379 978 350 978 q 431 999 408 978 q 453 1049 453 1019 m 757 1049 q 735 1099 757 1078 q 683 1119 714 1119 q 633 1099 654 1119 q 613 1049 613 1078 q 633 999 613 1019 q 683 978 654 978 q 735 999 713 978 q 757 1049 757 1019 z "},"Ò":{"ha":1064,"x_min":69,"x_max":994,"o":"m 532 922 q 763 860 657 922 q 932 690 869 797 q 994 457 994 583 q 932 224 994 331 q 763 54 869 117 q 532 -8 657 -8 q 301 55 407 -8 q 132 225 194 118 q 69 457 69 332 q 132 689 69 582 q 301 859 194 796 q 532 922 407 922 m 376 71 q 532 19 444 19 q 688 71 621 19 q 794 208 757 124 q 831 457 831 292 q 794 706 831 622 q 688 843 757 790 q 532 893 622 893 q 376 843 443 893 q 271 706 308 790 q 233 457 233 622 q 271 208 233 292 q 376 71 308 124 m 440 1158 l 550 978 l 515 978 l 329 1158 l 440 1158 z "},"Ø":{"ha":1064,"x_min":69,"x_max":994,"o":"m 532 922 q 765 855 658 918 q 933 687 871 792 q 994 457 994 582 q 932 225 994 332 q 763 55 869 118 q 532 -8 657 -8 q 299 58 406 -4 q 131 226 193 121 q 69 457 69 331 q 132 690 69 583 q 301 860 194 797 q 532 922 407 922 m 688 71 q 793 208 756 124 q 831 457 831 292 q 793 706 831 622 q 688 843 756 790 q 532 893 621 893 q 376 843 442 893 q 270 706 307 790 q 233 457 233 622 q 270 208 233 292 q 376 71 307 124 q 532 19 443 19 q 688 71 619 19 m 796 914 l 994 914 l 268 0 l 69 0 l 796 914 z "},"Õ":{"ha":1064,"x_min":69,"x_max":994,"o":"m 717 1047 q 672 1006 693 1021 q 618 983 651 990 q 574 978 590 978 q 492 1006 526 978 q 470 1022 486 1010 q 441 1042 454 1035 q 415 1049 428 1049 q 394 1042 403 1047 q 378 1031 385 1038 q 368 1021 371 1024 l 349 1040 q 392 1081 371 1065 q 447 1106 414 1097 q 488 1111 472 1111 q 575 1082 536 1111 q 597 1064 582 1076 q 625 1046 613 1051 q 650 1040 638 1040 q 672 1046 663 1040 q 688 1058 681 1051 q 697 1067 694 1064 l 717 1047 m 532 922 q 763 859 657 922 q 932 689 869 796 q 994 457 994 582 q 932 225 994 332 q 763 55 869 118 q 532 -8 657 -8 q 301 54 407 -8 q 132 224 194 117 q 69 457 69 331 q 132 690 69 583 q 301 860 194 797 q 532 922 407 922 m 688 71 q 793 208 756 124 q 831 457 831 292 q 793 706 831 622 q 688 843 756 790 q 532 893 621 893 q 376 843 442 893 q 270 706 307 790 q 233 457 233 622 q 270 208 233 292 q 376 71 307 124 q 532 19 443 19 q 688 71 619 19 z "},"Œ":{"ha":1492,"x_min":69,"x_max":1408,"o":"m 988 886 l 988 471 l 1304 471 l 1304 443 l 988 443 l 988 28 l 1408 28 l 1408 0 l 831 0 l 831 103 q 692 21 769 50 q 532 -8 615 -8 q 301 54 407 -8 q 132 224 194 117 q 69 457 69 331 q 132 690 69 583 q 301 860 194 797 q 532 922 407 922 q 692 893 615 922 q 831 811 769 864 l 831 914 l 1408 914 l 1408 886 l 988 886 m 688 71 q 793 208 756 124 q 831 456 831 292 l 831 458 q 793 706 831 622 q 688 843 756 790 q 532 893 621 893 q 376 843 442 893 q 269 706 307 790 q 232 457 232 622 q 269 208 232 292 q 376 71 307 124 q 532 19 443 19 q 688 71 619 19 z "},"P":{"ha":889,"x_min":113,"x_max":813,"o":"m 513 914 q 679 877 611 914 q 780 783 747 840 q 813 665 813 725 q 780 548 813 606 q 680 453 747 490 q 513 415 613 415 l 269 415 l 269 0 l 113 0 l 113 914 l 513 914 m 467 443 q 558 472 514 443 q 628 553 601 501 q 656 667 656 604 q 628 778 656 728 q 558 858 601 829 q 467 886 514 886 l 269 886 l 269 443 l 467 443 z "},"Q":{"ha":1101,"x_min":69,"x_max":994,"o":"m 532 922 q 763 859 657 922 q 932 689 869 796 q 994 457 994 582 q 932 225 994 332 q 763 55 869 118 q 532 -8 657 -8 q 301 54 407 -8 q 132 224 194 117 q 69 457 69 331 q 132 690 69 583 q 301 860 194 797 q 532 922 407 922 m 688 71 q 793 208 756 124 q 831 457 831 292 q 793 706 831 622 q 688 843 756 790 q 532 893 624 893 q 376 843 443 893 q 270 706 307 790 q 233 457 233 622 q 270 208 233 292 q 376 71 307 124 q 532 19 446 19 q 688 71 622 19 m 994 -8 l 532 -8 l 532 19 l 994 19 l 994 -8 z "},"R":{"ha":914,"x_min":113,"x_max":817,"o":"m 817 0 l 656 0 l 615 196 q 547 354 594 296 q 433 415 499 413 l 269 415 l 269 0 l 113 0 l 113 914 l 513 914 q 679 877 611 914 q 780 783 747 840 q 813 665 813 725 q 758 516 813 586 q 597 424 703 446 q 708 353 663 403 q 764 251 754 303 l 817 0 m 269 443 l 467 443 q 558 472 514 443 q 628 553 601 501 q 656 667 656 604 q 628 778 656 728 q 558 858 601 829 q 467 886 514 886 l 269 886 l 269 443 z "},"S":{"ha":801,"x_min":83,"x_max":719,"o":"m 396 -8 q 567 27 494 -8 q 680 124 640 63 q 719 260 719 185 q 655 408 719 349 q 456 529 590 468 l 414 549 q 283 613 326 589 q 213 667 239 636 q 188 742 188 699 q 243 856 188 817 q 396 894 299 894 q 558 853 479 894 q 672 740 638 813 l 690 763 q 571 879 654 836 q 393 922 488 922 q 239 892 310 922 q 126 805 168 863 q 83 667 83 747 q 115 558 83 603 q 205 478 146 513 q 368 400 264 444 q 544 301 488 350 q 600 189 600 251 q 545 64 600 108 q 396 19 490 19 q 224 58 308 19 q 101 168 139 96 l 85 146 q 214 31 125 71 q 396 -8 303 -8 z "},"T":{"ha":840,"x_min":68,"x_max":772,"o":"m 772 914 l 772 886 l 499 886 l 499 0 l 342 0 l 342 886 l 68 886 l 68 914 l 772 914 z "},"U":{"ha":921,"x_min":114,"x_max":813,"o":"m 786 914 l 813 914 l 813 374 q 778 188 813 274 q 667 47 744 101 q 464 -8 589 -8 q 229 72 319 -8 q 114 381 114 174 l 114 914 l 269 914 l 269 299 q 333 78 269 136 q 490 19 396 19 q 654 69 588 19 q 753 199 721 118 q 786 374 786 279 l 786 914 z "},"Ú":{"ha":921,"x_min":114,"x_max":813,"o":"m 786 914 l 813 914 l 813 374 q 778 188 813 274 q 667 47 744 101 q 464 -8 589 -8 q 229 72 319 -8 q 114 381 114 174 l 114 914 l 269 914 l 269 299 q 333 78 269 136 q 490 19 396 19 q 654 69 588 19 q 753 199 721 118 q 786 374 786 279 l 786 914 m 556 1158 l 667 1158 l 481 978 l 446 978 l 556 1158 z "},"Û":{"ha":921,"x_min":114,"x_max":813,"o":"m 638 978 l 603 978 l 515 1096 l 428 978 l 289 978 l 464 1213 l 638 978 m 786 914 l 813 914 l 813 374 q 778 188 813 274 q 667 47 744 101 q 464 -8 589 -8 q 229 72 319 -8 q 114 381 114 174 l 114 914 l 269 914 l 269 299 q 333 78 269 136 q 490 19 396 19 q 654 69 588 19 q 753 199 721 118 q 786 374 786 279 l 786 914 z "},"Ü":{"ha":921,"x_min":114,"x_max":813,"o":"m 383 1049 q 362 1099 383 1078 q 310 1119 340 1119 q 260 1099 281 1119 q 239 1049 239 1078 q 260 999 239 1019 q 310 978 281 978 q 361 999 339 978 q 383 1049 383 1019 m 688 1049 q 666 1099 688 1078 q 614 1119 644 1119 q 564 1099 585 1119 q 543 1049 543 1078 q 564 999 543 1019 q 614 978 585 978 q 665 999 643 978 q 688 1049 688 1019 m 786 914 l 813 914 l 813 374 q 778 188 813 274 q 667 47 744 101 q 464 -8 589 -8 q 229 72 319 -8 q 114 381 114 174 l 114 914 l 269 914 l 269 299 q 333 78 269 136 q 490 19 396 19 q 654 69 588 19 q 753 199 721 118 q 786 374 786 279 l 786 914 z "},"Ù":{"ha":921,"x_min":114,"x_max":813,"o":"m 372 1158 l 482 978 l 447 978 l 261 1158 l 372 1158 m 786 914 l 813 914 l 813 374 q 778 188 813 274 q 667 47 744 101 q 464 -8 589 -8 q 229 72 319 -8 q 114 381 114 174 l 114 914 l 269 914 l 269 299 q 333 78 269 136 q 490 19 396 19 q 654 69 588 19 q 753 199 721 118 q 786 374 786 279 l 786 914 z "},"V":{"ha":951,"x_min":63,"x_max":889,"o":"m 465 -8 l 63 914 l 235 914 l 539 217 l 858 914 l 889 914 l 465 -8 z "},"W":{"ha":1231,"x_min":63,"x_max":1168,"o":"m 914 253 l 1138 914 l 1168 914 l 854 -8 l 615 547 l 375 -8 l 63 914 l 228 914 l 456 246 l 686 779 l 914 253 z "},"Ẃ":{"ha":1231,"x_min":63,"x_max":1168,"o":"m 914 253 l 1138 914 l 1168 914 l 854 -8 l 615 547 l 375 -8 l 63 914 l 228 914 l 456 246 l 686 779 l 914 253 m 778 1158 l 889 1158 l 703 978 l 668 978 l 778 1158 z "},"Ŵ":{"ha":1231,"x_min":63,"x_max":1168,"o":"m 857 978 l 822 978 l 735 1096 l 647 978 l 508 978 l 683 1213 l 857 978 m 914 253 l 1138 914 l 1168 914 l 854 -8 l 615 547 l 375 -8 l 63 914 l 228 914 l 456 246 l 686 779 l 914 253 z "},"Ẅ":{"ha":1231,"x_min":63,"x_max":1168,"o":"m 604 1049 q 583 1099 604 1078 q 531 1119 561 1119 q 481 1099 501 1119 q 460 1049 460 1078 q 481 999 460 1019 q 531 978 501 978 q 582 999 560 978 q 604 1049 604 1019 m 908 1049 q 887 1099 908 1078 q 835 1119 865 1119 q 785 1099 806 1119 q 764 1049 764 1078 q 785 999 764 1019 q 835 978 806 978 q 886 999 864 978 q 908 1049 908 1019 m 914 253 l 1138 914 l 1168 914 l 854 -8 l 615 547 l 375 -8 l 63 914 l 228 914 l 456 246 l 686 779 l 914 253 z "},"Ẁ":{"ha":1231,"x_min":63,"x_max":1168,"o":"m 914 253 l 1138 914 l 1168 914 l 854 -8 l 615 547 l 375 -8 l 63 914 l 228 914 l 456 246 l 686 779 l 914 253 m 592 1158 l 701 978 l 667 978 l 481 1158 l 592 1158 z "},"X":{"ha":883,"x_min":72,"x_max":814,"o":"m 493 525 l 779 914 l 814 914 l 508 499 l 811 0 l 628 0 l 392 388 l 107 0 l 72 0 l 376 414 l 74 914 l 257 914 l 493 525 z "},"Y":{"ha":939,"x_min":56,"x_max":882,"o":"m 850 914 l 882 914 l 544 306 l 544 0 l 388 0 l 388 306 l 56 914 l 233 914 l 542 358 l 850 914 z "},"Ý":{"ha":939,"x_min":56,"x_max":882,"o":"m 850 914 l 882 914 l 544 306 l 544 0 l 388 0 l 388 306 l 56 914 l 233 914 l 542 358 l 850 914 m 558 1158 l 669 1158 l 483 978 l 449 978 l 558 1158 z "},"Ŷ":{"ha":939,"x_min":56,"x_max":882,"o":"m 639 978 l 604 978 l 517 1096 l 429 978 l 290 978 l 465 1213 l 639 978 m 850 914 l 882 914 l 544 306 l 544 0 l 388 0 l 388 306 l 56 914 l 233 914 l 542 358 l 850 914 z "},"Ÿ":{"ha":939,"x_min":56,"x_max":882,"o":"m 386 1049 q 365 1099 386 1078 q 313 1119 343 1119 q 263 1099 283 1119 q 242 1049 242 1078 q 263 999 242 1019 q 313 978 283 978 q 364 999 342 978 q 386 1049 386 1019 m 690 1049 q 669 1099 690 1078 q 617 1119 647 1119 q 567 1099 588 1119 q 546 1049 546 1078 q 567 999 546 1019 q 617 978 588 978 q 668 999 646 978 q 690 1049 690 1019 m 850 914 l 882 914 l 544 306 l 544 0 l 388 0 l 388 306 l 56 914 l 233 914 l 542 358 l 850 914 z "},"Ỳ":{"ha":939,"x_min":56,"x_max":882,"o":"m 850 914 l 882 914 l 544 306 l 544 0 l 388 0 l 388 306 l 56 914 l 233 914 l 542 358 l 850 914 m 374 1158 l 483 978 l 449 978 l 263 1158 l 374 1158 z "},"Z":{"ha":892,"x_min":94,"x_max":796,"o":"m 796 914 l 290 28 l 796 28 l 796 0 l 94 0 l 599 886 l 94 886 l 94 914 l 796 914 z "},"a":{"ha":865,"x_min":69,"x_max":753,"o":"m 753 667 l 753 0 l 596 0 l 596 46 q 411 -8 511 -8 q 281 17 343 -8 q 169 92 219 43 q 95 203 121 142 q 69 333 69 265 q 95 464 69 401 q 169 575 121 526 q 281 649 219 624 q 411 675 343 675 q 596 621 511 675 l 596 667 l 753 667 m 411 21 q 596 81 515 21 l 596 586 q 411 646 515 646 q 289 594 328 646 q 242 479 250 542 q 233 333 233 417 q 242 188 233 250 q 289 73 250 125 q 411 21 328 21 z "},"á":{"ha":865,"x_min":69,"x_max":753,"o":"m 503 939 l 614 939 l 428 758 l 393 758 l 503 939 m 753 667 l 753 0 l 596 0 l 596 46 q 411 -8 511 -8 q 281 17 343 -8 q 169 92 219 43 q 95 203 121 142 q 69 333 69 265 q 95 464 69 401 q 169 575 121 526 q 281 649 219 624 q 411 675 343 675 q 596 621 511 675 l 596 667 l 753 667 m 411 21 q 596 81 515 21 l 596 586 q 411 646 515 646 q 289 594 328 646 q 242 479 250 542 q 233 333 233 417 q 242 188 233 250 q 289 73 250 125 q 411 21 328 21 z "},"â":{"ha":865,"x_min":69,"x_max":753,"o":"m 585 758 l 550 758 l 463 876 l 375 758 l 236 758 l 411 993 l 585 758 m 753 667 l 753 0 l 596 0 l 596 46 q 411 -8 511 -8 q 281 17 343 -8 q 169 92 219 43 q 95 203 121 142 q 69 333 69 265 q 95 464 69 401 q 169 575 121 526 q 281 649 219 624 q 411 675 343 675 q 596 621 511 675 l 596 667 l 753 667 m 411 21 q 596 81 515 21 l 596 586 q 411 646 515 646 q 289 594 328 646 q 242 479 250 542 q 233 333 233 417 q 242 188 233 250 q 289 73 250 125 q 411 21 328 21 z "},"ä":{"ha":865,"x_min":69,"x_max":753,"o":"m 332 829 q 310 879 332 858 q 258 900 289 900 q 208 879 229 900 q 188 829 188 858 q 208 779 188 800 q 258 758 229 758 q 310 779 288 758 q 332 829 332 800 m 635 829 q 613 879 635 858 q 561 900 592 900 q 511 879 532 900 q 490 829 490 858 q 511 779 490 800 q 561 758 532 758 q 613 779 590 758 q 635 829 635 800 m 753 667 l 753 0 l 596 0 l 596 46 q 411 -8 511 -8 q 281 17 343 -8 q 169 92 219 43 q 95 203 121 142 q 69 333 69 265 q 95 464 69 401 q 169 575 121 526 q 281 649 219 624 q 411 675 343 675 q 596 621 511 675 l 596 667 l 753 667 m 411 21 q 596 81 515 21 l 596 586 q 411 646 515 646 q 289 594 328 646 q 242 479 250 542 q 233 333 233 417 q 242 188 233 250 q 289 73 250 125 q 411 21 328 21 z "},"à":{"ha":865,"x_min":69,"x_max":753,"o":"m 319 939 l 429 758 l 394 758 l 208 939 l 319 939 m 753 667 l 753 0 l 596 0 l 596 46 q 411 -8 511 -8 q 281 17 343 -8 q 169 92 219 43 q 95 203 121 142 q 69 333 69 265 q 95 464 69 401 q 169 575 121 526 q 281 649 219 624 q 411 675 343 675 q 596 621 511 675 l 596 667 l 753 667 m 411 21 q 596 81 515 21 l 596 586 q 411 646 515 646 q 289 594 328 646 q 242 479 250 542 q 233 333 233 417 q 242 188 233 250 q 289 73 250 125 q 411 21 328 21 z "},"å":{"ha":865,"x_min":69,"x_max":753,"o":"m 411 992 q 494 958 460 992 q 528 875 528 924 q 494 792 528 826 q 411 758 460 758 q 328 792 363 758 q 294 875 294 826 q 329 958 294 924 q 411 992 364 992 m 411 786 q 440 805 431 786 q 449 875 449 824 q 440 945 449 926 q 411 964 431 964 q 383 946 392 964 q 375 875 375 928 q 383 804 375 822 q 411 786 392 786 m 753 667 l 753 0 l 596 0 l 596 46 q 411 -8 511 -8 q 281 17 343 -8 q 169 92 219 43 q 95 203 121 142 q 69 333 69 265 q 95 464 69 401 q 169 575 121 526 q 281 649 219 624 q 411 675 343 675 q 596 621 511 675 l 596 667 l 753 667 m 411 21 q 596 81 515 21 l 596 586 q 411 646 515 646 q 289 594 328 646 q 242 479 250 542 q 233 333 233 417 q 242 188 233 250 q 289 73 250 125 q 411 21 328 21 z "},"ã":{"ha":865,"x_min":69,"x_max":753,"o":"m 596 828 q 551 786 572 801 q 497 764 531 771 q 453 758 469 758 q 371 786 406 758 q 349 803 365 790 q 320 822 333 815 q 294 829 307 829 q 273 823 282 828 q 257 811 264 818 q 247 801 250 804 l 228 821 q 272 862 250 846 q 326 886 293 878 q 367 892 351 892 q 454 863 415 892 q 476 844 461 857 q 504 826 492 832 q 529 821 517 821 q 551 826 542 821 q 567 838 560 832 q 576 847 574 844 l 596 828 m 753 667 l 753 0 l 596 0 l 596 46 q 411 -8 511 -8 q 281 17 343 -8 q 169 92 219 43 q 95 203 121 142 q 69 333 69 265 q 95 464 69 401 q 169 575 121 526 q 281 649 219 624 q 411 675 343 675 q 596 621 511 675 l 596 667 l 753 667 m 411 21 q 596 81 515 21 l 596 586 q 411 646 515 646 q 289 594 328 646 q 242 479 250 542 q 233 333 233 417 q 242 188 233 250 q 289 73 250 125 q 411 21 328 21 z "},"æ":{"ha":1328,"x_min":69,"x_max":1258,"o":"m 753 318 q 788 109 753 197 q 938 21 824 21 q 1086 58 1017 21 q 1199 163 1156 96 l 1224 146 q 1099 33 1175 74 q 938 -8 1024 -8 q 753 46 838 -8 l 753 0 l 596 0 l 596 46 q 411 -8 511 -8 q 281 17 343 -8 q 169 92 219 43 q 95 203 121 142 q 69 333 69 265 q 95 464 69 401 q 169 575 121 526 q 281 649 219 624 q 411 675 343 675 q 596 621 511 675 l 596 667 l 753 667 l 753 624 q 931 675 835 675 q 1059 649 999 675 q 1165 575 1119 624 q 1234 464 1210 526 q 1258 333 1258 401 l 1258 318 l 753 318 m 596 586 q 411 646 515 646 q 289 594 328 646 q 242 479 250 542 q 233 333 233 417 q 242 188 233 250 q 289 73 250 125 q 411 21 328 21 q 596 81 515 21 l 596 586 m 926 646 q 786 553 819 640 q 753 347 753 465 l 1094 347 q 1084 485 1093 425 q 1038 593 1075 544 q 926 646 1001 642 z "},"b":{"ha":865,"x_min":113,"x_max":796,"o":"m 454 21 q 576 73 538 21 q 624 188 615 125 q 632 333 632 250 q 624 479 632 417 q 576 594 615 542 q 454 646 538 646 q 269 586 350 646 l 269 82 q 454 21 350 21 m 696 575 q 770 464 744 526 q 796 333 796 401 q 770 203 796 265 q 696 92 744 142 q 585 17 647 43 q 454 -8 522 -8 q 269 46 354 -8 l 269 0 l 113 0 l 113 914 l 269 914 l 269 621 q 454 675 350 675 q 585 649 524 675 q 696 575 647 624 z "},"c":{"ha":756,"x_min":69,"x_max":686,"o":"m 632 113 q 664 149 650 131 l 686 131 q 653 92 664 103 q 542 17 604 43 q 411 -8 479 -8 q 281 17 343 -8 q 169 92 219 43 q 95 203 121 142 q 69 333 69 265 q 95 464 69 401 q 169 575 121 526 q 281 649 219 624 q 411 675 343 675 q 542 649 479 675 q 653 575 604 624 q 686 536 664 564 l 664 518 q 632 554 650 536 q 531 622 589 599 q 411 646 474 646 q 289 594 328 646 q 242 479 250 542 q 233 333 233 417 q 242 188 233 250 q 289 73 250 125 q 411 21 328 21 q 531 44 474 21 q 632 113 589 68 z "},"ç":{"ha":756,"x_min":69,"x_max":686,"o":"m 653 92 q 549 21 607 46 q 425 -7 490 -4 l 425 -61 q 503 -87 474 -64 q 533 -157 533 -111 q 499 -228 533 -204 q 411 -251 465 -251 q 322 -228 357 -251 q 288 -157 288 -204 l 372 -157 q 383 -209 372 -194 q 411 -224 393 -224 q 440 -209 429 -224 q 450 -157 450 -194 q 440 -104 450 -119 q 414 -89 431 -89 l 397 -89 l 397 -7 q 274 21 332 -4 q 169 92 215 46 q 95 203 121 140 q 69 333 69 265 q 95 464 69 401 q 169 575 121 526 q 280 649 218 624 q 411 675 342 675 q 542 649 481 675 q 653 575 604 624 q 671 556 661 568 q 686 538 681 544 l 664 518 q 632 554 650 536 q 531 622 589 599 q 411 646 474 646 q 289 594 328 646 q 242 479 250 542 q 233 333 233 417 q 242 188 233 250 q 289 73 250 125 q 411 21 328 21 q 531 44 474 21 q 632 113 588 68 q 664 150 658 143 l 686 131 q 653 92 664 103 z "},"d":{"ha":865,"x_min":69,"x_max":753,"o":"m 233 333 q 242 188 233 250 q 289 73 250 125 q 411 21 328 21 q 596 82 515 21 l 596 586 q 411 646 515 646 q 289 594 328 646 q 242 479 250 542 q 233 333 233 417 m 69 333 q 95 464 69 401 q 169 575 121 526 q 280 649 218 624 q 411 675 342 675 q 596 621 515 675 l 596 914 l 753 914 l 753 0 l 596 0 l 596 46 q 411 -8 511 -8 q 281 17 343 -8 q 169 92 219 43 q 95 203 121 142 q 69 333 69 265 z "},"e":{"ha":801,"x_min":69,"x_max":732,"o":"m 732 318 l 233 318 q 243 179 233 242 q 292 69 253 117 q 411 21 332 21 q 560 58 490 21 q 672 163 629 96 l 697 146 q 573 33 649 74 q 411 -8 497 -8 q 281 17 343 -8 q 169 92 219 43 q 95 203 121 142 q 69 333 69 265 q 94 464 69 401 q 165 575 119 526 q 275 649 214 624 q 404 675 336 675 q 533 649 472 675 q 639 575 593 624 q 708 464 683 526 q 732 333 732 401 l 732 318 m 400 646 q 288 593 325 642 q 242 484 251 544 q 233 347 233 424 l 568 347 q 558 485 567 425 q 512 593 549 544 q 400 646 475 642 z "},"é":{"ha":801,"x_min":69,"x_max":732,"o":"m 732 318 l 233 318 q 243 179 233 242 q 292 69 253 117 q 411 21 332 21 q 560 58 490 21 q 672 163 629 96 l 697 146 q 573 33 649 74 q 411 -8 497 -8 q 281 17 343 -8 q 169 92 219 43 q 95 203 121 142 q 69 333 69 265 q 94 464 69 401 q 165 575 119 526 q 275 649 214 624 q 404 675 336 675 q 533 649 472 675 q 639 575 593 624 q 708 464 683 526 q 732 333 732 401 l 732 318 m 400 646 q 288 597 325 646 q 242 486 251 549 q 233 347 233 424 l 568 347 q 558 488 567 426 q 512 597 549 549 q 400 646 475 646 m 492 939 l 603 939 l 417 758 l 382 758 l 492 939 z "},"ê":{"ha":801,"x_min":69,"x_max":732,"o":"m 574 758 l 539 758 l 451 876 l 364 758 l 225 758 l 400 993 l 574 758 m 732 318 l 233 318 q 243 179 233 242 q 292 69 253 117 q 411 21 332 21 q 560 58 490 21 q 672 163 629 96 l 697 146 q 573 33 649 74 q 411 -8 497 -8 q 281 17 343 -8 q 169 92 219 43 q 95 203 121 142 q 69 333 69 265 q 94 464 69 401 q 165 575 119 526 q 275 649 214 624 q 404 675 336 675 q 533 649 472 675 q 639 575 593 624 q 708 464 683 526 q 732 333 732 401 l 732 318 m 400 646 q 288 597 325 646 q 242 486 251 549 q 233 347 233 424 l 568 347 q 558 488 567 426 q 512 597 549 549 q 400 646 475 646 z "},"ë":{"ha":801,"x_min":69,"x_max":732,"o":"m 321 829 q 299 879 321 858 q 247 900 278 900 q 197 879 218 900 q 176 829 176 858 q 197 779 176 800 q 247 758 218 758 q 299 779 276 758 q 321 829 321 800 m 625 829 q 603 879 625 858 q 551 900 582 900 q 501 879 522 900 q 481 829 481 858 q 501 779 481 800 q 551 758 522 758 q 603 779 581 758 q 625 829 625 800 m 732 318 l 233 318 q 243 179 233 242 q 292 69 253 117 q 411 21 332 21 q 560 58 490 21 q 672 163 629 96 l 697 146 q 573 33 649 74 q 411 -8 497 -8 q 281 17 343 -8 q 169 92 219 43 q 95 203 121 142 q 69 333 69 265 q 94 464 69 401 q 165 575 119 526 q 275 649 214 624 q 404 675 336 675 q 533 649 472 675 q 639 575 593 624 q 708 464 683 526 q 732 333 732 401 l 732 318 m 400 646 q 288 597 325 646 q 242 486 251 549 q 233 347 233 424 l 568 347 q 558 488 567 426 q 512 597 549 549 q 400 646 475 646 z "},"è":{"ha":801,"x_min":69,"x_max":732,"o":"m 307 939 l 417 758 l 382 758 l 196 939 l 307 939 m 732 318 l 233 318 q 243 179 233 242 q 292 69 253 117 q 411 21 332 21 q 560 58 490 21 q 672 163 629 96 l 697 146 q 573 33 649 74 q 411 -8 497 -8 q 281 17 343 -8 q 169 92 219 43 q 95 203 121 142 q 69 333 69 265 q 94 464 69 401 q 165 575 119 526 q 275 649 214 624 q 404 675 336 675 q 533 649 472 675 q 639 575 593 624 q 708 464 683 526 q 732 333 732 401 l 732 318 m 400 646 q 288 597 325 646 q 242 486 251 549 q 233 347 233 424 l 568 347 q 558 488 567 426 q 512 597 549 549 q 400 646 475 646 z "},"f":{"ha":544,"x_min":42,"x_max":517,"o":"m 508 875 q 454 883 479 883 q 367 839 394 883 q 339 726 339 794 l 339 653 l 469 653 l 469 624 l 339 624 l 339 0 l 182 0 l 182 624 l 42 624 l 42 653 l 182 653 q 243 832 186 767 q 440 914 313 914 q 517 903 476 914 l 508 875 z "},"g":{"ha":865,"x_min":69,"x_max":753,"o":"m 753 60 q 718 -101 753 -26 q 608 -221 683 -175 q 418 -267 533 -267 q 237 -225 314 -267 q 121 -107 160 -183 l 147 -93 q 253 -200 182 -162 q 418 -237 324 -237 q 563 -155 529 -237 q 596 46 596 -72 q 411 -8 511 -8 q 281 17 343 -8 q 169 92 219 43 q 95 203 121 142 q 69 333 69 265 q 95 464 69 401 q 169 575 121 526 q 281 649 219 624 q 411 675 343 675 q 596 621 511 675 l 596 667 l 753 667 l 753 60 m 233 333 q 242 188 233 250 q 289 73 250 125 q 411 21 328 21 q 596 81 515 21 l 596 586 q 411 646 515 646 q 289 594 328 646 q 242 479 250 542 q 233 333 233 417 z "},"h":{"ha":832,"x_min":113,"x_max":719,"o":"m 651 601 q 703 508 686 563 q 719 378 719 454 l 719 0 l 563 0 l 563 418 q 523 585 563 533 q 433 636 483 636 q 342 598 389 636 q 281 501 296 560 q 272 440 274 471 q 269 361 269 408 l 269 0 l 113 0 l 113 914 l 269 914 l 269 561 q 351 642 296 608 q 468 675 407 675 q 569 659 524 675 q 651 601 615 643 z "},"i":{"ha":408,"x_min":125,"x_max":283,"o":"m 282 667 l 125 667 l 125 0 l 282 0 l 282 667 m 125 843 q 148 788 125 811 q 204 765 171 765 q 260 788 238 765 q 283 843 283 811 q 260 899 283 875 q 204 922 236 922 q 149 899 172 922 q 125 843 125 875 z "},"í":{"ha":407,"x_min":125,"x_max":407,"o":"m 296 939 l 407 939 l 221 758 l 186 758 l 296 939 m 282 667 l 125 667 l 125 0 l 282 0 l 282 667 z "},"î":{"ha":407,"x_min":29,"x_max":378,"o":"m 282 667 l 125 667 l 125 0 l 282 0 l 282 667 m 378 758 l 343 758 l 256 876 l 168 758 l 29 758 l 204 993 l 378 758 z "},"ï":{"ha":407,"x_min":-21,"x_max":428,"o":"m 279 667 l 122 667 l 122 0 l 279 0 l 279 667 m 124 829 q 102 879 124 858 q 50 900 81 900 q 0 879 21 900 q -21 829 -21 858 q 0 779 -21 800 q 50 758 21 758 q 101 779 79 758 q 124 829 124 800 m 428 829 q 406 879 428 858 q 354 900 385 900 q 304 879 325 900 q 283 829 283 858 q 304 779 283 800 q 354 758 325 758 q 406 779 383 758 q 428 829 428 800 z "},"ì":{"ha":407,"x_min":0,"x_max":282,"o":"m 111 939 l 221 758 l 186 758 l 0 939 l 111 939 m 125 667 l 125 0 l 282 0 l 282 667 l 125 667 z "},"j":{"ha":419,"x_min":-97,"x_max":307,"o":"m 307 667 l 307 17 q 250 -185 307 -108 q 76 -267 188 -267 q -33 -235 10 -267 q -97 -153 -76 -201 l -61 -153 l -57 -160 q -19 -208 -44 -187 q 32 -229 6 -229 q 112 -192 86 -229 q 144 -104 138 -154 q 150 17 150 -54 l 150 667 l 307 667 m 149 843 q 172 788 149 811 q 228 765 194 765 q 284 788 261 765 q 307 843 307 811 q 283 899 307 875 q 228 922 260 922 q 172 899 196 922 q 149 843 149 875 z "},"k":{"ha":740,"x_min":113,"x_max":685,"o":"m 406 378 l 685 0 l 490 0 l 310 243 l 140 0 l 113 0 l 113 914 l 269 914 l 269 233 l 574 667 l 607 667 l 406 378 z "},"l":{"ha":401,"x_min":122,"x_max":279,"o":"m 122 914 l 279 914 l 279 0 l 122 0 l 122 914 z "},"m":{"ha":1161,"x_min":113,"x_max":1049,"o":"m 992 607 q 1037 515 1025 567 q 1049 392 1049 463 l 1049 0 l 892 0 l 892 392 l 893 469 q 874 591 893 546 q 797 636 854 636 q 728 613 760 636 q 681 556 696 590 q 664 487 668 522 q 660 392 660 451 l 660 0 l 503 0 l 503 392 l 504 465 q 485 590 504 544 q 408 636 467 636 q 338 613 371 636 q 292 556 306 590 q 269 413 269 501 l 269 0 l 113 0 l 113 667 l 269 667 l 269 579 q 307 628 288 610 q 442 675 360 675 q 601 607 544 675 q 642 536 626 576 q 696 628 657 592 q 832 675 749 675 q 992 607 932 675 z "},"n":{"ha":832,"x_min":113,"x_max":719,"o":"m 651 601 q 703 508 686 563 q 719 378 719 454 l 719 0 l 563 0 l 563 418 q 523 584 563 532 q 435 636 483 636 q 343 598 390 636 q 281 501 296 560 q 272 440 274 471 q 269 361 269 408 l 269 0 l 113 0 l 113 667 l 269 667 l 269 561 q 351 642 296 608 q 468 675 407 675 q 569 659 524 675 q 651 601 615 643 z "},"ñ":{"ha":832,"x_min":113,"x_max":719,"o":"m 651 594 q 703 501 686 556 q 719 371 719 447 l 719 0 l 563 0 l 563 411 q 523 577 563 525 q 435 629 483 629 q 343 591 390 629 q 281 494 296 553 q 272 433 274 464 q 269 354 269 401 l 269 0 l 113 0 l 113 667 l 269 667 l 269 554 q 351 635 296 601 q 468 668 407 668 q 569 652 524 668 q 651 594 615 636 m 599 826 q 554 785 575 800 q 500 763 533 769 q 456 757 472 757 q 374 785 408 757 q 352 801 368 789 q 323 821 336 814 q 297 828 310 828 q 276 822 285 826 q 260 810 267 817 q 250 800 253 803 l 231 819 q 274 860 253 844 q 329 885 296 876 q 369 890 354 890 q 457 861 418 890 q 479 843 464 856 q 507 825 494 831 q 532 819 519 819 q 553 825 544 819 q 569 837 563 831 q 579 846 576 843 l 599 826 z "},"o":{"ha":822,"x_min":69,"x_max":753,"o":"m 653 575 q 727 464 701 526 q 753 333 753 401 q 727 203 753 265 q 653 92 701 142 q 542 17 604 43 q 411 -8 479 -8 q 281 17 343 -8 q 169 92 219 43 q 95 203 121 142 q 69 333 69 265 q 95 464 69 401 q 169 575 121 526 q 281 649 219 624 q 411 675 343 675 q 542 649 479 675 q 653 575 604 624 m 411 21 q 533 73 494 21 q 581 188 572 125 q 589 333 589 250 q 581 479 589 417 q 533 594 572 542 q 411 646 494 646 q 289 594 328 646 q 242 479 250 542 q 233 333 233 417 q 242 188 233 250 q 289 73 250 125 q 411 21 328 21 z "},"ó":{"ha":822,"x_min":69,"x_max":753,"o":"m 653 575 q 727 464 701 526 q 753 333 753 401 q 727 203 753 265 q 653 92 701 142 q 542 17 604 43 q 411 -8 479 -8 q 281 17 343 -8 q 169 92 219 43 q 95 203 121 142 q 69 333 69 265 q 95 464 69 401 q 169 575 121 526 q 281 649 219 624 q 411 675 343 675 q 542 649 479 675 q 653 575 604 624 m 411 21 q 533 73 494 21 q 581 188 572 125 q 589 333 589 250 q 581 479 589 417 q 533 594 572 542 q 411 646 494 646 q 289 594 328 646 q 242 479 250 542 q 233 333 233 417 q 242 188 233 250 q 289 73 250 125 q 411 21 328 21 m 503 939 l 614 939 l 428 758 l 393 758 l 503 939 z "},"ô":{"ha":822,"x_min":69,"x_max":753,"o":"m 653 575 q 727 464 701 526 q 753 333 753 401 q 727 203 753 265 q 653 92 701 142 q 542 17 604 43 q 411 -8 479 -8 q 281 17 343 -8 q 169 92 219 43 q 95 203 121 142 q 69 333 69 265 q 95 464 69 401 q 169 575 121 526 q 281 649 219 624 q 411 675 343 675 q 542 649 479 675 q 653 575 604 624 m 411 21 q 533 73 494 21 q 581 188 572 125 q 589 333 589 250 q 581 479 589 417 q 533 594 572 542 q 411 646 494 646 q 289 594 328 646 q 242 479 250 542 q 233 333 233 417 q 242 188 233 250 q 289 73 250 125 q 411 21 328 21 m 585 758 l 550 758 l 463 876 l 375 758 l 236 758 l 411 993 l 585 758 z "},"ö":{"ha":822,"x_min":69,"x_max":753,"o":"m 653 575 q 727 464 701 526 q 753 333 753 401 q 727 203 753 265 q 653 92 701 142 q 542 17 604 43 q 411 -8 479 -8 q 281 17 343 -8 q 169 92 219 43 q 95 203 121 142 q 69 333 69 265 q 95 464 69 401 q 169 575 121 526 q 281 649 219 624 q 411 675 343 675 q 542 649 479 675 q 653 575 604 624 m 411 21 q 533 73 494 21 q 581 188 572 125 q 589 333 589 250 q 581 479 589 417 q 533 594 572 542 q 411 646 494 646 q 289 594 328 646 q 242 479 250 542 q 233 333 233 417 q 242 188 233 250 q 289 73 250 125 q 411 21 328 21 m 332 829 q 310 879 332 858 q 258 900 289 900 q 208 879 229 900 q 188 829 188 858 q 208 779 188 800 q 258 758 229 758 q 310 779 288 758 q 332 829 332 800 m 636 829 q 615 879 636 858 q 563 900 593 900 q 513 879 533 900 q 492 829 492 858 q 513 779 492 800 q 563 758 533 758 q 614 779 592 758 q 636 829 636 800 z "},"ò":{"ha":822,"x_min":69,"x_max":753,"o":"m 169 575 q 281 649 219 624 q 411 675 343 675 q 542 649 479 675 q 653 575 604 624 q 727 464 701 526 q 753 333 753 401 q 727 203 753 265 q 653 92 701 142 q 542 17 604 43 q 411 -8 479 -8 q 281 17 343 -8 q 169 92 219 43 q 95 203 121 142 q 69 333 69 265 q 95 464 69 401 q 169 575 121 526 m 411 21 q 533 73 494 21 q 581 188 572 125 q 589 333 589 250 q 581 479 589 417 q 533 594 572 542 q 411 646 494 646 q 289 594 328 646 q 242 479 250 542 q 233 333 233 417 q 242 188 233 250 q 289 73 250 125 q 411 21 328 21 m 319 939 l 429 758 l 394 758 l 208 939 l 319 939 z "},"ø":{"ha":822,"x_min":69,"x_max":753,"o":"m 651 575 q 726 464 700 526 q 753 333 753 401 q 726 203 753 265 q 651 92 700 140 q 541 17 603 43 q 411 -8 479 -8 q 281 17 343 -8 q 169 92 218 43 q 95 202 121 140 q 69 333 69 264 q 95 465 69 403 q 169 575 121 526 q 281 649 218 624 q 411 675 343 675 q 541 649 479 675 q 651 575 603 624 m 411 21 q 533 73 494 21 q 581 188 572 125 q 589 333 589 250 q 581 479 589 417 q 533 594 572 542 q 411 646 494 646 q 288 594 328 646 q 240 479 249 542 q 232 333 232 417 q 240 188 232 250 q 288 73 249 125 q 411 21 326 21 m 69 0 l 572 667 l 753 667 l 249 0 l 69 0 z "},"õ":{"ha":822,"x_min":69,"x_max":753,"o":"m 653 575 q 727 464 701 526 q 753 333 753 401 q 727 203 753 265 q 653 92 701 142 q 542 17 604 43 q 411 -8 479 -8 q 281 17 343 -8 q 169 92 219 43 q 95 203 121 142 q 69 333 69 265 q 95 464 69 401 q 169 575 121 526 q 281 649 219 624 q 411 675 343 675 q 542 649 479 675 q 653 575 604 624 m 411 21 q 533 73 494 21 q 581 188 572 125 q 589 333 589 250 q 581 479 589 417 q 533 594 572 542 q 411 646 494 646 q 289 594 328 646 q 242 479 250 542 q 233 333 233 417 q 242 188 233 250 q 289 73 250 125 q 411 21 328 21 m 594 828 q 550 786 571 801 q 496 764 529 771 q 451 758 468 758 q 369 786 404 758 q 348 803 364 790 q 319 822 332 815 q 293 829 306 829 q 272 823 281 828 q 256 811 263 818 q 246 801 249 804 l 226 821 q 270 862 249 846 q 325 886 292 878 q 365 892 350 892 q 453 863 414 892 q 475 844 460 857 q 503 826 490 832 q 528 821 515 821 q 549 826 540 821 q 565 838 558 832 q 575 847 572 844 l 594 828 z "},"œ":{"ha":1321,"x_min":69,"x_max":1251,"o":"m 1251 318 l 753 318 q 763 178 753 240 q 812 69 772 117 q 932 21 851 21 q 1080 58 1011 21 q 1193 163 1149 96 l 1217 146 q 1094 33 1169 74 q 932 -8 1018 -8 q 801 17 864 -8 q 690 92 739 43 l 672 111 l 653 92 q 542 17 604 43 q 411 -8 479 -8 q 281 17 343 -8 q 171 92 219 43 q 96 203 122 140 q 69 333 69 265 q 96 464 69 401 q 171 575 122 526 q 281 649 219 624 q 411 675 343 675 q 542 649 479 675 q 653 575 604 624 l 669 557 l 686 575 q 794 649 733 624 q 924 675 856 675 q 1053 649 992 675 q 1158 575 1114 624 q 1227 464 1203 526 q 1251 333 1251 401 l 1251 318 m 411 21 q 534 73 494 21 q 582 188 574 125 q 590 333 590 250 q 582 479 590 417 q 535 594 574 542 q 411 646 496 646 q 289 594 328 646 q 242 479 250 542 q 233 333 233 417 q 242 188 233 250 q 289 73 250 125 q 411 21 328 21 m 1088 347 q 1078 484 1088 424 q 1033 593 1069 544 q 921 646 996 642 q 808 593 844 642 q 762 484 771 544 q 753 347 753 424 l 1088 347 z "},"p":{"ha":865,"x_min":113,"x_max":796,"o":"m 269 667 l 269 621 q 454 675 354 675 q 585 649 522 675 q 696 575 647 624 q 770 464 744 526 q 796 333 796 401 q 770 203 796 265 q 696 92 744 140 q 585 17 647 43 q 454 -8 524 -8 q 269 46 350 -8 l 269 -267 l 113 -267 l 113 667 l 269 667 m 269 81 q 454 21 350 21 q 576 73 538 21 q 624 188 615 125 q 632 333 632 250 q 624 479 632 417 q 576 594 615 542 q 454 646 538 646 q 269 585 350 646 l 269 81 z "},"q":{"ha":865,"x_min":69,"x_max":753,"o":"m 753 -267 l 596 -267 l 596 46 q 411 -8 515 -8 q 280 17 342 -8 q 169 92 218 43 q 95 203 121 140 q 69 333 69 265 q 95 464 69 401 q 169 575 121 526 q 281 649 219 624 q 411 675 343 675 q 596 621 511 675 l 596 667 l 753 667 l 753 -267 m 596 585 q 411 646 515 646 q 289 594 328 646 q 242 479 250 542 q 233 333 233 417 q 242 188 233 250 q 289 73 250 125 q 411 21 328 21 q 596 81 515 21 l 596 585 z "},"r":{"ha":574,"x_min":113,"x_max":518,"o":"m 413 675 q 466 669 443 675 q 518 653 489 664 l 506 626 q 413 646 460 646 q 331 617 365 646 q 285 556 297 588 q 269 426 269 513 l 269 0 l 113 0 l 113 667 l 269 667 l 269 617 q 413 675 328 675 z "},"s":{"ha":663,"x_min":64,"x_max":600,"o":"m 544 76 q 465 22 519 51 q 319 -8 410 -8 q 189 17 251 -8 q 78 92 126 43 l 99 113 q 199 44 142 68 q 319 21 257 21 q 412 37 374 21 q 469 76 450 53 q 489 121 489 99 q 469 171 489 150 q 415 209 450 192 q 300 261 381 226 l 265 276 q 160 326 200 303 q 92 390 119 350 q 64 490 64 429 q 105 594 64 551 q 213 658 146 638 q 322 675 268 675 q 452 649 390 675 q 561 575 514 622 l 540 554 q 440 622 496 599 q 321 646 383 646 q 210 619 254 646 q 156 561 165 593 q 153 544 153 550 q 193 485 153 510 q 315 425 233 460 q 353 410 328 421 l 379 399 q 499 342 457 365 q 571 285 542 319 q 600 204 600 251 q 544 76 600 135 z "},"ß":{"ha":882,"x_min":113,"x_max":813,"o":"m 638 499 q 765 400 718 464 q 813 260 813 336 q 790 165 813 211 q 725 81 768 119 q 616 20 679 40 q 464 0 553 0 l 350 0 l 350 28 l 463 28 q 610 99 564 28 q 657 260 657 169 q 611 409 657 346 q 464 472 565 472 l 350 472 l 350 500 l 424 500 q 527 558 488 500 q 567 693 567 615 q 531 830 567 774 q 428 886 496 886 l 408 886 q 305 830 340 886 q 269 693 269 774 l 269 0 l 113 0 l 113 693 q 135 784 113 742 q 194 856 158 826 q 286 898 229 882 q 408 914 343 914 l 428 914 q 550 898 493 914 q 642 856 607 882 q 701 784 678 826 q 724 693 724 742 q 638 499 724 572 z "},"t":{"ha":557,"x_min":28,"x_max":501,"o":"m 493 35 q 439 26 464 26 q 352 71 379 26 q 325 183 325 115 l 325 624 l 456 624 l 456 653 l 325 653 l 325 914 l 168 914 l 168 653 l 28 653 l 28 624 l 168 624 l 168 247 q 181 136 168 182 q 224 60 194 90 q 313 8 257 24 q 410 -8 369 -8 q 463 -3 435 -8 q 501 7 492 1 l 493 35 z "},"u":{"ha":829,"x_min":108,"x_max":715,"o":"m 176 65 q 125 158 142 104 q 108 289 108 213 l 108 667 l 265 667 l 265 247 q 305 82 265 133 q 394 31 344 31 q 485 69 439 31 q 547 165 532 107 q 556 226 554 194 q 558 306 558 258 l 558 667 l 715 667 l 715 0 l 558 0 l 558 106 q 476 25 532 58 q 360 -8 421 -8 q 258 8 304 -8 q 176 65 213 24 z "},"ú":{"ha":829,"x_min":108,"x_max":715,"o":"m 176 65 q 125 158 142 104 q 108 289 108 213 l 108 667 l 265 667 l 265 247 q 305 82 265 133 q 394 31 344 31 q 485 69 439 31 q 547 165 532 107 q 556 226 554 194 q 558 306 558 258 l 558 667 l 715 667 l 715 0 l 558 0 l 558 106 q 476 25 532 58 q 360 -8 421 -8 q 258 8 304 -8 q 176 65 213 24 m 496 939 l 607 939 l 421 758 l 386 758 l 496 939 z "},"û":{"ha":829,"x_min":108,"x_max":715,"o":"m 586 758 l 551 758 l 464 876 l 376 758 l 238 758 l 413 993 l 586 758 m 176 65 q 125 158 142 104 q 108 289 108 213 l 108 667 l 265 667 l 265 247 q 305 82 265 133 q 394 31 344 31 q 485 69 439 31 q 547 165 532 107 q 556 226 554 194 q 558 306 558 258 l 558 667 l 715 667 l 715 0 l 558 0 l 558 106 q 476 25 532 58 q 360 -8 421 -8 q 258 8 304 -8 q 176 65 213 24 z "},"ü":{"ha":829,"x_min":108,"x_max":715,"o":"m 333 829 q 312 879 333 858 q 260 900 290 900 q 210 879 231 900 q 189 829 189 858 q 210 779 189 800 q 260 758 231 758 q 311 779 289 758 q 333 829 333 800 m 638 829 q 616 879 638 858 q 564 900 594 900 q 514 879 535 900 q 493 829 493 858 q 514 779 493 800 q 564 758 535 758 q 615 779 593 758 q 638 829 638 800 m 176 65 q 125 158 142 104 q 108 289 108 213 l 108 667 l 265 667 l 265 247 q 305 82 265 133 q 394 31 344 31 q 485 69 439 31 q 547 165 532 107 q 556 226 554 194 q 558 306 558 258 l 558 667 l 715 667 l 715 0 l 558 0 l 558 106 q 476 25 532 58 q 360 -8 421 -8 q 258 8 304 -8 q 176 65 213 24 z "},"ù":{"ha":829,"x_min":108,"x_max":715,"o":"m 313 939 l 422 758 l 388 758 l 201 939 l 313 939 m 176 65 q 125 158 142 104 q 108 289 108 213 l 108 667 l 265 667 l 265 247 q 305 82 265 133 q 394 31 344 31 q 485 69 439 31 q 547 165 532 107 q 556 226 554 194 q 558 306 558 258 l 558 667 l 715 667 l 715 0 l 558 0 l 558 106 q 476 25 532 58 q 360 -8 421 -8 q 258 8 304 -8 q 176 65 213 24 z "},"v":{"ha":701,"x_min":33,"x_max":667,"o":"m 636 667 l 667 667 l 351 -8 l 33 667 l 207 667 l 422 208 l 636 667 z "},"w":{"ha":1006,"x_min":33,"x_max":971,"o":"m 971 667 l 694 -8 l 500 382 l 310 -8 l 33 667 l 201 667 l 386 214 l 571 590 l 756 217 l 940 667 l 971 667 z "},"ẃ":{"ha":1006,"x_min":33,"x_max":971,"o":"m 647 939 l 758 939 l 572 758 l 538 758 l 647 939 m 971 667 l 694 -8 l 500 382 l 310 -8 l 33 667 l 201 667 l 386 214 l 571 590 l 756 217 l 940 667 l 971 667 z "},"ŵ":{"ha":1006,"x_min":33,"x_max":971,"o":"m 728 758 l 693 758 l 606 876 l 518 758 l 379 758 l 554 993 l 728 758 m 971 667 l 694 -8 l 500 382 l 310 -8 l 33 667 l 201 667 l 386 214 l 571 590 l 756 217 l 940 667 l 971 667 z "},"ẅ":{"ha":1006,"x_min":33,"x_max":971,"o":"m 475 829 q 453 879 475 858 q 401 900 432 900 q 351 879 372 900 q 331 829 331 858 q 351 779 331 800 q 401 758 372 758 q 453 779 431 758 q 475 829 475 800 m 779 829 q 758 879 779 858 q 706 900 736 900 q 656 879 676 900 q 635 829 635 858 q 656 779 635 800 q 706 758 676 758 q 757 779 735 758 q 779 829 779 800 m 971 667 l 694 -8 l 500 382 l 310 -8 l 33 667 l 201 667 l 386 214 l 571 590 l 756 217 l 940 667 l 971 667 z "},"ẁ":{"ha":1006,"x_min":33,"x_max":971,"o":"m 463 939 l 572 758 l 538 758 l 351 939 l 463 939 m 971 667 l 694 -8 l 500 382 l 310 -8 l 33 667 l 201 667 l 386 214 l 571 590 l 756 217 l 940 667 l 971 667 z "},"x":{"ha":629,"x_min":56,"x_max":567,"o":"m 567 667 l 376 379 l 567 0 l 392 0 l 261 258 l 90 0 l 56 0 l 247 288 l 56 667 l 232 667 l 361 408 l 533 667 l 567 667 z "},"y":{"ha":703,"x_min":35,"x_max":669,"o":"m 669 667 l 351 -15 q 194 -222 289 -156 q 86 -265 140 -260 l 68 -267 l 68 -237 q 178 -199 126 -235 q 325 -4 264 -137 q 339 25 331 11 l 35 667 l 208 667 l 425 210 l 638 667 l 669 667 z "},"ý":{"ha":703,"x_min":35,"x_max":669,"o":"m 444 939 l 556 939 l 369 758 l 335 758 l 444 939 m 669 667 l 351 -15 q 194 -222 289 -156 q 86 -265 140 -260 l 68 -267 l 68 -237 q 178 -199 126 -235 q 325 -4 264 -137 q 339 25 331 11 l 35 667 l 208 667 l 425 210 l 638 667 l 669 667 z "},"ŷ":{"ha":703,"x_min":35,"x_max":669,"o":"m 526 758 l 492 758 l 404 876 l 317 758 l 178 758 l 353 993 l 526 758 m 669 667 l 351 -15 q 194 -222 289 -156 q 86 -265 140 -260 l 68 -267 l 68 -237 q 178 -199 126 -235 q 325 -4 264 -137 q 339 25 331 11 l 35 667 l 208 667 l 425 210 l 638 667 l 669 667 z "},"ÿ":{"ha":703,"x_min":35,"x_max":669,"o":"m 274 829 q 252 879 274 858 q 200 900 231 900 q 150 879 171 900 q 129 829 129 858 q 150 779 129 800 q 200 758 171 758 q 251 779 229 758 q 274 829 274 800 m 578 829 q 556 879 578 858 q 504 900 535 900 q 454 879 475 900 q 433 829 433 858 q 454 779 433 800 q 504 758 475 758 q 556 779 533 758 q 578 829 578 800 m 669 667 l 351 -15 q 194 -222 289 -156 q 86 -265 140 -260 l 68 -267 l 68 -237 q 178 -199 126 -235 q 325 -4 264 -137 q 339 25 331 11 l 35 667 l 208 667 l 425 210 l 638 667 l 669 667 z "},"ỳ":{"ha":703,"x_min":35,"x_max":669,"o":"m 260 939 l 369 758 l 335 758 l 149 939 l 260 939 m 669 667 l 351 -15 q 194 -222 289 -156 q 86 -265 140 -260 l 68 -267 l 68 -237 q 178 -199 126 -235 q 325 -4 264 -137 q 339 25 331 11 l 35 667 l 208 667 l 425 210 l 638 667 l 669 667 z "},"z":{"ha":644,"x_min":67,"x_max":578,"o":"m 578 667 l 257 28 l 578 28 l 578 0 l 67 0 l 389 639 l 67 639 l 67 667 l 578 667 z "},"⁄":{"ha":861,"x_min":83,"x_max":785,"o":"m 83 0 l 604 914 l 785 914 l 264 0 l 83 0 z "},"*":{"ha":514,"x_min":94,"x_max":425,"o":"m 425 793 l 282 793 l 399 710 l 304 640 l 260 776 l 217 640 l 121 710 l 238 793 l 94 793 l 131 904 l 246 819 l 201 956 l 318 956 l 274 819 l 389 904 l 425 793 z "},"\\":{"ha":865,"x_min":81,"x_max":782,"o":"m 782 0 l 601 0 l 81 914 l 261 914 l 782 0 z "},":":{"ha":351,"x_min":97,"x_max":254,"o":"m 176 475 q 231 498 208 475 q 254 554 254 521 q 231 610 254 588 q 176 633 208 633 q 121 610 144 633 q 97 554 97 586 q 121 499 97 522 q 176 475 144 475 m 176 0 q 231 23 208 0 q 254 79 254 46 q 231 135 254 113 q 176 158 208 158 q 121 135 144 158 q 97 79 97 111 q 121 24 97 47 q 176 0 144 0 z "},",":{"ha":354,"x_min":97,"x_max":257,"o":"m 176 157 q 233 135 210 157 q 257 74 257 113 q 168 -94 257 6 l 140 -94 q 162 -53 151 -81 q 175 0 172 -26 q 120 24 143 0 q 97 79 97 47 q 120 134 97 111 q 176 157 143 157 z "},"…":{"ha":986,"x_min":97,"x_max":889,"o":"m 256 79 q 233 134 256 111 q 176 157 210 157 q 120 134 143 157 q 97 79 97 111 q 121 24 97 47 q 176 0 144 0 q 232 24 208 0 q 256 79 256 47 m 572 79 q 549 134 572 111 q 493 157 526 157 q 437 134 460 157 q 414 79 414 111 q 438 24 414 47 q 493 0 461 0 q 549 24 525 0 q 572 79 572 47 m 889 79 q 866 134 889 111 q 810 157 843 157 q 753 134 776 157 q 731 79 731 111 q 754 24 731 47 q 810 0 778 0 q 865 24 842 0 q 889 79 889 47 z "},"!":{"ha":408,"x_min":125,"x_max":283,"o":"m 283 79 q 260 134 283 111 q 204 157 238 157 q 148 134 171 157 q 125 79 125 111 q 149 24 125 47 q 204 0 172 0 q 260 24 236 0 q 283 79 283 47 m 282 914 l 282 736 l 218 263 l 190 263 l 126 736 l 126 914 l 282 914 z "},"¡":{"ha":408,"x_min":125,"x_max":283,"o":"m 283 835 q 260 890 283 867 q 204 914 236 914 q 149 890 172 914 q 125 835 125 867 q 148 780 125 803 q 204 757 171 757 q 260 780 238 757 q 283 835 283 803 m 126 178 l 190 651 l 218 651 l 282 178 l 282 0 l 126 0 l 126 178 z "},"#":{"ha":1051,"x_min":83,"x_max":968,"o":"m 960 578 l 810 578 l 729 346 l 881 346 l 872 319 l 721 319 l 611 0 l 446 0 l 554 319 l 403 319 l 293 0 l 126 0 l 236 319 l 83 319 l 92 346 l 244 346 l 325 578 l 171 578 l 179 604 l 333 604 l 440 914 l 607 914 l 500 604 l 651 604 l 758 914 l 925 914 l 818 604 l 968 604 l 960 578 m 564 346 l 643 578 l 492 578 l 411 346 l 564 346 z "},".":{"ha":353,"x_min":97,"x_max":256,"o":"m 256 78 q 232 133 256 110 q 176 157 208 157 q 121 133 144 157 q 97 78 97 110 q 120 23 97 46 q 176 0 143 0 q 233 23 210 0 q 256 78 256 46 z "},"?":{"ha":676,"x_min":69,"x_max":596,"o":"m 375 79 q 352 134 375 111 q 296 157 329 157 q 240 134 263 157 q 217 79 217 111 q 240 24 217 47 q 296 0 264 0 q 351 24 328 0 q 375 79 375 47 m 325 922 q 466 888 404 922 q 562 796 528 853 q 596 672 596 739 q 573 569 596 613 q 519 500 550 526 q 439 443 488 474 q 396 414 408 424 q 328 351 346 379 q 311 276 311 322 l 311 263 l 283 263 l 283 331 q 289 402 283 369 q 315 464 294 435 q 354 510 332 485 q 383 543 367 522 q 429 618 419 585 q 439 713 439 651 q 398 846 439 803 q 300 889 357 889 q 121 774 186 889 q 92 690 103 743 l 69 690 q 81 737 71 710 q 101 788 90 764 q 180 878 126 835 q 325 922 233 922 z "},"¿":{"ha":676,"x_min":81,"x_max":607,"o":"m 301 835 q 324 780 301 803 q 381 757 347 757 q 437 780 414 757 q 460 835 460 803 q 436 890 460 867 q 381 914 413 914 q 325 890 349 914 q 301 835 301 867 m 351 -8 q 210 26 272 -8 q 115 118 149 61 q 81 242 81 175 q 103 344 81 301 q 158 414 126 388 q 238 471 189 440 q 281 500 268 490 q 348 563 331 535 q 365 638 365 592 l 365 651 l 393 651 l 393 583 q 388 512 393 544 q 361 450 382 479 q 322 404 344 429 q 293 371 310 392 q 247 296 257 329 q 238 201 238 263 q 278 68 238 111 q 376 25 319 25 q 556 140 490 25 q 585 224 574 171 l 607 224 q 597 177 606 204 q 575 126 588 150 q 497 35 550 79 q 351 -8 443 -8 z "},"\"":{"ha":556,"x_min":83,"x_max":465,"o":"m 163 914 q 219 892 196 914 q 243 831 243 869 q 154 663 243 763 l 126 663 q 148 703 138 676 q 161 757 158 731 q 106 781 129 757 q 83 836 83 804 q 106 891 83 868 q 163 914 129 914 m 385 914 q 442 892 418 914 q 465 831 465 869 q 376 663 465 763 l 349 663 q 370 703 360 676 q 383 757 381 731 q 328 781 351 757 q 306 836 306 804 q 328 891 306 868 q 385 914 351 914 z "},"'":{"ha":257,"x_min":63,"x_max":222,"o":"m 142 914 q 199 892 175 914 q 222 831 222 869 q 133 663 222 763 l 106 663 q 127 703 117 676 q 140 757 138 731 q 85 781 108 757 q 63 836 63 804 q 85 891 63 868 q 142 914 108 914 z "},";":{"ha":354,"x_min":97,"x_max":257,"o":"m 176 475 q 231 498 208 475 q 254 554 254 521 q 231 610 254 588 q 176 633 208 633 q 121 610 144 633 q 97 554 97 586 q 121 499 97 522 q 176 475 144 475 m 176 158 q 233 135 208 158 q 257 74 257 113 q 168 -94 257 6 l 140 -94 q 162 -53 151 -81 q 175 0 172 -26 q 120 24 143 0 q 97 79 97 47 q 121 135 97 111 q 176 158 144 158 z "},"/":{"ha":861,"x_min":83,"x_max":785,"o":"m 83 0 l 604 914 l 785 914 l 264 0 l 83 0 z "},"_":{"ha":1044,"x_min":83,"x_max":961,"o":"m 961 0 l 83 0 l 83 76 l 961 76 l 961 0 z "},"{":{"ha":563,"x_min":69,"x_max":479,"o":"m 322 583 q 308 522 322 550 q 277 473 294 493 q 260 456 260 453 q 277 438 260 458 q 308 390 294 418 q 322 328 322 361 l 322 256 q 338 113 322 163 q 380 46 353 64 q 451 28 407 28 l 479 28 l 479 0 l 417 0 q 315 16 361 0 q 233 74 269 32 q 182 167 199 113 q 165 296 165 221 l 165 328 q 144 374 165 346 q 99 426 122 403 q 69 456 76 449 q 99 485 76 463 q 144 538 122 508 q 165 585 165 567 l 165 618 q 182 747 165 693 q 233 840 199 801 q 315 898 269 882 q 417 914 361 914 l 479 914 l 479 886 l 451 886 q 380 868 407 886 q 338 801 353 850 q 322 658 322 751 l 322 583 z "},"}":{"ha":563,"x_min":83,"x_max":493,"o":"m 240 658 q 225 801 240 751 q 183 868 210 850 q 111 886 156 886 l 83 886 l 83 914 l 146 914 q 247 898 201 914 q 329 840 293 882 q 381 747 364 801 q 397 618 397 693 l 397 585 q 419 538 397 567 q 463 485 440 508 q 493 456 486 463 q 463 426 486 449 q 419 374 440 403 q 397 328 397 346 l 397 296 q 381 167 397 221 q 329 74 364 113 q 247 16 293 32 q 146 0 201 0 l 83 0 l 83 28 l 111 28 q 183 46 156 28 q 225 113 210 64 q 240 256 240 163 l 240 328 q 254 390 240 361 q 285 438 268 418 q 303 456 303 458 q 285 473 303 453 q 254 522 268 493 q 240 583 240 550 l 240 658 z "},"[":{"ha":481,"x_min":83,"x_max":397,"o":"m 240 28 l 397 28 l 397 0 l 83 0 l 83 914 l 397 914 l 397 886 l 240 886 l 240 28 z "},"]":{"ha":481,"x_min":83,"x_max":397,"o":"m 240 28 l 240 886 l 83 886 l 83 914 l 397 914 l 397 0 l 83 0 l 83 28 l 240 28 z "},"(":{"ha":481,"x_min":83,"x_max":397,"o":"m 240 256 q 256 113 240 163 q 298 46 271 64 q 369 28 325 28 l 397 28 l 397 0 l 336 0 q 235 16 281 0 q 153 74 189 32 q 101 167 118 114 q 83 296 83 221 l 83 618 q 101 747 83 693 q 153 840 118 800 q 235 898 189 882 q 336 914 281 914 l 397 914 l 397 886 l 369 886 q 298 868 325 886 q 256 801 271 850 q 240 658 240 751 l 240 256 z "},")":{"ha":481,"x_min":83,"x_max":397,"o":"m 240 658 q 225 801 240 751 q 183 868 210 850 q 111 886 156 886 l 83 886 l 83 914 l 144 914 q 246 898 200 914 q 328 840 292 882 q 380 747 363 800 q 397 618 397 693 l 397 296 q 380 167 397 221 q 328 74 363 114 q 246 16 292 32 q 144 0 200 0 l 83 0 l 83 28 l 111 28 q 183 46 156 28 q 225 113 210 64 q 240 256 240 163 l 240 658 z "},"–":{"ha":686,"x_min":97,"x_max":589,"o":"m 97 321 l 589 321 l 589 476 l 97 476 l 97 321 z "},"-":{"ha":706,"x_min":97,"x_max":608,"o":"m 608 321 l 97 321 l 97 397 l 608 397 l 608 321 z "},"«":{"ha":1210,"x_min":83,"x_max":1096,"o":"m 276 385 l 690 160 l 690 129 l 83 458 l 690 789 l 690 610 l 276 385 m 682 383 l 1096 158 l 1096 128 l 489 457 l 1096 788 l 1096 608 l 682 383 z "},"»":{"ha":1210,"x_min":114,"x_max":1126,"o":"m 933 385 l 519 610 l 519 789 l 1126 458 l 519 129 l 519 160 l 933 385 m 528 383 l 114 608 l 114 788 l 721 457 l 114 128 l 114 158 l 528 383 z "},"‹":{"ha":804,"x_min":83,"x_max":690,"o":"m 276 383 l 690 158 l 690 128 l 83 457 l 690 788 l 690 608 l 276 383 z "},"›":{"ha":804,"x_min":114,"x_max":721,"o":"m 528 383 l 114 608 l 114 788 l 721 457 l 114 128 l 114 158 l 528 383 z "},"„":{"ha":354,"x_min":97,"x_max":257,"o":"m 176 157 q 233 135 210 157 q 257 74 257 113 q 168 -94 257 6 l 140 -94 q 162 -53 151 -81 q 175 0 172 -26 q 120 24 143 0 q 97 79 97 47 q 120 134 97 111 q 176 157 143 157 z "},"“":{"ha":556,"x_min":90,"x_max":472,"o":"m 393 914 q 449 891 426 914 q 472 836 472 868 q 449 781 472 804 q 394 757 426 757 q 408 703 397 731 q 429 663 418 676 l 401 663 q 313 831 313 763 q 336 892 313 869 q 393 914 360 914 m 171 914 q 227 891 204 914 q 250 836 250 868 q 227 781 250 804 q 172 757 204 757 q 185 703 175 731 q 207 663 196 676 l 179 663 q 90 831 90 763 q 114 892 90 869 q 171 914 138 914 z "},"”":{"ha":556,"x_min":83,"x_max":465,"o":"m 163 914 q 219 892 196 914 q 243 831 243 869 q 154 663 243 763 l 126 663 q 148 703 138 676 q 161 757 158 731 q 106 781 129 757 q 83 836 83 804 q 106 891 83 868 q 163 914 129 914 m 385 914 q 442 892 418 914 q 465 831 465 869 q 376 663 465 763 l 349 663 q 370 703 360 676 q 383 757 381 731 q 328 781 351 757 q 306 836 306 804 q 328 891 306 868 q 385 914 351 914 z "},"‘":{"ha":333,"x_min":90,"x_max":250,"o":"m 171 914 q 227 891 204 914 q 250 836 250 868 q 227 781 250 804 q 172 757 204 757 q 185 703 175 731 q 207 663 196 676 l 179 663 q 90 831 90 763 q 114 892 90 869 q 171 914 138 914 z "},"’":{"ha":333,"x_min":83,"x_max":243,"o":"m 163 914 q 219 892 196 914 q 243 831 243 869 q 154 663 243 763 l 126 663 q 148 703 138 676 q 161 757 158 731 q 106 781 129 757 q 83 836 83 804 q 106 891 83 868 q 163 914 129 914 z "},"‚":{"ha":354,"x_min":97,"x_max":257,"o":"m 176 157 q 233 135 210 157 q 257 74 257 113 q 168 -94 257 6 l 140 -94 q 162 -53 151 -81 q 175 0 172 -26 q 120 24 143 0 q 97 79 97 47 q 120 134 97 111 q 176 157 143 157 z "},"¢":{"ha":939,"x_min":63,"x_max":876,"o":"m 876 156 q 735 42 817 85 q 560 -7 653 0 l 560 -87 l 492 -87 l 492 -7 q 275 66 374 1 q 119 233 176 131 q 63 457 63 336 q 119 681 63 578 q 275 849 176 785 q 492 922 374 914 l 492 1004 l 560 1004 l 560 922 q 725 878 647 915 q 861 776 803 840 l 843 756 q 525 894 711 894 q 369 843 436 894 q 263 706 300 790 q 226 457 226 622 q 264 208 226 292 q 369 72 301 124 q 525 19 438 19 q 858 176 722 19 l 876 156 z "},"$":{"ha":801,"x_min":83,"x_max":719,"o":"m 719 260 q 685 131 719 189 q 585 35 650 72 q 431 -7 519 -1 l 431 -87 l 363 -87 l 363 -7 q 198 39 275 0 q 85 146 121 78 l 101 168 q 224 58 139 96 q 396 19 308 19 q 545 64 490 19 q 600 189 600 108 q 544 301 600 251 q 368 400 488 350 q 150 523 217 464 q 83 674 83 582 q 163 847 83 782 q 363 921 243 913 l 363 1004 l 431 1004 l 431 921 q 587 870 515 913 q 690 763 658 828 l 672 740 q 558 853 638 813 q 396 894 479 894 q 243 856 299 894 q 188 742 188 817 q 213 667 188 699 q 283 613 239 636 q 414 549 326 589 l 456 529 q 654 408 589 468 q 719 260 719 347 z "},"€":{"ha":771,"x_min":63,"x_max":688,"o":"m 688 19 l 688 -8 l 607 -8 q 376 54 482 -8 q 207 224 269 117 q 144 457 144 331 q 207 690 144 583 q 376 860 269 797 q 607 922 482 922 l 688 922 l 688 894 l 607 894 q 451 843 518 894 q 344 706 382 790 q 307 457 307 622 q 344 208 307 292 q 451 71 382 124 q 607 19 518 19 l 688 19 m 63 540 l 431 540 l 431 513 l 63 513 l 63 540 m 63 401 l 431 401 l 431 374 l 63 374 l 63 401 z "},"£":{"ha":779,"x_min":63,"x_max":696,"o":"m 696 29 l 696 0 l 64 0 l 64 29 q 213 82 168 29 q 231 118 225 96 q 238 164 238 140 l 236 428 l 63 428 l 63 457 l 236 457 l 236 611 q 299 824 236 733 q 539 914 363 914 l 672 914 l 672 885 l 600 885 q 436 817 481 885 q 392 617 392 749 l 392 457 l 518 457 l 518 428 l 392 428 l 392 232 q 363 99 392 151 q 279 29 335 47 l 696 29 z "},"+":{"ha":876,"x_min":104,"x_max":764,"o":"m 507 125 l 363 125 l 363 785 l 507 785 l 507 125 m 104 469 l 764 469 l 764 442 l 104 442 l 104 469 z "},"−":{"ha":686,"x_min":97,"x_max":589,"o":"m 589 442 l 97 442 l 97 518 l 589 518 l 589 442 z "},"×":{"ha":751,"x_min":104,"x_max":647,"o":"m 433 533 l 647 211 l 474 211 l 333 424 l 142 211 l 104 211 l 318 447 l 104 768 l 276 768 l 418 557 l 610 768 l 647 768 l 433 533 z "},"=":{"ha":700,"x_min":104,"x_max":596,"o":"m 596 551 l 104 551 l 104 628 l 596 628 l 596 551 m 596 333 l 104 333 l 104 410 l 596 410 l 596 333 z "},">":{"ha":804,"x_min":114,"x_max":721,"o":"m 528 383 l 114 608 l 114 788 l 721 457 l 114 128 l 114 158 l 528 383 z "},"<":{"ha":804,"x_min":83,"x_max":690,"o":"m 276 383 l 690 158 l 690 128 l 83 457 l 690 788 l 690 608 l 276 383 z "},"%":{"ha":897,"x_min":97,"x_max":800,"o":"m 97 0 l 618 914 l 799 914 l 278 0 l 97 0 m 232 643 q 328 683 289 643 q 368 779 368 724 q 328 874 368 835 q 232 914 288 914 q 137 874 176 914 q 97 779 97 835 q 137 683 97 724 q 232 643 176 643 m 232 886 q 276 860 267 886 q 285 779 285 835 q 276 697 285 724 q 232 671 267 671 q 189 697 197 671 q 181 779 181 722 q 190 860 181 835 q 232 886 199 886 m 664 0 q 760 40 719 0 q 800 135 800 79 q 760 231 800 192 q 664 271 721 271 q 569 231 608 271 q 529 135 529 192 q 569 40 529 79 q 664 0 608 0 m 664 243 q 707 217 699 243 q 715 135 715 192 q 707 53 715 79 q 664 28 699 28 q 621 53 629 28 q 613 135 613 79 q 621 217 613 192 q 664 243 629 243 z "},"@":{"ha":1050,"x_min":63,"x_max":988,"o":"m 525 922 q 756 859 650 922 q 925 689 863 796 q 988 457 988 582 q 963 336 988 382 q 883 259 933 281 q 765 238 832 238 q 663 258 697 238 q 608 315 629 278 q 563 283 594 296 q 499 269 532 269 q 413 295 453 269 q 349 364 372 321 q 325 457 325 407 q 349 551 325 508 q 413 619 372 594 q 499 644 453 644 q 551 636 526 644 q 581 621 576 628 l 581 636 l 700 636 l 700 431 q 713 309 700 353 q 756 265 725 265 q 810 320 797 265 q 824 457 824 375 q 786 706 824 622 q 681 843 749 790 q 525 893 614 893 q 369 843 435 893 q 263 706 300 790 q 226 457 226 622 q 263 208 226 292 q 369 71 300 124 q 525 19 436 19 q 681 71 613 19 q 739 128 715 99 q 813 119 785 119 q 844 122 825 119 q 699 26 782 61 q 525 -8 617 -8 q 294 54 400 -8 q 125 224 188 117 q 63 457 63 331 q 125 690 63 583 q 294 860 188 797 q 525 922 400 922 m 513 297 q 562 311 536 297 q 592 343 588 325 q 581 426 581 382 l 581 583 q 553 609 572 601 q 513 617 533 617 q 467 597 481 617 q 451 548 453 576 q 449 457 449 519 q 451 366 449 394 q 467 317 453 338 q 513 297 481 297 z "},"&":{"ha":1094,"x_min":125,"x_max":1015,"o":"m 743 304 q 925 426 810 392 l 925 396 q 761 283 824 365 l 1015 0 l 803 0 q 697 118 735 78 q 619 17 672 57 q 410 -56 522 -56 q 295 -34 350 -56 q 200 28 240 -12 q 144 113 164 65 q 125 214 125 161 q 158 349 125 283 q 254 465 190 415 q 347 518 289 494 q 301 603 317 561 q 283 696 285 646 q 309 808 281 756 q 389 891 338 860 q 501 922 440 922 q 597 899 554 922 q 665 835 640 875 q 690 749 690 794 q 689 725 690 733 q 642 628 681 668 q 521 551 604 588 l 743 304 m 396 821 q 389 779 389 797 q 419 678 389 728 q 504 569 450 629 q 660 721 646 624 q 663 746 663 738 q 619 853 663 808 q 501 896 576 897 q 435 874 464 894 q 396 821 406 853 m 601 46 q 676 142 658 81 l 410 440 q 363 497 376 479 q 275 444 303 475 q 222 328 222 392 q 251 228 222 276 q 317 144 281 181 q 421 58 369 92 q 526 25 472 25 q 601 46 567 25 z "},"©":{"ha":700,"x_min":90,"x_max":610,"o":"m 350 451 q 481 486 421 451 q 575 581 540 521 q 610 710 610 640 q 575 840 610 781 q 481 935 540 900 q 350 969 421 969 q 219 935 279 969 q 125 840 160 900 q 90 710 90 781 q 125 581 90 640 q 219 486 160 521 q 350 451 279 451 m 350 942 q 466 910 413 942 q 551 826 519 879 q 582 710 582 772 q 551 594 582 647 q 466 510 519 542 q 350 479 413 479 q 234 510 288 479 q 149 594 181 542 q 118 710 118 647 q 149 826 118 772 q 234 910 181 879 q 350 942 288 942 m 350 899 q 426 882 390 899 q 489 836 463 865 l 468 818 q 415 857 446 843 q 350 871 385 871 q 286 831 300 871 q 272 710 272 792 q 286 590 272 629 q 350 550 300 550 q 419 566 386 550 q 474 608 451 582 l 496 592 q 431 541 469 560 q 350 522 393 522 q 257 548 300 522 q 188 617 214 574 q 163 710 163 660 q 188 804 163 761 q 257 873 214 847 q 350 899 300 899 z "},"™":{"ha":875,"x_min":97,"x_max":778,"o":"m 678 914 l 778 914 l 778 538 l 678 538 l 678 840 l 565 571 l 454 828 l 454 538 l 426 538 l 426 914 l 526 914 l 604 735 l 678 914 m 386 914 l 386 886 l 292 886 l 292 538 l 192 538 l 192 886 l 97 886 l 97 914 l 386 914 z "},"°":{"ha":465,"x_min":97,"x_max":368,"o":"m 233 693 q 328 733 289 693 q 368 828 368 772 q 328 924 368 885 q 233 964 289 964 q 138 924 178 964 q 97 828 97 885 q 138 733 97 772 q 233 693 178 693 m 233 936 q 276 910 268 936 q 285 828 285 885 q 276 747 285 772 q 233 721 268 721 q 190 747 199 721 q 182 828 182 772 q 190 910 182 885 q 233 936 199 936 z "},"|":{"ha":407,"x_min":125,"x_max":282,"o":"m 125 914 l 282 914 l 282 0 l 125 0 l 125 914 z "},"^":{"ha":543,"x_min":97,"x_max":446,"o":"m 446 707 l 411 707 l 324 825 l 236 707 l 97 707 l 272 942 l 446 707 z "},"̀":{"ha":0,"x_min":-318,"x_max":-97,"o":"m -207 1158 l -97 978 l -132 978 l -318 1158 l -207 1158 z "},"́":{"ha":0,"x_min":-318,"x_max":-97,"o":"m -208 1158 l -97 1158 l -283 978 l -318 978 l -208 1158 z "},"̃":{"ha":0,"x_min":-465,"x_max":-97,"o":"m -97 1047 q -142 1006 -121 1021 q -196 983 -162 990 q -240 978 -224 978 q -322 1006 -287 978 q -344 1022 -328 1010 q -373 1042 -360 1035 q -399 1049 -386 1049 q -420 1042 -411 1047 q -436 1031 -429 1038 q -446 1021 -443 1024 l -465 1040 q -422 1081 -443 1065 q -367 1106 -400 1097 q -326 1111 -342 1111 q -239 1082 -278 1111 q -217 1064 -232 1076 q -189 1046 -201 1051 q -164 1040 -176 1040 q -142 1046 -151 1040 q -126 1058 -133 1051 q -117 1067 -119 1064 l -97 1047 z "},"Ă":{"ha":951,"x_min":63,"x_max":889,"o":"m 718 0 l 601 265 l 215 265 l 93 0 l 63 0 l 486 922 l 889 0 l 718 0 m 228 293 l 590 293 l 414 697 l 228 293 m 621 1113 q 581 1017 621 1057 q 486 978 542 978 q 390 1017 431 978 q 350 1113 350 1057 l 431 1113 q 441 1033 431 1060 q 486 1006 451 1006 q 531 1033 521 1006 q 542 1113 542 1060 l 621 1113 z "},"Ắ":{"ha":951,"x_min":63,"x_max":889,"o":"m 718 0 l 601 265 l 215 265 l 93 0 l 63 0 l 486 922 l 889 0 l 718 0 m 228 293 l 590 293 l 414 697 l 228 293 m 621 1113 q 581 1017 621 1057 q 486 978 542 978 q 390 1017 431 978 q 350 1113 350 1057 l 431 1113 q 441 1033 431 1060 q 486 1006 451 1006 q 531 1033 521 1006 q 542 1113 542 1060 l 621 1113 m 578 1321 l 689 1321 l 503 1140 l 468 1140 l 578 1321 z "},"Ặ":{"ha":951,"x_min":63,"x_max":889,"o":"m 718 0 l 601 265 l 215 265 l 93 0 l 63 0 l 486 922 l 889 0 l 718 0 m 228 293 l 590 293 l 414 697 l 228 293 m 621 1113 q 581 1017 621 1057 q 486 978 542 978 q 390 1017 431 978 q 350 1113 350 1057 l 431 1113 q 441 1033 431 1060 q 486 1006 451 1006 q 531 1033 521 1006 q 542 1113 542 1060 l 621 1113 m 560 -171 q 538 -121 560 -142 q 486 -100 517 -100 q 436 -121 457 -100 q 415 -171 415 -142 q 436 -221 415 -200 q 486 -242 457 -242 q 538 -221 515 -242 q 560 -171 560 -200 z "},"Ằ":{"ha":951,"x_min":63,"x_max":889,"o":"m 718 0 l 601 265 l 215 265 l 93 0 l 63 0 l 486 922 l 889 0 l 718 0 m 228 293 l 590 293 l 414 697 l 228 293 m 431 1113 q 441 1033 431 1060 q 486 1006 451 1006 q 531 1033 521 1006 q 542 1113 542 1060 l 622 1113 q 582 1017 622 1057 q 486 978 542 978 q 391 1017 431 978 q 351 1113 351 1057 l 431 1113 m 394 1321 l 504 1140 l 469 1140 l 283 1321 l 394 1321 z "},"Ẳ":{"ha":951,"x_min":63,"x_max":889,"o":"m 718 0 l 601 265 l 215 265 l 93 0 l 63 0 l 486 922 l 889 0 l 718 0 m 228 293 l 590 293 l 414 697 l 228 293 m 621 1113 q 581 1017 621 1057 q 486 978 542 978 q 390 1017 431 978 q 350 1113 350 1057 l 431 1113 q 441 1033 431 1060 q 486 1006 451 1006 q 531 1033 521 1006 q 542 1113 542 1060 l 621 1113 m 582 1301 q 594 1261 594 1283 q 510 1140 594 1207 l 483 1175 q 511 1253 511 1215 q 483 1300 511 1290 q 461 1304 471 1304 q 437 1299 447 1304 q 410 1281 426 1293 l 390 1300 q 438 1330 410 1319 q 494 1340 465 1340 q 546 1331 522 1340 q 582 1301 569 1321 z "},"Ẵ":{"ha":951,"x_min":63,"x_max":889,"o":"m 718 0 l 601 265 l 215 265 l 93 0 l 63 0 l 486 922 l 889 0 l 718 0 m 228 293 l 590 293 l 414 697 l 228 293 m 669 1210 q 625 1168 646 1183 q 571 1146 604 1153 q 526 1140 543 1140 q 444 1168 479 1140 q 423 1185 439 1172 q 394 1204 407 1197 q 368 1211 381 1211 q 347 1205 356 1210 q 331 1193 338 1200 q 321 1183 324 1186 l 301 1203 q 345 1244 324 1228 q 400 1268 367 1260 q 440 1274 425 1274 q 528 1244 489 1274 q 550 1226 535 1239 q 578 1208 565 1214 q 603 1203 590 1203 q 624 1208 615 1203 q 640 1220 633 1214 q 650 1229 647 1226 l 669 1210 m 621 1113 q 581 1017 621 1057 q 486 978 542 978 q 390 1017 431 978 q 350 1113 350 1057 l 431 1113 q 441 1033 431 1060 q 486 1006 451 1006 q 531 1033 521 1006 q 542 1113 542 1060 l 621 1113 z "},"Ǎ":{"ha":951,"x_min":63,"x_max":889,"o":"m 718 0 l 601 265 l 215 265 l 93 0 l 63 0 l 486 922 l 889 0 l 718 0 m 228 293 l 590 293 l 414 697 l 228 293 m 313 1213 l 347 1213 l 435 1094 l 522 1213 l 661 1213 l 486 978 l 313 1213 z "},"Ấ":{"ha":951,"x_min":63,"x_max":889,"o":"m 718 0 l 601 265 l 215 265 l 93 0 l 63 0 l 486 922 l 889 0 l 718 0 m 228 293 l 590 293 l 414 697 l 228 293 m 581 1421 l 692 1421 l 506 1240 l 471 1240 l 581 1421 m 313 978 l 486 1213 l 661 978 l 522 978 l 435 1096 l 347 978 l 313 978 z "},"Ậ":{"ha":951,"x_min":63,"x_max":889,"o":"m 718 0 l 601 265 l 215 265 l 93 0 l 63 0 l 486 922 l 889 0 l 718 0 m 228 293 l 590 293 l 414 697 l 228 293 m 313 978 l 486 1213 l 661 978 l 522 978 l 435 1096 l 347 978 l 313 978 m 560 -171 q 538 -121 560 -142 q 486 -100 517 -100 q 436 -121 457 -100 q 415 -171 415 -142 q 436 -221 415 -200 q 486 -242 457 -242 q 538 -221 515 -242 q 560 -171 560 -200 z "},"Ầ":{"ha":951,"x_min":63,"x_max":889,"o":"m 718 0 l 601 265 l 215 265 l 93 0 l 63 0 l 486 922 l 889 0 l 718 0 m 228 293 l 590 293 l 414 697 l 228 293 m 393 1421 l 503 1240 l 468 1240 l 282 1421 l 393 1421 m 313 978 l 486 1213 l 661 978 l 522 978 l 435 1096 l 347 978 l 313 978 z "},"Ẩ":{"ha":951,"x_min":63,"x_max":889,"o":"m 718 0 l 601 265 l 215 265 l 93 0 l 63 0 l 486 922 l 889 0 l 718 0 m 228 293 l 590 293 l 414 697 l 228 293 m 313 978 l 486 1213 l 661 978 l 522 978 l 435 1096 l 347 978 l 313 978 m 639 1365 q 651 1325 651 1347 q 567 1204 651 1271 l 540 1239 q 568 1317 568 1279 q 540 1364 568 1354 q 518 1368 528 1368 q 494 1363 504 1368 q 467 1344 483 1357 l 447 1364 q 494 1394 467 1383 q 551 1404 522 1404 q 603 1394 579 1404 q 639 1365 626 1385 z "},"Ẫ":{"ha":951,"x_min":63,"x_max":889,"o":"m 718 0 l 601 265 l 215 265 l 93 0 l 63 0 l 486 922 l 889 0 l 718 0 m 228 293 l 590 293 l 414 697 l 228 293 m 671 1310 q 626 1268 647 1283 q 572 1246 606 1253 q 528 1240 544 1240 q 446 1268 481 1240 q 424 1285 440 1272 q 395 1304 408 1297 q 369 1311 382 1311 q 348 1305 357 1310 q 332 1293 339 1300 q 322 1283 325 1286 l 303 1303 q 347 1344 325 1328 q 401 1368 368 1360 q 442 1374 426 1374 q 529 1344 490 1374 q 551 1326 536 1339 q 579 1308 567 1314 q 604 1303 592 1303 q 626 1308 617 1303 q 642 1320 635 1314 q 651 1329 649 1326 l 671 1310 m 313 978 l 486 1213 l 661 978 l 522 978 l 435 1096 l 347 978 l 313 978 z "},"Ǟ":{"ha":951,"x_min":63,"x_max":889,"o":"m 718 0 l 601 265 l 215 265 l 93 0 l 63 0 l 486 922 l 889 0 l 718 0 m 228 293 l 590 293 l 414 697 l 228 293 m 308 1147 l 308 1175 l 657 1175 l 657 1147 l 308 1147 m 404 1049 q 383 1099 404 1078 q 331 1119 361 1119 q 281 1099 301 1119 q 260 1049 260 1078 q 281 999 260 1019 q 331 978 301 978 q 382 999 360 978 q 404 1049 404 1019 m 708 1049 q 687 1099 708 1078 q 635 1119 665 1119 q 585 1099 606 1119 q 564 1049 564 1078 q 585 999 564 1019 q 635 978 606 978 q 686 999 664 978 q 708 1049 708 1019 z "},"Ạ":{"ha":951,"x_min":63,"x_max":889,"o":"m 718 0 l 601 265 l 215 265 l 93 0 l 63 0 l 486 922 l 889 0 l 718 0 m 228 293 l 590 293 l 414 697 l 228 293 m 560 -171 q 538 -121 560 -142 q 486 -100 517 -100 q 436 -121 457 -100 q 415 -171 415 -142 q 436 -221 415 -200 q 486 -242 457 -242 q 538 -221 515 -242 q 560 -171 560 -200 z "},"Ả":{"ha":951,"x_min":63,"x_max":889,"o":"m 718 0 l 601 265 l 215 265 l 93 0 l 63 0 l 486 922 l 889 0 l 718 0 m 228 293 l 590 293 l 414 697 l 228 293 m 582 1139 q 594 1099 594 1121 q 510 978 594 1044 l 483 1013 q 511 1090 511 1053 q 483 1138 511 1128 q 461 1142 471 1142 q 437 1136 447 1142 q 410 1118 426 1131 l 390 1138 q 438 1167 410 1157 q 494 1178 465 1178 q 546 1168 522 1178 q 582 1139 569 1158 z "},"Ɑ":{"ha":1064,"x_min":69,"x_max":1078,"o":"m 994 28 l 1078 28 l 1078 0 l 838 0 l 838 914 l 1078 914 l 1078 886 l 994 886 l 994 28 m 688 71 q 793 208 756 124 q 831 457 831 292 q 793 706 831 622 q 688 843 756 790 q 532 893 621 893 q 376 843 442 893 q 270 706 307 790 q 233 457 233 622 q 270 208 233 292 q 376 71 307 124 q 532 19 443 19 q 688 71 619 19 m 532 922 q 763 859 657 922 q 932 689 869 796 q 994 457 994 582 q 932 225 994 332 q 763 55 869 118 q 532 -8 657 -8 q 301 54 407 -8 q 132 224 194 117 q 69 457 69 331 q 132 690 69 583 q 301 860 194 797 q 532 922 407 922 z "},"Ā":{"ha":951,"x_min":63,"x_max":889,"o":"m 718 0 l 601 265 l 215 265 l 93 0 l 63 0 l 486 922 l 889 0 l 718 0 m 228 293 l 590 293 l 414 697 l 228 293 m 308 978 l 308 1006 l 657 1006 l 657 978 l 308 978 z "},"Ą":{"ha":951,"x_min":63,"x_max":889,"o":"m 718 0 l 601 265 l 215 265 l 93 0 l 63 0 l 486 922 l 889 0 l 718 0 m 228 293 l 590 293 l 414 697 l 228 293 m 832 -37 q 785 -94 803 -62 q 768 -154 768 -126 q 796 -201 768 -189 q 819 -207 807 -207 q 843 -201 833 -207 q 869 -182 853 -194 l 889 -201 q 842 -231 869 -221 q 785 -242 814 -242 q 733 -232 757 -242 q 697 -203 710 -222 q 685 -164 685 -185 q 789 -29 685 -101 q 835 0 813 -12 l 889 0 q 868 -11 885 -1 q 832 -37 851 -21 z "},"Ḅ":{"ha":885,"x_min":115,"x_max":815,"o":"m 640 499 q 768 400 721 464 q 815 260 815 336 q 793 165 815 211 q 728 81 771 119 q 619 20 682 40 q 467 0 556 0 l 115 0 l 115 914 l 431 914 q 553 898 496 914 q 644 856 610 882 q 703 784 681 826 q 726 693 726 742 q 640 499 726 572 m 272 886 l 272 500 l 426 500 q 530 558 490 500 q 569 693 569 615 q 534 830 569 774 q 431 886 499 886 l 272 886 m 465 28 q 613 99 567 28 q 660 260 660 169 q 614 409 660 346 q 467 472 568 472 l 272 472 l 272 28 l 465 28 m 524 -171 q 502 -121 524 -142 q 450 -100 481 -100 q 400 -121 421 -100 q 379 -171 379 -142 q 400 -221 379 -200 q 450 -242 421 -242 q 501 -221 479 -242 q 524 -171 524 -200 z "},"Ɓ":{"ha":1033,"x_min":49,"x_max":964,"o":"m 789 499 q 917 400 869 464 q 964 260 964 336 q 942 165 964 211 q 876 81 919 119 q 767 20 831 40 q 615 0 704 0 l 264 0 l 264 886 l 222 886 q 117 840 158 886 q 76 726 76 793 q 124 613 76 660 l 88 613 q 49 726 49 663 q 97 860 49 806 q 222 914 146 914 l 579 914 q 701 898 644 914 q 793 856 758 882 q 852 784 829 826 q 875 693 875 742 q 789 499 875 572 m 421 500 l 575 500 q 678 558 639 500 q 718 693 718 615 q 683 830 718 774 q 579 886 647 886 l 421 886 l 421 500 m 614 28 q 762 99 715 28 q 808 260 808 169 q 763 409 808 346 q 615 472 717 472 l 421 472 l 421 28 l 614 28 z "},"Ƀ":{"ha":899,"x_min":46,"x_max":829,"o":"m 654 499 q 782 400 735 464 q 829 260 829 336 q 807 165 829 211 q 742 81 785 119 q 633 20 696 40 q 481 0 569 0 l 129 0 l 129 914 l 444 914 q 567 898 510 914 q 658 856 624 882 q 717 784 694 826 q 740 693 740 742 q 654 499 740 572 m 286 886 l 286 500 l 440 500 q 544 558 504 500 q 583 693 583 615 q 548 830 583 774 q 444 886 513 886 l 286 886 m 479 28 q 627 99 581 28 q 674 260 674 169 q 628 409 674 346 q 481 472 582 472 l 286 472 l 286 28 l 479 28 m 46 264 l 414 264 l 414 236 l 46 236 l 46 264 z "},"Ć":{"ha":939,"x_min":63,"x_max":876,"o":"m 876 156 q 719 35 811 78 q 525 -8 628 -8 q 294 54 400 -8 q 125 224 188 117 q 63 457 63 331 q 125 690 63 583 q 294 860 188 797 q 525 922 400 922 q 709 884 622 922 q 861 776 796 846 l 843 756 q 525 894 711 894 q 369 843 439 894 q 263 706 300 790 q 226 457 226 622 q 263 208 226 292 q 369 71 300 124 q 525 19 439 19 q 858 176 722 19 l 876 156 m 617 1158 l 728 1158 l 542 978 l 507 978 l 617 1158 z "},"Č":{"ha":939,"x_min":63,"x_max":876,"o":"m 876 156 q 719 35 811 78 q 525 -8 628 -8 q 294 54 400 -8 q 125 224 188 117 q 63 457 63 331 q 125 690 63 583 q 294 860 188 797 q 525 922 400 922 q 709 884 622 922 q 861 776 796 846 l 843 756 q 525 894 711 894 q 369 843 439 894 q 263 706 300 790 q 226 457 226 622 q 263 208 226 292 q 369 71 300 124 q 525 19 439 19 q 858 176 722 19 l 876 156 m 699 1213 l 525 978 l 350 1213 l 489 1213 l 576 1094 l 664 1213 l 699 1213 m 664 1213 l 699 1213 l 525 978 l 350 1213 l 489 1213 l 576 1094 l 664 1213 m 525 1018 l 564 1071 l 476 1188 l 399 1188 l 525 1018 z "},"Ċ":{"ha":939,"x_min":63,"x_max":876,"o":"m 876 156 q 719 35 811 78 q 525 -8 628 -8 q 294 54 400 -8 q 125 224 188 117 q 63 457 63 331 q 125 690 63 583 q 294 860 188 797 q 525 922 400 922 q 709 884 622 922 q 861 776 796 846 l 843 756 q 525 894 711 894 q 369 843 439 894 q 263 706 300 790 q 226 457 226 622 q 263 208 226 292 q 369 71 300 124 q 525 19 439 19 q 858 176 722 19 l 876 156 m 599 1049 q 577 1099 599 1078 q 525 1119 556 1119 q 475 1099 496 1119 q 454 1049 454 1078 q 475 999 454 1019 q 525 978 496 978 q 576 999 554 978 q 599 1049 599 1019 m 525 1119 q 577 1099 556 1119 q 599 1049 599 1078 q 576 999 599 1019 q 525 978 554 978 q 475 999 496 978 q 454 1049 454 1019 q 475 1099 454 1078 q 525 1119 496 1119 m 525 1001 q 560 1016 544 1001 q 575 1049 575 1031 q 560 1082 575 1068 q 525 1096 546 1096 q 493 1082 507 1096 q 479 1049 479 1068 q 493 1015 479 1029 q 525 1001 507 1001 z "},"Ƈ":{"ha":939,"x_min":63,"x_max":1015,"o":"m 525 -8 q 294 54 400 -8 q 125 224 188 117 q 63 457 63 331 q 125 690 63 583 q 294 860 188 797 q 525 922 400 922 q 749 864 644 922 l 749 933 q 803 1058 749 1010 q 936 1107 857 1107 q 1015 1090 978 1107 l 1015 1060 q 936 1079 979 1079 q 823 1038 869 1079 q 776 933 776 997 l 776 847 l 776 814 q 525 894 668 894 q 369 843 439 894 q 263 706 300 790 q 226 457 226 622 q 263 208 226 292 q 369 71 300 124 q 525 19 439 19 q 858 176 722 19 l 876 156 q 719 35 811 78 q 525 -8 628 -8 z "},"Ɖ":{"ha":933,"x_min":46,"x_max":857,"o":"m 394 914 q 626 853 521 914 q 794 687 732 792 q 857 457 857 582 q 794 227 857 332 q 626 61 732 122 q 394 0 521 0 l 129 0 l 129 914 l 394 914 m 550 79 q 626 156 596 114 q 674 270 656 197 q 693 457 693 343 q 674 644 693 571 q 626 758 656 717 q 550 835 596 800 q 394 886 482 886 l 286 886 l 286 28 l 394 28 q 550 79 482 28 m 46 471 l 414 471 l 414 443 l 46 443 l 46 471 z "},"Ď":{"ha":919,"x_min":115,"x_max":843,"o":"m 381 914 q 613 853 507 914 q 781 687 718 792 q 843 457 843 582 q 781 227 843 332 q 613 61 718 122 q 381 0 507 0 l 115 0 l 115 914 l 381 914 m 536 79 q 613 156 582 114 q 662 270 643 197 q 681 457 681 343 q 662 644 681 571 q 613 758 643 717 q 536 835 582 800 q 381 886 471 886 l 272 886 l 272 28 l 381 28 q 536 79 471 28 m 639 1213 l 465 978 l 290 1213 l 429 1213 l 517 1094 l 604 1213 l 639 1213 m 604 1213 l 639 1213 l 465 978 l 290 1213 l 429 1213 l 517 1094 l 604 1213 m 465 1018 l 504 1071 l 417 1188 l 339 1188 l 465 1018 z "},"Ḓ":{"ha":919,"x_min":115,"x_max":843,"o":"m 381 914 q 613 853 507 914 q 781 687 718 792 q 843 457 843 582 q 781 227 843 332 q 613 61 718 122 q 381 0 507 0 l 115 0 l 115 914 l 381 914 m 536 79 q 613 156 582 114 q 662 270 643 197 q 681 457 681 343 q 662 644 681 571 q 613 758 643 717 q 536 835 582 800 q 381 886 471 886 l 272 886 l 272 28 l 381 28 q 536 79 471 28 m 639 -335 l 604 -335 l 517 -217 l 429 -335 l 290 -335 l 465 -100 l 639 -335 z "},"Đ":{"ha":933,"x_min":46,"x_max":857,"o":"m 394 914 q 626 853 521 914 q 794 687 732 792 q 857 457 857 582 q 794 227 857 332 q 626 61 732 122 q 394 0 521 0 l 129 0 l 129 914 l 394 914 m 550 79 q 626 156 596 114 q 674 270 656 197 q 693 457 693 343 q 674 644 693 571 q 626 758 656 717 q 550 835 596 800 q 394 886 482 886 l 286 886 l 286 28 l 394 28 q 550 79 482 28 m 46 471 l 414 471 l 414 443 l 46 443 l 46 471 z "},"Ḍ":{"ha":919,"x_min":115,"x_max":843,"o":"m 381 914 q 613 853 507 914 q 781 687 718 792 q 843 457 843 582 q 781 227 843 332 q 613 61 718 122 q 381 0 507 0 l 115 0 l 115 914 l 381 914 m 536 79 q 613 156 582 114 q 662 270 643 197 q 681 457 681 343 q 662 644 681 571 q 613 758 643 717 q 536 835 582 800 q 381 886 471 886 l 272 886 l 272 28 l 381 28 q 536 79 471 28 m 538 -171 q 516 -121 538 -142 q 464 -100 494 -100 q 414 -121 435 -100 q 393 -171 393 -142 q 414 -221 393 -200 q 464 -242 435 -242 q 515 -221 493 -242 q 538 -171 538 -200 z "},"Ɗ":{"ha":1061,"x_min":42,"x_max":985,"o":"m 522 914 q 754 853 649 914 q 922 687 860 792 q 985 457 985 582 q 922 227 985 332 q 754 61 860 122 q 522 0 649 0 l 257 0 l 257 886 l 217 886 q 110 840 151 886 q 69 726 69 793 q 117 613 69 660 l 81 613 q 42 726 42 663 q 91 860 42 806 q 217 914 140 914 l 522 914 m 678 79 q 754 156 724 114 q 803 270 785 197 q 822 457 822 343 q 803 644 822 571 q 754 758 785 717 q 678 835 724 800 q 522 886 613 886 l 414 886 l 414 28 l 522 28 q 678 79 613 28 z "},"Ḏ":{"ha":919,"x_min":115,"x_max":843,"o":"m 381 914 q 613 853 507 914 q 781 687 718 792 q 843 457 843 582 q 781 227 843 332 q 613 61 718 122 q 381 0 507 0 l 115 0 l 115 914 l 381 914 m 536 79 q 613 156 582 114 q 662 270 643 197 q 681 457 681 343 q 662 644 681 571 q 613 758 643 717 q 536 835 582 800 q 381 886 471 886 l 272 886 l 272 28 l 381 28 q 536 79 471 28 m 292 -128 l 292 -100 l 640 -100 l 640 -128 l 292 -128 z "},"Ě":{"ha":775,"x_min":114,"x_max":692,"o":"m 692 886 l 271 886 l 271 471 l 588 471 l 588 443 l 271 443 l 271 28 l 692 28 l 692 0 l 114 0 l 114 914 l 692 914 l 692 886 m 576 1211 l 403 976 l 228 1211 l 367 1211 l 454 1093 l 542 1211 l 576 1211 z "},"Ȩ":{"ha":775,"x_min":114,"x_max":692,"o":"m 692 886 l 271 886 l 271 471 l 588 471 l 588 443 l 271 443 l 271 28 l 692 28 l 692 0 l 114 0 l 114 914 l 692 914 l 692 886 m 417 11 l 417 -44 q 495 -71 465 -47 q 525 -139 525 -94 q 492 -210 525 -187 q 403 -233 458 -233 q 313 -210 347 -233 q 279 -139 279 -187 l 364 -139 q 374 -192 364 -178 q 403 -206 383 -206 q 432 -192 422 -206 q 442 -139 442 -178 q 432 -87 442 -101 q 406 -72 422 -72 l 389 -72 l 389 11 l 417 11 z "},"Ế":{"ha":775,"x_min":114,"x_max":692,"o":"m 692 886 l 271 886 l 271 471 l 588 471 l 588 443 l 271 443 l 271 28 l 692 28 l 692 0 l 114 0 l 114 914 l 692 914 l 692 886 m 560 978 l 525 978 l 438 1096 l 350 978 l 211 978 l 386 1213 l 560 978 m 479 1421 l 590 1421 l 404 1240 l 369 1240 l 479 1421 z "},"Ệ":{"ha":775,"x_min":114,"x_max":692,"o":"m 692 886 l 271 886 l 271 471 l 588 471 l 588 443 l 271 443 l 271 28 l 692 28 l 692 0 l 114 0 l 114 914 l 692 914 l 692 886 m 560 978 l 525 978 l 438 1096 l 350 978 l 211 978 l 386 1213 l 560 978 m 460 -171 q 438 -121 460 -142 q 386 -100 417 -100 q 336 -121 357 -100 q 315 -171 315 -142 q 336 -221 315 -200 q 386 -242 357 -242 q 438 -221 415 -242 q 460 -171 460 -200 z "},"Ề":{"ha":775,"x_min":114,"x_max":692,"o":"m 692 886 l 271 886 l 271 471 l 588 471 l 588 443 l 271 443 l 271 28 l 692 28 l 692 0 l 114 0 l 114 914 l 692 914 l 692 886 m 261 1421 l 371 1240 l 336 1240 l 150 1421 l 261 1421 m 529 978 l 494 978 l 407 1096 l 319 978 l 181 978 l 356 1213 l 529 978 z "},"Ể":{"ha":775,"x_min":114,"x_max":692,"o":"m 692 886 l 271 886 l 271 471 l 588 471 l 588 443 l 271 443 l 271 28 l 692 28 l 692 0 l 114 0 l 114 914 l 692 914 l 692 886 m 560 978 l 525 978 l 438 1096 l 350 978 l 211 978 l 386 1213 l 560 978 m 538 1365 q 550 1325 550 1347 q 465 1204 550 1271 l 439 1239 q 467 1317 467 1279 q 439 1364 467 1354 q 417 1368 426 1368 q 392 1363 403 1368 q 365 1344 382 1357 l 346 1364 q 393 1394 365 1383 q 450 1404 421 1404 q 501 1394 478 1404 q 538 1365 525 1385 z "},"Ễ":{"ha":775,"x_min":114,"x_max":692,"o":"m 692 886 l 271 886 l 271 471 l 588 471 l 588 443 l 271 443 l 271 28 l 692 28 l 692 0 l 114 0 l 114 914 l 692 914 l 692 886 m 550 978 l 515 978 l 428 1096 l 340 978 l 201 978 l 376 1213 l 550 978 m 560 1310 q 515 1268 536 1283 q 461 1246 494 1253 q 417 1240 433 1240 q 335 1268 369 1240 q 313 1285 329 1272 q 284 1304 297 1297 q 258 1311 271 1311 q 237 1305 246 1310 q 221 1293 228 1300 q 211 1283 214 1286 l 192 1303 q 235 1344 214 1328 q 290 1368 257 1360 q 331 1374 315 1374 q 418 1344 379 1374 q 440 1326 425 1339 q 468 1308 456 1314 q 493 1303 481 1303 q 515 1308 506 1303 q 531 1320 524 1314 q 540 1329 538 1326 l 560 1310 z "},"Ė":{"ha":775,"x_min":114,"x_max":692,"o":"m 692 886 l 271 886 l 271 471 l 588 471 l 588 443 l 271 443 l 271 28 l 692 28 l 692 0 l 114 0 l 114 914 l 692 914 l 692 886 m 460 1047 q 438 1097 460 1076 q 386 1118 417 1118 q 336 1097 357 1118 q 315 1047 315 1076 q 336 997 315 1018 q 386 976 357 976 q 438 997 415 976 q 460 1047 460 1018 z "},"Ẹ":{"ha":775,"x_min":114,"x_max":692,"o":"m 692 886 l 271 886 l 271 471 l 588 471 l 588 443 l 271 443 l 271 28 l 692 28 l 692 0 l 114 0 l 114 914 l 692 914 l 692 886 m 475 -171 q 453 -121 475 -142 q 401 -100 432 -100 q 351 -121 372 -100 q 331 -171 331 -142 q 351 -221 331 -200 q 401 -242 372 -242 q 453 -221 431 -242 q 475 -171 475 -200 z "},"Ẻ":{"ha":775,"x_min":114,"x_max":692,"o":"m 692 886 l 271 886 l 271 471 l 588 471 l 588 443 l 271 443 l 271 28 l 692 28 l 692 0 l 114 0 l 114 914 l 692 914 l 692 886 m 475 1138 q 488 1097 488 1119 q 403 976 488 1043 l 376 1011 q 404 1089 404 1051 q 376 1136 404 1126 q 354 1140 364 1140 q 330 1135 340 1140 q 303 1117 319 1129 l 283 1136 q 331 1166 303 1156 q 388 1176 358 1176 q 439 1167 415 1176 q 475 1138 463 1157 z "},"Ē":{"ha":775,"x_min":114,"x_max":692,"o":"m 692 886 l 271 886 l 271 471 l 588 471 l 588 443 l 271 443 l 271 28 l 692 28 l 692 0 l 114 0 l 114 914 l 692 914 l 692 886 m 213 978 l 213 1006 l 561 1006 l 561 978 l 213 978 z "},"Ę":{"ha":775,"x_min":114,"x_max":692,"o":"m 692 886 l 271 886 l 271 471 l 588 471 l 588 443 l 271 443 l 271 28 l 692 28 l 692 0 l 114 0 l 114 914 l 692 914 l 692 886 m 635 -37 q 588 -94 606 -62 q 571 -154 571 -126 q 599 -201 571 -189 q 622 -207 610 -207 q 646 -201 636 -207 q 672 -182 656 -194 l 692 -201 q 644 -231 672 -221 q 588 -242 617 -242 q 536 -232 560 -242 q 500 -203 513 -222 q 488 -164 488 -185 q 592 -29 488 -101 q 638 0 614 -12 l 692 0 q 671 -11 688 -1 q 635 -37 654 -21 z "},"Ɛ":{"ha":681,"x_min":81,"x_max":608,"o":"m 557 139 q 586 224 578 182 l 608 224 q 598 177 607 204 q 576 126 589 150 q 498 35 551 79 q 353 -8 444 -8 q 215 25 276 -8 q 117 116 153 58 q 81 244 81 174 q 131 394 81 329 q 263 483 181 458 q 131 569 182 508 q 81 699 81 631 q 117 806 81 754 q 215 890 153 858 q 353 922 278 922 q 393 919 376 922 q 510 869 467 908 q 576 788 554 829 q 598 737 589 764 q 608 690 607 710 l 586 690 q 557 775 578 732 q 483 858 532 822 q 353 894 433 894 q 269 853 301 894 q 238 699 238 811 q 269 540 238 583 q 353 497 301 497 l 433 497 l 433 469 l 353 469 q 267 420 296 469 q 238 257 238 371 l 238 232 q 266 66 238 113 q 353 19 294 19 q 483 56 433 19 q 557 139 532 92 z "},"Ǝ":{"ha":775,"x_min":83,"x_max":661,"o":"m 83 886 l 83 914 l 661 914 l 661 0 l 83 0 l 83 28 l 504 28 l 504 443 l 188 443 l 188 471 l 504 471 l 504 886 l 83 886 z "},"Ʃ":{"ha":624,"x_min":72,"x_max":540,"o":"m 540 885 l 264 885 l 428 457 l 264 29 l 540 29 l 540 0 l 72 0 l 249 457 l 72 914 l 540 914 l 540 885 z "},"Ẽ":{"ha":775,"x_min":114,"x_max":692,"o":"m 692 886 l 271 886 l 271 471 l 588 471 l 588 443 l 271 443 l 271 28 l 692 28 l 692 0 l 114 0 l 114 914 l 692 914 l 692 886 m 571 1047 q 526 1006 547 1021 q 472 983 506 990 q 428 978 444 978 q 346 1006 381 978 q 324 1022 340 1010 q 295 1042 308 1035 q 269 1049 282 1049 q 248 1042 257 1047 q 232 1031 239 1038 q 222 1021 225 1024 l 203 1040 q 247 1081 225 1065 q 301 1106 268 1097 q 342 1111 326 1111 q 429 1082 390 1111 q 451 1064 436 1076 q 479 1046 467 1051 q 504 1040 492 1040 q 526 1046 517 1040 q 542 1058 535 1051 q 551 1067 549 1064 l 571 1047 z "},"Ʒ":{"ha":682,"x_min":78,"x_max":604,"o":"m 418 526 q 503 472 467 500 q 572 393 540 444 q 604 268 604 342 q 570 126 604 189 q 475 27 536 63 q 333 -8 414 -8 q 188 35 242 -8 q 110 126 135 79 q 89 177 99 150 q 78 224 79 204 l 100 224 q 129 140 111 171 q 192 65 156 96 q 297 35 228 35 q 403 92 361 35 q 444 268 444 150 q 406 426 444 353 q 349 484 386 465 q 279 510 311 503 q 238 522 247 518 l 376 885 l 100 885 l 100 914 l 568 914 l 418 526 z "},"Ƒ":{"ha":767,"x_min":-53,"x_max":690,"o":"m 269 886 l 269 471 l 586 471 l 586 443 l 269 443 l 269 0 q 219 -128 269 -79 q 82 -178 168 -178 q -53 -122 3 -178 l -33 -103 q 53 -144 11 -144 q 69 -143 64 -144 q 106 -108 100 -136 q 113 0 113 -79 l 113 914 l 690 914 l 690 886 l 269 886 z "},"Ɣ":{"ha":892,"x_min":63,"x_max":829,"o":"m 576 315 q 622 210 611 253 q 633 122 633 167 q 599 28 633 64 q 517 -8 565 -8 q 435 26 467 -8 q 403 110 403 60 q 416 183 403 149 q 442 240 429 217 q 460 271 456 263 l 63 914 l 233 914 l 532 394 l 797 914 l 829 914 l 550 361 l 576 315 m 517 25 q 542 82 542 39 q 497 211 542 132 l 479 239 q 451 186 465 219 q 438 114 438 153 q 458 47 438 72 q 503 22 479 22 q 517 25 513 22 z "},"Ğ":{"ha":985,"x_min":69,"x_max":871,"o":"m 667 1113 q 627 1017 667 1057 q 532 978 588 978 q 436 1017 476 978 q 396 1113 396 1057 l 476 1113 q 487 1033 476 1060 q 532 1006 497 1006 q 577 1033 567 1006 q 588 1113 588 1060 l 667 1113 m 871 442 l 871 0 l 532 0 q 299 60 406 0 q 131 226 193 121 q 69 457 69 331 q 132 690 69 583 q 301 860 194 797 q 532 922 407 922 q 716 884 629 922 q 868 776 803 846 l 850 756 q 532 894 718 894 q 376 843 443 894 q 270 706 307 790 q 233 457 233 622 q 252 270 233 343 q 301 156 271 197 q 376 79 331 114 q 532 28 446 28 l 714 28 l 714 414 l 497 414 l 497 442 l 871 442 z "},"Ǧ":{"ha":985,"x_min":69,"x_max":871,"o":"m 871 442 l 871 0 l 532 0 q 299 60 406 0 q 131 226 193 121 q 69 457 69 331 q 132 690 69 583 q 301 860 194 797 q 532 922 407 922 q 716 884 629 922 q 868 776 803 846 l 850 756 q 532 894 718 894 q 376 843 443 894 q 270 706 307 790 q 233 457 233 622 q 252 270 233 343 q 301 156 271 197 q 376 79 331 114 q 532 28 446 28 l 714 28 l 714 414 l 497 414 l 497 442 l 871 442 m 706 1213 l 532 978 l 357 1213 l 496 1213 l 583 1094 l 671 1213 l 706 1213 z "},"Ģ":{"ha":985,"x_min":69,"x_max":871,"o":"m 871 442 l 871 0 l 532 0 q 299 60 406 0 q 131 226 193 121 q 69 457 69 331 q 132 690 69 583 q 301 860 194 797 q 532 922 407 922 q 716 884 629 922 q 868 776 803 846 l 850 756 q 532 894 718 894 q 376 843 443 894 q 270 706 307 790 q 233 457 233 622 q 252 270 233 343 q 301 156 271 197 q 376 79 331 114 q 532 28 446 28 l 714 28 l 714 414 l 497 414 l 497 442 l 871 442 m 478 -100 l 589 -100 l 403 -281 l 368 -281 l 478 -100 z "},"Ġ":{"ha":985,"x_min":69,"x_max":871,"o":"m 606 1049 q 584 1099 606 1078 q 532 1119 563 1119 q 482 1099 503 1119 q 461 1049 461 1078 q 482 999 461 1019 q 532 978 503 978 q 583 999 561 978 q 606 1049 606 1019 m 871 442 l 871 0 l 532 0 q 299 60 406 0 q 131 226 193 121 q 69 457 69 331 q 132 690 69 583 q 301 860 194 797 q 532 922 407 922 q 716 884 629 922 q 868 776 803 846 l 850 756 q 532 894 718 894 q 376 843 443 894 q 270 706 307 790 q 233 457 233 622 q 252 270 233 343 q 301 156 271 197 q 376 79 331 114 q 532 28 446 28 l 714 28 l 714 414 l 497 414 l 497 442 l 871 442 z "},"Ɠ":{"ha":985,"x_min":69,"x_max":1022,"o":"m 69 457 q 132 690 69 583 q 301 860 194 797 q 532 922 407 922 q 756 864 651 922 l 756 938 q 810 1063 756 1014 q 943 1111 864 1111 q 1022 1094 985 1111 l 1022 1064 q 943 1083 986 1083 q 830 1042 876 1083 q 783 938 783 1001 l 783 847 l 783 814 q 532 894 675 894 q 376 843 443 894 q 270 706 307 790 q 233 457 233 622 q 252 270 233 343 q 301 156 271 197 q 376 79 331 114 q 532 28 446 28 l 714 28 l 714 414 l 497 414 l 497 442 l 871 442 l 871 0 l 532 0 q 299 60 406 0 q 131 226 193 121 q 69 457 69 331 z "},"Ħ":{"ha":929,"x_min":31,"x_max":899,"o":"m 658 914 l 815 914 l 815 0 l 658 0 l 658 442 l 271 442 l 271 0 l 114 0 l 114 914 l 271 914 l 271 469 l 658 469 l 658 914 m 31 706 l 899 706 l 899 678 l 31 678 l 31 706 z "},"Ḥ":{"ha":929,"x_min":114,"x_max":815,"o":"m 658 914 l 815 914 l 815 0 l 658 0 l 658 442 l 271 442 l 271 0 l 114 0 l 114 914 l 271 914 l 271 469 l 658 469 l 658 914 m 508 -171 q 487 -121 508 -142 q 435 -100 465 -100 q 385 -121 406 -100 q 364 -171 364 -142 q 385 -221 364 -200 q 435 -242 406 -242 q 486 -221 464 -242 q 508 -171 508 -200 z "},"Ɦ":{"ha":1078,"x_min":49,"x_max":964,"o":"m 964 914 l 964 0 l 807 0 l 807 442 l 419 442 l 419 0 l 263 0 l 263 886 l 222 886 q 117 840 158 886 q 76 726 76 793 q 124 613 76 660 l 86 613 q 49 726 49 660 q 97 860 49 806 q 222 914 146 914 l 419 914 l 419 469 l 807 469 l 807 914 l 964 914 z "},"Ɥ":{"ha":929,"x_min":114,"x_max":815,"o":"m 658 469 l 658 914 l 815 914 l 815 0 l 658 0 l 658 442 l 114 442 l 114 914 l 271 914 l 271 469 l 658 469 z "},"Ǐ":{"ha":407,"x_min":29,"x_max":378,"o":"m 125 0 l 282 0 l 282 914 l 125 914 l 125 0 m 378 1213 l 204 978 l 29 1213 l 168 1213 l 256 1094 l 343 1213 l 378 1213 z "},"Ḯ":{"ha":407,"x_min":-21,"x_max":428,"o":"m 125 0 l 282 0 l 282 914 l 125 914 l 125 0 m 124 1049 q 102 1099 124 1078 q 50 1119 81 1119 q 0 1099 21 1119 q -21 1049 -21 1078 q 0 999 -21 1019 q 50 978 21 978 q 101 999 79 978 q 124 1049 124 1019 m 428 1049 q 406 1099 428 1078 q 354 1119 385 1119 q 304 1099 325 1119 q 283 1049 283 1078 q 304 999 283 1019 q 354 978 325 978 q 406 999 383 978 q 428 1049 428 1019 m 296 1328 l 407 1328 l 221 1147 l 186 1147 l 296 1328 z "},"İ":{"ha":408,"x_min":125,"x_max":283,"o":"m 125 0 l 282 0 l 282 914 l 125 914 l 125 0 m 125 1056 q 148 1001 125 1024 q 204 978 171 978 q 260 1001 238 978 q 283 1056 283 1024 q 260 1111 283 1088 q 204 1135 236 1135 q 149 1111 172 1135 q 125 1056 125 1088 z "},"Ị":{"ha":408,"x_min":125,"x_max":282,"o":"m 125 0 l 282 0 l 282 914 l 125 914 l 125 0 m 275 -171 q 253 -121 275 -142 q 201 -100 232 -100 q 151 -121 172 -100 q 131 -171 131 -142 q 151 -221 131 -200 q 201 -242 172 -242 q 253 -221 231 -242 q 275 -171 275 -200 z "},"Ỉ":{"ha":408,"x_min":85,"x_max":289,"o":"m 276 1139 q 289 1099 289 1121 q 204 978 289 1044 l 178 1013 q 206 1090 206 1053 q 178 1138 206 1128 q 156 1142 165 1142 q 131 1136 142 1142 q 104 1118 121 1131 l 85 1138 q 132 1167 104 1157 q 189 1178 160 1178 q 240 1168 217 1178 q 276 1139 264 1158 m 128 0 l 285 0 l 285 914 l 128 914 l 128 0 z "},"Ī":{"ha":406,"x_min":29,"x_max":376,"o":"m 125 0 l 282 0 l 282 914 l 125 914 l 125 0 m 29 978 l 29 1006 l 376 1006 l 376 978 l 29 978 z "},"Į":{"ha":407,"x_min":78,"x_max":282,"o":"m 125 0 l 282 0 l 282 914 l 125 914 l 125 0 m 225 -37 q 178 -94 196 -62 q 161 -154 161 -126 q 189 -201 161 -189 q 213 -207 200 -207 q 236 -201 226 -207 q 263 -182 246 -194 l 282 -201 q 235 -231 263 -221 q 178 -242 207 -242 q 126 -232 150 -242 q 90 -203 103 -222 q 78 -164 78 -185 q 182 -29 78 -101 q 228 0 206 -12 l 282 0 q 261 -11 278 -1 q 225 -37 244 -21 z "},"Ɩ":{"ha":414,"x_min":125,"x_max":428,"o":"m 325 33 q 342 32 331 32 q 428 75 382 32 l 428 38 q 314 0 378 0 q 176 49 228 0 q 125 178 125 99 l 125 914 l 282 914 l 282 178 q 288 69 282 99 q 325 33 294 40 z "},"Ɨ":{"ha":407,"x_min":42,"x_max":365,"o":"m 365 471 l 365 443 l 42 443 l 42 471 l 365 471 m 125 0 l 125 914 l 282 914 l 282 0 l 125 0 z "},"Ĩ":{"ha":406,"x_min":18,"x_max":386,"o":"m 386 1047 q 342 1006 363 1021 q 288 983 321 990 q 243 978 260 978 q 161 1006 196 978 q 140 1022 156 1010 q 110 1042 124 1035 q 85 1049 97 1049 q 63 1042 72 1047 q 47 1031 54 1038 q 38 1021 40 1024 l 18 1040 q 62 1081 40 1065 q 117 1106 83 1097 q 157 1111 142 1111 q 244 1082 206 1111 q 267 1064 251 1076 q 294 1046 282 1051 q 319 1040 307 1040 q 341 1046 332 1040 q 357 1058 350 1051 q 367 1067 364 1064 l 386 1047 m 125 0 l 282 0 l 282 914 l 125 914 l 125 0 z "},"Ķ":{"ha":882,"x_min":113,"x_max":813,"o":"m 468 468 l 813 0 l 617 0 l 374 332 l 140 0 l 113 0 l 113 914 l 269 914 l 269 232 l 749 914 l 782 914 l 468 468 m 400 -100 l 511 -100 l 325 -281 l 290 -281 l 400 -100 z "},"Ƙ":{"ha":882,"x_min":113,"x_max":1085,"o":"m 833 1035 q 895 1090 858 1071 q 972 1108 932 1108 q 1085 1071 1032 1108 l 1085 1036 l 1072 1047 q 972 1081 1026 1081 q 907 1065 938 1081 q 856 1019 876 1050 l 468 468 l 813 0 l 617 0 l 374 332 l 140 0 l 113 0 l 113 914 l 269 914 l 269 232 l 833 1035 z "},"Ĺ":{"ha":789,"x_min":114,"x_max":692,"o":"m 271 28 l 692 28 l 692 0 l 114 0 l 114 914 l 271 914 l 271 28 m 494 1158 l 606 1158 l 419 978 l 385 978 l 494 1158 z "},"Ľ":{"ha":789,"x_min":114,"x_max":692,"o":"m 271 28 l 692 28 l 692 0 l 114 0 l 114 914 l 271 914 l 271 28 m 576 1213 l 403 978 l 228 1213 l 367 1213 l 454 1094 l 542 1213 l 576 1213 z "},"Ḽ":{"ha":789,"x_min":114,"x_max":692,"o":"m 271 28 l 692 28 l 692 0 l 114 0 l 114 914 l 271 914 l 271 28 m 575 -335 l 540 -335 l 453 -217 l 365 -335 l 226 -335 l 401 -100 l 575 -335 z "},"Ļ":{"ha":789,"x_min":114,"x_max":692,"o":"m 271 28 l 692 28 l 692 0 l 114 0 l 114 914 l 271 914 l 271 28 m 347 -100 l 458 -100 l 272 -281 l 238 -281 l 347 -100 z "},"Ḷ":{"ha":789,"x_min":114,"x_max":692,"o":"m 271 28 l 692 28 l 692 0 l 114 0 l 114 914 l 271 914 l 271 28 m 475 -171 q 453 -121 475 -142 q 401 -100 432 -100 q 351 -121 372 -100 q 331 -171 331 -142 q 351 -221 331 -200 q 401 -242 372 -242 q 453 -221 431 -242 q 475 -171 475 -200 z "},"Ł":{"ha":789,"x_min":31,"x_max":692,"o":"m 271 28 l 692 28 l 692 0 l 114 0 l 114 914 l 271 914 l 271 28 m 399 624 l 399 586 l 31 256 l 31 293 l 399 624 z "},"Ḿ":{"ha":1079,"x_min":114,"x_max":967,"o":"m 810 914 l 967 914 l 967 0 l 810 0 l 810 843 l 482 78 l 142 851 l 142 0 l 114 0 l 114 914 l 285 914 l 551 310 l 810 914 m 632 1157 l 743 1157 l 557 976 l 522 976 l 632 1157 z "},"Ń":{"ha":925,"x_min":113,"x_max":813,"o":"m 813 914 l 813 0 l 785 0 l 140 685 l 140 0 l 113 0 l 113 914 l 140 914 l 785 229 l 785 914 l 813 914 m 554 1158 l 665 1158 l 479 978 l 444 978 l 554 1158 z "},"Ň":{"ha":925,"x_min":113,"x_max":813,"o":"m 813 914 l 813 0 l 785 0 l 140 685 l 140 0 l 113 0 l 113 914 l 140 914 l 785 229 l 785 914 l 813 914 m 635 1213 l 461 978 l 286 1213 l 425 1213 l 513 1094 l 600 1213 l 635 1213 z "},"Ṋ":{"ha":925,"x_min":113,"x_max":813,"o":"m 813 914 l 813 0 l 785 0 l 140 685 l 140 0 l 113 0 l 113 914 l 140 914 l 785 229 l 785 914 l 813 914 m 635 -335 l 600 -335 l 513 -217 l 425 -335 l 286 -335 l 461 -100 l 635 -335 z "},"Ņ":{"ha":925,"x_min":113,"x_max":813,"o":"m 813 914 l 813 0 l 785 0 l 140 685 l 140 0 l 113 0 l 113 914 l 140 914 l 785 229 l 785 914 l 813 914 m 407 -100 l 518 -100 l 332 -281 l 297 -281 l 407 -100 z "},"Ṅ":{"ha":925,"x_min":113,"x_max":813,"o":"m 813 914 l 813 0 l 785 0 l 140 685 l 140 0 l 113 0 l 113 914 l 140 914 l 785 229 l 785 914 l 813 914 m 535 1049 q 513 1099 535 1078 q 461 1119 492 1119 q 411 1099 432 1119 q 390 1049 390 1078 q 411 999 390 1019 q 461 978 432 978 q 513 999 490 978 q 535 1049 535 1019 z "},"Ṇ":{"ha":925,"x_min":113,"x_max":813,"o":"m 813 914 l 813 0 l 785 0 l 140 685 l 140 0 l 113 0 l 113 914 l 140 914 l 785 229 l 785 914 l 813 914 m 535 -171 q 513 -121 535 -142 q 461 -100 492 -100 q 411 -121 432 -100 q 390 -171 390 -142 q 411 -221 390 -200 q 461 -242 432 -242 q 513 -221 490 -242 q 535 -171 535 -200 z "},"Ŋ":{"ha":925,"x_min":113,"x_max":813,"o":"m 813 914 l 813 0 q 758 -125 813 -76 q 625 -174 704 -174 q 511 -136 561 -174 l 511 -99 q 625 -146 558 -146 q 739 -105 693 -146 q 785 0 785 -64 l 140 685 l 140 0 l 113 0 l 113 914 l 140 914 l 785 229 l 785 914 l 813 914 z "},"Ɲ":{"ha":925,"x_min":-162,"x_max":813,"o":"m 813 914 l 813 0 l 785 0 l 140 685 l 140 0 q 86 -125 140 -76 q -47 -174 32 -174 q -162 -136 -112 -174 l -162 -99 q -47 -146 -112 -146 q 66 -105 19 -146 q 113 0 113 -64 l 113 914 l 140 914 l 785 229 l 785 914 l 813 914 z "},"Ǒ":{"ha":1064,"x_min":69,"x_max":994,"o":"m 532 922 q 763 859 657 922 q 932 689 869 796 q 994 457 994 582 q 932 225 994 332 q 763 55 869 118 q 532 -8 657 -8 q 301 54 407 -8 q 132 224 194 117 q 69 457 69 331 q 132 690 69 583 q 301 860 194 797 q 532 922 407 922 m 688 71 q 793 208 756 124 q 831 457 831 292 q 793 706 831 622 q 688 843 756 790 q 532 893 621 893 q 376 843 442 893 q 270 706 307 790 q 233 457 233 622 q 270 208 233 292 q 376 71 307 124 q 532 19 443 19 q 688 71 619 19 m 706 1213 l 532 978 l 357 1213 l 496 1213 l 583 1094 l 671 1213 l 706 1213 z "},"Ố":{"ha":1064,"x_min":69,"x_max":994,"o":"m 532 922 q 763 859 657 922 q 932 689 869 796 q 994 457 994 582 q 932 225 994 332 q 763 55 869 118 q 532 -8 657 -8 q 301 54 407 -8 q 132 224 194 117 q 69 457 69 331 q 132 690 69 583 q 301 860 194 797 q 532 922 407 922 m 688 71 q 793 208 756 124 q 831 457 831 292 q 793 706 831 622 q 688 843 756 790 q 532 893 621 893 q 376 843 442 893 q 270 706 307 790 q 233 457 233 622 q 270 208 233 292 q 376 71 307 124 q 532 19 443 19 q 688 71 619 19 m 706 978 l 671 978 l 583 1096 l 496 978 l 357 978 l 532 1213 l 706 978 m 625 1421 l 736 1421 l 550 1240 l 515 1240 l 625 1421 z "},"Ộ":{"ha":1064,"x_min":69,"x_max":994,"o":"m 532 922 q 763 859 657 922 q 932 689 869 796 q 994 457 994 582 q 932 225 994 332 q 763 55 869 118 q 532 -8 657 -8 q 301 54 407 -8 q 132 224 194 117 q 69 457 69 331 q 132 690 69 583 q 301 860 194 797 q 532 922 407 922 m 688 71 q 793 208 756 124 q 831 457 831 292 q 793 706 831 622 q 688 843 756 790 q 532 893 621 893 q 376 843 442 893 q 270 706 307 790 q 233 457 233 622 q 270 208 233 292 q 376 71 307 124 q 532 19 443 19 q 688 71 619 19 m 606 -171 q 584 -121 606 -142 q 532 -100 563 -100 q 482 -121 503 -100 q 461 -171 461 -142 q 482 -221 461 -200 q 532 -242 503 -242 q 583 -221 561 -242 q 606 -171 606 -200 m 706 978 l 671 978 l 583 1096 l 496 978 l 357 978 l 532 1213 l 706 978 z "},"Ồ":{"ha":1064,"x_min":69,"x_max":994,"o":"m 532 922 q 763 859 657 922 q 932 689 869 796 q 994 457 994 582 q 932 225 994 332 q 763 55 869 118 q 532 -8 657 -8 q 301 54 407 -8 q 132 224 194 117 q 69 457 69 331 q 132 690 69 583 q 301 860 194 797 q 532 922 407 922 m 688 71 q 793 208 756 124 q 831 457 831 292 q 793 706 831 622 q 688 843 756 790 q 532 893 621 893 q 376 843 442 893 q 270 706 307 790 q 233 457 233 622 q 270 208 233 292 q 376 71 307 124 q 532 19 443 19 q 688 71 619 19 m 438 1421 l 547 1240 l 513 1240 l 326 1421 l 438 1421 m 706 978 l 671 978 l 583 1096 l 496 978 l 357 978 l 532 1213 l 706 978 z "},"Ổ":{"ha":1064,"x_min":69,"x_max":994,"o":"m 532 922 q 763 859 657 922 q 932 689 869 796 q 994 457 994 582 q 932 225 994 332 q 763 55 869 118 q 532 -8 657 -8 q 301 54 407 -8 q 132 224 194 117 q 69 457 69 331 q 132 690 69 583 q 301 860 194 797 q 532 922 407 922 m 688 71 q 793 208 756 124 q 831 457 831 292 q 793 706 831 622 q 688 843 756 790 q 532 893 621 893 q 376 843 442 893 q 270 706 307 790 q 233 457 233 622 q 270 208 233 292 q 376 71 307 124 q 532 19 443 19 q 688 71 619 19 m 706 978 l 671 978 l 583 1096 l 496 978 l 357 978 l 532 1213 l 706 978 m 683 1365 q 696 1325 696 1347 q 611 1204 696 1271 l 585 1239 q 613 1317 613 1279 q 585 1364 613 1354 q 563 1368 572 1368 q 538 1363 549 1368 q 511 1344 528 1357 l 492 1364 q 539 1394 511 1383 q 596 1404 567 1404 q 647 1394 624 1404 q 683 1365 671 1385 z "},"Ỗ":{"ha":1064,"x_min":69,"x_max":994,"o":"m 532 922 q 763 859 657 922 q 932 689 869 796 q 994 457 994 582 q 932 225 994 332 q 763 55 869 118 q 532 -8 657 -8 q 301 54 407 -8 q 132 224 194 117 q 69 457 69 331 q 132 690 69 583 q 301 860 194 797 q 532 922 407 922 m 688 71 q 793 208 756 124 q 831 457 831 292 q 793 706 831 622 q 688 843 756 790 q 532 893 621 893 q 376 843 442 893 q 270 706 307 790 q 233 457 233 622 q 270 208 233 292 q 376 71 307 124 q 532 19 443 19 q 688 71 619 19 m 706 978 l 671 978 l 583 1096 l 496 978 l 357 978 l 532 1213 l 706 978 m 715 1310 q 671 1268 692 1283 q 617 1246 650 1253 q 572 1240 589 1240 q 490 1268 525 1240 q 469 1285 485 1272 q 440 1304 453 1297 q 414 1311 426 1311 q 392 1305 401 1310 q 376 1293 383 1300 q 367 1283 369 1286 l 347 1303 q 391 1344 369 1328 q 446 1368 413 1360 q 486 1374 471 1374 q 574 1344 535 1374 q 596 1326 581 1339 q 624 1308 611 1314 q 649 1303 636 1303 q 670 1308 661 1303 q 686 1320 679 1314 q 696 1329 693 1326 l 715 1310 z "},"Ȫ":{"ha":1064,"x_min":69,"x_max":994,"o":"m 532 922 q 763 859 657 922 q 932 689 869 796 q 994 457 994 582 q 932 225 994 332 q 763 55 869 118 q 532 -8 657 -8 q 301 54 407 -8 q 132 224 194 117 q 69 457 69 331 q 132 690 69 583 q 301 860 194 797 q 532 922 407 922 m 688 71 q 793 208 756 124 q 831 457 831 292 q 793 706 831 622 q 688 843 756 790 q 532 893 621 893 q 376 843 442 893 q 270 706 307 790 q 233 457 233 622 q 270 208 233 292 q 376 71 307 124 q 532 19 443 19 q 688 71 619 19 m 357 1147 l 357 1175 l 706 1175 l 706 1147 l 357 1147 m 453 1049 q 431 1099 453 1078 q 379 1119 410 1119 q 329 1099 350 1119 q 308 1049 308 1078 q 329 999 308 1019 q 379 978 350 978 q 431 999 408 978 q 453 1049 453 1019 m 757 1049 q 735 1099 757 1078 q 683 1119 714 1119 q 633 1099 654 1119 q 613 1049 613 1078 q 633 999 613 1019 q 683 978 654 978 q 735 999 713 978 q 757 1049 757 1019 z "},"Ọ":{"ha":1064,"x_min":69,"x_max":994,"o":"m 532 922 q 763 859 657 922 q 932 689 869 796 q 994 457 994 582 q 932 225 994 332 q 763 55 869 118 q 532 -8 657 -8 q 301 54 407 -8 q 132 224 194 117 q 69 457 69 331 q 132 690 69 583 q 301 860 194 797 q 532 922 407 922 m 688 71 q 793 208 756 124 q 831 457 831 292 q 793 706 831 622 q 688 843 756 790 q 532 893 621 893 q 376 843 442 893 q 270 706 307 790 q 233 457 233 622 q 270 208 233 292 q 376 71 307 124 q 532 19 443 19 q 688 71 619 19 m 606 -171 q 584 -121 606 -142 q 532 -100 563 -100 q 482 -121 503 -100 q 461 -171 461 -142 q 482 -221 461 -200 q 532 -242 503 -242 q 583 -221 561 -242 q 606 -171 606 -200 z "},"Ỏ":{"ha":1064,"x_min":69,"x_max":994,"o":"m 532 922 q 763 859 657 922 q 932 689 869 796 q 994 457 994 582 q 932 225 994 332 q 763 55 869 118 q 532 -8 657 -8 q 301 54 407 -8 q 132 224 194 117 q 69 457 69 331 q 132 690 69 583 q 301 860 194 797 q 532 922 407 922 m 688 71 q 793 208 756 124 q 831 457 831 292 q 793 706 831 622 q 688 843 756 790 q 532 893 621 893 q 376 843 442 893 q 270 706 307 790 q 233 457 233 622 q 270 208 233 292 q 376 71 307 124 q 532 19 443 19 q 688 71 619 19 m 604 1139 q 617 1099 617 1121 q 532 978 617 1044 l 506 1013 q 533 1090 533 1053 q 506 1138 533 1128 q 483 1142 493 1142 q 459 1136 469 1142 q 432 1118 449 1131 l 413 1138 q 460 1167 432 1157 q 517 1178 488 1178 q 568 1168 544 1178 q 604 1139 592 1158 z "},"Ơ":{"ha":1064,"x_min":69,"x_max":1026,"o":"m 797 838 q 942 672 889 772 q 994 457 994 572 q 932 225 994 332 q 763 55 869 118 q 532 -8 657 -8 q 301 54 407 -8 q 132 224 194 117 q 69 457 69 331 q 132 690 69 583 q 301 860 194 797 q 532 922 407 922 q 753 865 650 922 l 853 865 q 958 912 917 865 q 999 1025 999 958 q 994 1064 999 1046 l 1022 1064 q 1026 1025 1026 1046 q 978 892 1026 946 q 853 838 929 838 l 797 838 m 688 71 q 793 208 756 124 q 831 457 831 292 q 793 706 831 622 q 688 843 756 790 q 532 893 621 893 q 376 843 442 893 q 270 706 307 790 q 233 457 233 622 q 270 208 233 292 q 376 71 307 124 q 532 19 443 19 q 688 71 619 19 z "},"Ớ":{"ha":1064,"x_min":69,"x_max":1026,"o":"m 797 838 q 942 672 889 772 q 994 457 994 572 q 932 225 994 332 q 763 55 869 118 q 532 -8 657 -8 q 301 54 407 -8 q 132 224 194 117 q 69 457 69 331 q 132 690 69 583 q 301 860 194 797 q 532 922 407 922 q 753 865 650 922 l 853 865 q 958 912 917 865 q 999 1025 999 958 q 994 1064 999 1046 l 1022 1064 q 1026 1025 1026 1046 q 978 892 1026 946 q 853 838 929 838 l 797 838 m 688 71 q 793 208 756 124 q 831 457 831 292 q 793 706 831 622 q 688 843 756 790 q 532 893 621 893 q 376 843 442 893 q 270 706 307 790 q 233 457 233 622 q 270 208 233 292 q 376 71 307 124 q 532 19 443 19 q 688 71 619 19 m 624 1158 l 735 1158 l 549 978 l 514 978 l 624 1158 z "},"Ợ":{"ha":1064,"x_min":69,"x_max":1026,"o":"m 606 -171 q 584 -121 606 -142 q 532 -100 563 -100 q 482 -121 503 -100 q 461 -171 461 -142 q 482 -221 461 -200 q 532 -242 503 -242 q 583 -221 561 -242 q 606 -171 606 -200 m 797 838 q 942 672 889 772 q 994 457 994 572 q 932 225 994 332 q 763 55 869 118 q 532 -8 657 -8 q 301 54 407 -8 q 132 224 194 117 q 69 457 69 331 q 132 690 69 583 q 301 860 194 797 q 532 922 407 922 q 753 865 650 922 l 853 865 q 958 912 917 865 q 999 1025 999 958 q 994 1064 999 1046 l 1022 1064 q 1026 1025 1026 1046 q 978 892 1026 946 q 853 838 929 838 l 797 838 m 688 71 q 793 208 756 124 q 831 457 831 292 q 793 706 831 622 q 688 843 756 790 q 532 893 621 893 q 376 843 442 893 q 270 706 307 790 q 233 457 233 622 q 270 208 233 292 q 376 71 307 124 q 532 19 443 19 q 688 71 619 19 z "},"Ờ":{"ha":1064,"x_min":69,"x_max":1026,"o":"m 439 1158 l 549 978 l 514 978 l 328 1158 l 439 1158 m 797 838 q 942 672 889 772 q 994 457 994 572 q 932 225 994 332 q 763 55 869 118 q 532 -8 657 -8 q 301 54 407 -8 q 132 224 194 117 q 69 457 69 331 q 132 690 69 583 q 301 860 194 797 q 532 922 407 922 q 753 865 650 922 l 853 865 q 958 912 917 865 q 999 1025 999 958 q 994 1064 999 1046 l 1022 1064 q 1026 1025 1026 1046 q 978 892 1026 946 q 853 838 929 838 l 797 838 m 688 71 q 793 208 756 124 q 831 457 831 292 q 793 706 831 622 q 688 843 756 790 q 532 893 621 893 q 376 843 442 893 q 270 706 307 790 q 233 457 233 622 q 270 208 233 292 q 376 71 307 124 q 532 19 443 19 q 688 71 619 19 z "},"Ở":{"ha":1064,"x_min":69,"x_max":1026,"o":"m 797 838 q 942 672 889 772 q 994 457 994 572 q 932 225 994 332 q 763 55 869 118 q 532 -8 657 -8 q 301 54 407 -8 q 132 224 194 117 q 69 457 69 331 q 132 690 69 583 q 301 860 194 797 q 532 922 407 922 q 753 865 650 922 l 853 865 q 958 912 917 865 q 999 1025 999 958 q 994 1064 999 1046 l 1022 1064 q 1026 1025 1026 1046 q 978 892 1026 946 q 853 838 929 838 l 797 838 m 688 71 q 793 208 756 124 q 831 457 831 292 q 793 706 831 622 q 688 843 756 790 q 532 893 621 893 q 376 843 442 893 q 270 706 307 790 q 233 457 233 622 q 270 208 233 292 q 376 71 307 124 q 532 19 443 19 q 688 71 619 19 m 604 1139 q 617 1099 617 1121 q 532 978 617 1044 l 506 1013 q 533 1090 533 1053 q 506 1138 533 1128 q 483 1142 493 1142 q 459 1136 469 1142 q 432 1118 449 1131 l 413 1138 q 460 1167 432 1157 q 517 1178 488 1178 q 568 1168 544 1178 q 604 1139 592 1158 z "},"Ỡ":{"ha":1064,"x_min":69,"x_max":1026,"o":"m 797 838 q 942 672 889 772 q 994 457 994 572 q 932 225 994 332 q 763 55 869 118 q 532 -8 657 -8 q 301 54 407 -8 q 132 224 194 117 q 69 457 69 331 q 132 690 69 583 q 301 860 194 797 q 532 922 407 922 q 753 865 650 922 l 853 865 q 958 912 917 865 q 999 1025 999 958 q 994 1064 999 1046 l 1022 1064 q 1026 1025 1026 1046 q 978 892 1026 946 q 853 838 929 838 l 797 838 m 688 71 q 793 208 756 124 q 831 457 831 292 q 793 706 831 622 q 688 843 756 790 q 532 893 621 893 q 376 843 442 893 q 270 706 307 790 q 233 457 233 622 q 270 208 233 292 q 376 71 307 124 q 532 19 443 19 q 688 71 619 19 m 717 1047 q 672 1006 693 1021 q 618 983 651 990 q 574 978 590 978 q 492 1006 526 978 q 470 1022 486 1010 q 441 1042 454 1035 q 415 1049 428 1049 q 394 1042 403 1047 q 378 1031 385 1038 q 368 1021 371 1024 l 349 1040 q 392 1081 371 1065 q 447 1106 414 1097 q 488 1111 472 1111 q 575 1082 536 1111 q 597 1064 582 1076 q 625 1046 613 1051 q 650 1040 638 1040 q 672 1046 663 1040 q 688 1058 681 1051 q 697 1067 694 1064 l 717 1047 z "},"Ő":{"ha":1064,"x_min":69,"x_max":994,"o":"m 532 922 q 763 859 657 922 q 932 689 869 796 q 994 457 994 582 q 932 225 994 332 q 763 55 869 118 q 532 -8 657 -8 q 301 54 407 -8 q 132 224 194 117 q 69 457 69 331 q 132 690 69 583 q 301 860 194 797 q 532 922 407 922 m 688 71 q 793 208 756 124 q 831 457 831 292 q 793 706 831 622 q 688 843 756 790 q 532 893 621 893 q 376 843 442 893 q 270 706 307 790 q 233 457 233 622 q 270 208 233 292 q 376 71 307 124 q 532 19 443 19 q 688 71 619 19 m 538 1158 l 649 1158 l 463 978 l 428 978 l 538 1158 m 711 1158 l 822 1158 l 636 978 l 601 978 l 711 1158 z "},"Ō":{"ha":1064,"x_min":69,"x_max":994,"o":"m 532 922 q 763 859 657 922 q 932 689 869 796 q 994 457 994 582 q 932 225 994 332 q 763 55 869 118 q 532 -8 657 -8 q 301 54 407 -8 q 132 224 194 117 q 69 457 69 331 q 132 690 69 583 q 301 860 194 797 q 532 922 407 922 m 688 71 q 793 208 756 124 q 831 457 831 292 q 793 706 831 622 q 688 843 756 790 q 532 893 621 893 q 376 843 442 893 q 270 706 307 790 q 233 457 233 622 q 270 208 233 292 q 376 71 307 124 q 532 19 443 19 q 688 71 619 19 m 357 978 l 357 1006 l 706 1006 l 706 978 l 357 978 z "},"Ṓ":{"ha":1064,"x_min":69,"x_max":994,"o":"m 532 922 q 763 859 657 922 q 932 689 869 796 q 994 457 994 582 q 932 225 994 332 q 763 55 869 118 q 532 -8 657 -8 q 301 54 407 -8 q 132 224 194 117 q 69 457 69 331 q 132 690 69 583 q 301 860 194 797 q 532 922 407 922 m 688 71 q 793 208 756 124 q 831 457 831 292 q 793 706 831 622 q 688 843 756 790 q 532 893 621 893 q 376 843 442 893 q 270 706 307 790 q 233 457 233 622 q 270 208 233 292 q 376 71 307 124 q 532 19 443 19 q 688 71 619 19 m 357 978 l 357 1006 l 706 1006 l 706 978 l 357 978 m 624 1214 l 735 1214 l 549 1033 l 514 1033 l 624 1214 z "},"Ṑ":{"ha":1064,"x_min":69,"x_max":994,"o":"m 532 922 q 763 859 657 922 q 932 689 869 796 q 994 457 994 582 q 932 225 994 332 q 763 55 869 118 q 532 -8 657 -8 q 301 54 407 -8 q 132 224 194 117 q 69 457 69 331 q 132 690 69 583 q 301 860 194 797 q 532 922 407 922 m 688 71 q 793 208 756 124 q 831 457 831 292 q 793 706 831 622 q 688 843 756 790 q 532 893 621 893 q 376 843 442 893 q 270 706 307 790 q 233 457 233 622 q 270 208 233 292 q 376 71 307 124 q 532 19 443 19 q 688 71 619 19 m 706 978 l 357 978 l 357 1006 l 706 1006 l 706 978 m 439 1214 l 549 1033 l 514 1033 l 328 1214 l 439 1214 z "},"Ɔ":{"ha":939,"x_min":63,"x_max":876,"o":"m 81 176 q 414 19 217 19 q 569 71 500 19 q 676 208 639 124 q 713 457 713 292 q 676 706 713 622 q 569 843 639 790 q 414 894 500 894 q 96 756 228 894 l 78 776 q 230 884 143 846 q 414 922 317 922 q 645 860 539 922 q 814 690 751 797 q 876 457 876 583 q 814 224 876 331 q 645 54 751 117 q 414 -8 539 -8 q 219 35 311 -8 q 63 156 128 78 l 81 176 z "},"Ǿ":{"ha":1064,"x_min":69,"x_max":994,"o":"m 532 922 q 765 855 658 918 q 933 687 871 792 q 994 457 994 582 q 932 225 994 332 q 763 55 869 118 q 532 -8 657 -8 q 299 58 406 -4 q 131 226 193 121 q 69 457 69 331 q 132 690 69 583 q 301 860 194 797 q 532 922 407 922 m 688 71 q 793 208 756 124 q 831 457 831 292 q 793 706 831 622 q 688 843 756 790 q 532 893 621 893 q 376 843 442 893 q 270 706 307 790 q 233 457 233 622 q 270 208 233 292 q 376 71 307 124 q 532 19 443 19 q 688 71 619 19 m 796 914 l 994 914 l 268 0 l 69 0 l 796 914 m 624 1158 l 735 1158 l 549 978 l 514 978 l 624 1158 z "},"Ṍ":{"ha":1064,"x_min":69,"x_max":994,"o":"m 717 1047 q 672 1006 693 1021 q 618 983 651 990 q 574 978 590 978 q 492 1006 526 978 q 470 1022 486 1010 q 441 1042 454 1035 q 415 1049 428 1049 q 394 1042 403 1047 q 378 1031 385 1038 q 368 1021 371 1024 l 349 1040 q 392 1081 371 1065 q 447 1106 414 1097 q 488 1111 472 1111 q 575 1082 536 1111 q 597 1064 582 1076 q 625 1046 613 1051 q 650 1040 638 1040 q 672 1046 663 1040 q 688 1058 681 1051 q 697 1067 694 1064 l 717 1047 m 532 922 q 763 859 657 922 q 932 689 869 796 q 994 457 994 582 q 932 225 994 332 q 763 55 869 118 q 532 -8 657 -8 q 301 54 407 -8 q 132 224 194 117 q 69 457 69 331 q 132 690 69 583 q 301 860 194 797 q 532 922 407 922 m 688 71 q 793 208 756 124 q 831 457 831 292 q 793 706 831 622 q 688 843 756 790 q 532 893 621 893 q 376 843 442 893 q 270 706 307 790 q 233 457 233 622 q 270 208 233 292 q 376 71 307 124 q 532 19 443 19 q 688 71 619 19 m 624 1319 l 735 1319 l 549 1139 l 514 1139 l 624 1319 z "},"Ƥ":{"ha":1040,"x_min":49,"x_max":964,"o":"m 664 914 q 831 877 763 914 q 931 783 899 840 q 964 665 964 725 q 931 548 964 606 q 831 453 899 490 q 664 415 764 415 l 421 415 l 421 0 l 264 0 l 264 886 l 222 886 q 117 840 158 886 q 76 726 76 793 q 124 613 76 660 l 86 613 q 49 726 49 660 q 97 860 49 806 q 222 914 146 914 l 664 914 m 618 443 q 709 472 665 443 q 780 553 753 501 q 807 667 807 604 q 780 778 807 728 q 709 858 753 829 q 618 886 665 886 l 421 886 l 421 443 l 618 443 z "},"Þ":{"ha":889,"x_min":113,"x_max":813,"o":"m 513 733 q 679 697 611 733 q 780 602 747 660 q 813 485 813 544 q 780 367 813 425 q 680 272 747 310 q 513 235 613 235 l 269 235 l 269 0 l 113 0 l 113 914 l 269 914 l 269 733 l 513 733 m 467 263 q 558 292 514 263 q 628 372 601 321 q 656 486 656 424 q 628 598 656 547 q 558 677 601 649 q 467 706 514 706 l 269 706 l 269 263 l 467 263 z "},"Ŕ":{"ha":914,"x_min":113,"x_max":817,"o":"m 817 0 l 656 0 l 615 196 q 547 354 594 296 q 433 415 499 413 l 269 415 l 269 0 l 113 0 l 113 914 l 513 914 q 679 877 611 914 q 780 783 747 840 q 813 665 813 725 q 758 516 813 586 q 597 424 703 446 q 708 353 663 403 q 764 251 754 303 l 817 0 m 269 443 l 467 443 q 558 472 514 443 q 628 553 601 501 q 656 667 656 604 q 628 778 656 728 q 558 858 601 829 q 467 886 514 886 l 269 886 l 269 443 m 554 1158 l 665 1158 l 479 978 l 444 978 l 554 1158 z "},"Ř":{"ha":914,"x_min":113,"x_max":817,"o":"m 817 0 l 656 0 l 615 196 q 547 354 594 296 q 433 415 499 413 l 269 415 l 269 0 l 113 0 l 113 914 l 513 914 q 679 877 611 914 q 780 783 747 840 q 813 665 813 725 q 758 516 813 586 q 597 424 703 446 q 708 353 663 403 q 764 251 754 303 l 817 0 m 269 443 l 467 443 q 558 472 514 443 q 628 553 601 501 q 656 667 656 604 q 628 778 656 728 q 558 858 601 829 q 467 886 514 886 l 269 886 l 269 443 m 636 1213 l 463 978 l 288 1213 l 426 1213 l 514 1094 l 601 1213 l 636 1213 z "},"Ŗ":{"ha":914,"x_min":113,"x_max":817,"o":"m 817 0 l 656 0 l 615 196 q 547 354 594 296 q 433 415 499 413 l 269 415 l 269 0 l 113 0 l 113 914 l 513 914 q 679 877 611 914 q 780 783 747 840 q 813 665 813 725 q 758 516 813 586 q 597 424 703 446 q 708 353 663 403 q 764 251 754 303 l 817 0 m 269 443 l 467 443 q 558 472 514 443 q 628 553 601 501 q 656 667 656 604 q 628 778 656 728 q 558 858 601 829 q 467 886 514 886 l 269 886 l 269 443 m 406 -100 l 517 -100 l 331 -281 l 296 -281 l 406 -100 z "},"Ɍ":{"ha":914,"x_min":29,"x_max":817,"o":"m 817 0 l 656 0 l 615 196 q 547 354 594 296 q 433 415 499 413 l 269 415 l 269 0 l 113 0 l 113 415 l 29 415 l 29 443 l 113 443 l 113 914 l 513 914 q 679 877 611 914 q 780 783 747 840 q 813 665 813 725 q 758 516 813 586 q 597 424 703 446 q 708 353 663 403 q 764 251 754 303 l 817 0 m 467 443 q 558 472 514 443 q 628 553 601 501 q 656 667 656 604 q 628 778 656 728 q 558 858 601 829 q 467 886 514 886 l 269 886 l 269 443 l 467 443 z "},"Ɽ":{"ha":914,"x_min":113,"x_max":817,"o":"m 817 0 l 656 0 l 615 196 q 547 354 594 296 q 433 415 499 413 l 269 415 l 269 4 q 276 -104 269 -75 q 313 -140 282 -133 q 329 -142 318 -142 q 415 -99 368 -142 l 415 -136 q 300 -174 365 -174 q 163 -124 214 -174 q 113 4 113 -75 l 113 914 l 513 914 q 679 877 611 914 q 780 783 747 840 q 813 665 813 725 q 758 516 813 586 q 597 424 703 446 q 708 353 663 403 q 764 251 754 303 l 817 0 m 467 443 q 558 472 514 443 q 628 553 601 501 q 656 667 656 604 q 628 778 656 728 q 558 858 601 829 q 467 886 514 886 l 269 886 l 269 443 l 467 443 z "},"Ś":{"ha":801,"x_min":83,"x_max":719,"o":"m 396 -8 q 567 27 494 -8 q 680 124 640 63 q 719 260 719 185 q 655 408 719 349 q 456 529 590 468 l 414 549 q 283 613 326 589 q 213 667 239 636 q 188 742 188 699 q 243 856 188 817 q 396 894 299 894 q 558 853 479 894 q 672 740 638 813 l 690 763 q 571 879 654 836 q 393 922 488 922 q 239 892 310 922 q 126 805 168 863 q 83 667 83 747 q 115 558 83 603 q 205 478 146 513 q 368 400 264 444 q 544 301 488 350 q 600 189 600 251 q 545 64 600 108 q 396 19 490 19 q 224 58 308 19 q 101 168 139 96 l 85 146 q 214 31 125 71 q 396 -8 303 -8 m 485 1158 l 596 1158 l 410 978 l 375 978 l 485 1158 z "},"Ꞌ":{"ha":406,"x_min":125,"x_max":281,"o":"m 281 914 l 281 736 l 217 263 l 189 263 l 125 736 l 125 914 l 281 914 z "},"Š":{"ha":801,"x_min":83,"x_max":719,"o":"m 396 -8 q 567 27 494 -8 q 680 124 640 63 q 719 260 719 185 q 655 408 719 349 q 456 529 590 468 l 414 549 q 283 613 326 589 q 213 667 239 636 q 188 742 188 699 q 243 856 188 817 q 396 894 299 894 q 558 853 479 894 q 672 740 638 813 l 690 763 q 571 879 654 836 q 393 922 488 922 q 239 892 310 922 q 126 805 168 863 q 83 667 83 747 q 115 558 83 603 q 205 478 146 513 q 368 400 264 444 q 544 301 488 350 q 600 189 600 251 q 545 64 600 108 q 396 19 490 19 q 224 58 308 19 q 101 168 139 96 l 85 146 q 214 31 125 71 q 396 -8 303 -8 m 567 1213 l 393 978 l 218 1213 l 357 1213 l 444 1094 l 532 1213 l 567 1213 z "},"Ş":{"ha":801,"x_min":83,"x_max":719,"o":"m 719 260 q 682 127 719 188 q 574 31 644 67 q 411 -8 504 -6 l 411 -39 q 490 -65 460 -42 q 519 -133 519 -89 q 486 -205 519 -182 q 397 -228 453 -228 q 308 -205 342 -228 q 274 -133 274 -182 l 358 -133 q 368 -186 358 -172 q 397 -200 378 -200 q 426 -186 417 -200 q 436 -133 436 -172 q 400 -65 436 -65 l 383 -65 l 383 -8 q 207 34 292 -6 q 85 146 122 74 l 101 168 q 224 58 139 96 q 396 19 308 19 q 545 64 490 19 q 600 189 600 108 q 544 301 600 251 q 368 400 488 350 q 205 478 264 444 q 115 558 146 513 q 83 667 83 603 q 126 805 83 747 q 239 892 168 863 q 393 922 310 922 q 571 879 488 922 q 690 763 654 836 l 672 740 q 558 853 638 813 q 396 894 479 894 q 243 856 299 894 q 188 742 188 817 q 213 667 188 699 q 283 613 239 636 q 414 549 326 589 l 456 529 q 655 408 590 468 q 719 260 719 349 z "},"Ș":{"ha":801,"x_min":83,"x_max":719,"o":"m 396 -8 q 567 27 494 -8 q 680 124 640 63 q 719 260 719 185 q 655 408 719 349 q 456 529 590 468 l 414 549 q 283 613 326 589 q 213 667 239 636 q 188 742 188 699 q 243 856 188 817 q 396 894 299 894 q 558 853 479 894 q 672 740 638 813 l 690 763 q 571 879 654 836 q 393 922 488 922 q 239 892 310 922 q 126 805 168 863 q 83 667 83 747 q 115 558 83 603 q 205 478 146 513 q 368 400 264 444 q 544 301 488 350 q 600 189 600 251 q 545 64 600 108 q 396 19 490 19 q 224 58 308 19 q 101 168 139 96 l 85 146 q 214 31 125 71 q 396 -8 303 -8 m 339 -100 l 450 -100 l 264 -281 l 229 -281 l 339 -100 z "},"Ṣ":{"ha":801,"x_min":83,"x_max":719,"o":"m 396 -8 q 567 27 494 -8 q 680 124 640 63 q 719 260 719 185 q 655 408 719 349 q 456 529 590 468 l 414 549 q 283 613 326 589 q 213 667 239 636 q 188 742 188 699 q 243 856 188 817 q 396 894 299 894 q 558 853 479 894 q 672 740 638 813 l 690 763 q 571 879 654 836 q 393 922 488 922 q 239 892 310 922 q 126 805 168 863 q 83 667 83 747 q 115 558 83 603 q 205 478 146 513 q 368 400 264 444 q 544 301 488 350 q 600 189 600 251 q 545 64 600 108 q 396 19 490 19 q 224 58 308 19 q 101 168 139 96 l 85 146 q 214 31 125 71 q 396 -8 303 -8 m 467 -171 q 445 -121 467 -142 q 393 -100 424 -100 q 343 -121 364 -100 q 322 -171 322 -142 q 343 -221 322 -200 q 393 -242 364 -242 q 444 -221 422 -242 q 467 -171 467 -200 z "},"Ə":{"ha":801,"x_min":69,"x_max":732,"o":"m 69 349 l 568 349 q 558 488 568 425 q 509 598 549 550 q 390 646 469 646 q 242 608 311 646 q 129 504 172 571 l 104 521 q 228 634 153 593 q 390 675 304 675 q 521 649 458 675 q 632 575 583 624 q 706 464 681 526 q 732 333 732 401 q 707 203 732 265 q 636 92 682 140 q 526 17 588 43 q 397 -8 465 -8 q 269 17 329 -8 q 163 92 208 43 q 94 203 118 140 q 69 333 69 265 l 69 349 m 401 21 q 513 74 476 25 q 559 183 550 122 q 568 319 568 243 l 233 319 q 244 182 235 242 q 290 74 253 122 q 401 21 326 25 z "},"Ŧ":{"ha":843,"x_min":69,"x_max":774,"o":"m 774 914 l 774 886 l 500 886 l 500 0 l 343 0 l 343 886 l 69 886 l 69 914 l 774 914 m 583 471 l 583 443 l 260 443 l 260 471 l 583 471 z "},"Ť":{"ha":843,"x_min":69,"x_max":774,"o":"m 774 914 l 774 886 l 500 886 l 500 0 l 343 0 l 343 886 l 69 886 l 69 914 l 774 914 m 594 1211 l 421 976 l 246 1211 l 385 1211 l 472 1093 l 560 1211 l 594 1211 z "},"Ţ":{"ha":843,"x_min":69,"x_max":774,"o":"m 774 914 l 774 886 l 500 886 l 500 0 l 343 0 l 343 886 l 69 886 l 69 914 l 774 914 m 435 0 l 435 -39 q 513 -65 483 -42 q 543 -133 543 -89 q 510 -205 543 -182 q 421 -228 476 -228 q 331 -205 365 -228 q 297 -133 297 -182 l 382 -133 q 392 -186 382 -172 q 421 -200 401 -200 q 450 -186 440 -200 q 460 -133 460 -172 q 450 -81 460 -96 q 424 -67 440 -67 l 407 -67 l 407 0 l 435 0 z "},"Ṱ":{"ha":843,"x_min":69,"x_max":774,"o":"m 774 914 l 774 886 l 500 886 l 500 0 l 343 0 l 343 886 l 69 886 l 69 914 l 774 914 m 593 -335 l 558 -335 l 471 -217 l 383 -335 l 244 -335 l 419 -100 l 593 -335 z "},"Ț":{"ha":843,"x_min":69,"x_max":774,"o":"m 774 914 l 774 886 l 500 886 l 500 0 l 343 0 l 343 886 l 69 886 l 69 914 l 774 914 m 365 -100 l 476 -100 l 290 -281 l 256 -281 l 365 -100 z "},"Ṭ":{"ha":843,"x_min":69,"x_max":774,"o":"m 774 914 l 774 886 l 500 886 l 500 0 l 343 0 l 343 886 l 69 886 l 69 914 l 774 914 m 493 -171 q 472 -121 493 -142 q 419 -100 450 -100 q 369 -121 390 -100 q 349 -171 349 -142 q 369 -221 349 -200 q 419 -242 390 -242 q 471 -221 449 -242 q 493 -171 493 -200 z "},"Ƭ":{"ha":857,"x_min":57,"x_max":788,"o":"m 788 914 l 788 886 l 514 886 l 514 0 l 357 0 l 357 886 l 231 886 q 126 840 167 886 q 85 726 85 793 q 132 613 85 660 l 96 613 q 57 726 57 663 q 106 860 57 806 q 231 914 154 914 l 788 914 z "},"Ṯ":{"ha":843,"x_min":69,"x_max":774,"o":"m 774 914 l 774 886 l 500 886 l 500 0 l 343 0 l 343 886 l 69 886 l 69 914 l 774 914 m 247 -128 l 247 -100 l 596 -100 l 596 -128 l 247 -128 z "},"Ʈ":{"ha":843,"x_min":69,"x_max":774,"o":"m 500 886 l 500 4 q 507 -103 500 -74 q 544 -140 514 -133 q 560 -142 550 -142 q 646 -99 600 -142 l 646 -136 q 532 -174 599 -174 q 394 -124 446 -174 q 343 4 343 -75 l 343 886 l 69 886 l 69 914 l 774 914 l 774 886 l 500 886 z "},"Ʉ":{"ha":921,"x_min":31,"x_max":896,"o":"m 786 914 l 813 914 l 813 374 q 778 188 813 274 q 667 47 744 101 q 464 -8 589 -8 q 229 72 319 -8 q 114 381 114 174 l 114 914 l 269 914 l 269 299 q 333 78 269 136 q 490 19 396 19 q 654 69 588 19 q 753 199 721 118 q 786 374 786 279 l 786 914 m 31 471 l 896 471 l 896 443 l 31 443 l 31 471 z "},"Ǔ":{"ha":921,"x_min":114,"x_max":813,"o":"m 786 914 l 813 914 l 813 374 q 778 188 813 274 q 667 47 744 101 q 464 -8 589 -8 q 229 72 319 -8 q 114 381 114 174 l 114 914 l 269 914 l 269 299 q 333 78 269 136 q 490 19 396 19 q 654 69 588 19 q 753 199 721 118 q 786 374 786 279 l 786 914 m 636 1213 l 463 978 l 288 1213 l 426 1213 l 514 1094 l 601 1213 l 636 1213 z "},"Ǘ":{"ha":921,"x_min":114,"x_max":813,"o":"m 786 914 l 813 914 l 813 374 q 778 188 813 274 q 667 47 744 101 q 464 -8 589 -8 q 229 72 319 -8 q 114 381 114 174 l 114 914 l 269 914 l 269 299 q 333 78 269 136 q 490 19 396 19 q 654 69 588 19 q 753 199 721 118 q 786 374 786 279 l 786 914 m 382 1049 q 360 1099 382 1078 q 308 1119 339 1119 q 258 1099 279 1119 q 238 1049 238 1078 q 258 999 238 1019 q 308 978 279 978 q 360 999 338 978 q 382 1049 382 1019 m 686 1049 q 665 1099 686 1078 q 613 1119 643 1119 q 563 1099 583 1119 q 542 1049 542 1078 q 563 999 542 1019 q 613 978 583 978 q 664 999 642 978 q 686 1049 686 1019 m 554 1328 l 665 1328 l 479 1147 l 444 1147 l 554 1328 z "},"Ǚ":{"ha":921,"x_min":114,"x_max":813,"o":"m 786 914 l 813 914 l 813 374 q 778 188 813 274 q 667 47 744 101 q 464 -8 589 -8 q 229 72 319 -8 q 114 381 114 174 l 114 914 l 269 914 l 269 299 q 333 78 269 136 q 490 19 396 19 q 654 69 588 19 q 753 199 721 118 q 786 374 786 279 l 786 914 m 635 1382 l 461 1147 l 286 1382 l 425 1382 l 513 1264 l 600 1382 l 635 1382 m 382 1049 q 360 1099 382 1078 q 308 1119 339 1119 q 258 1099 279 1119 q 238 1049 238 1078 q 258 999 238 1019 q 308 978 279 978 q 360 999 338 978 q 382 1049 382 1019 m 686 1049 q 665 1099 686 1078 q 613 1119 643 1119 q 563 1099 583 1119 q 542 1049 542 1078 q 563 999 542 1019 q 613 978 583 978 q 664 999 642 978 q 686 1049 686 1019 z "},"Ǜ":{"ha":921,"x_min":114,"x_max":813,"o":"m 786 914 l 813 914 l 813 374 q 778 188 813 274 q 667 47 744 101 q 464 -8 589 -8 q 229 72 319 -8 q 114 381 114 174 l 114 914 l 269 914 l 269 299 q 333 78 269 136 q 490 19 396 19 q 654 69 588 19 q 753 199 721 118 q 786 374 786 279 l 786 914 m 369 1328 l 479 1147 l 444 1147 l 258 1328 l 369 1328 m 382 1049 q 360 1099 382 1078 q 308 1119 339 1119 q 258 1099 279 1119 q 238 1049 238 1078 q 258 999 238 1019 q 308 978 279 978 q 360 999 338 978 q 382 1049 382 1019 m 686 1049 q 665 1099 686 1078 q 613 1119 643 1119 q 563 1099 583 1119 q 542 1049 542 1078 q 563 999 542 1019 q 613 978 583 978 q 664 999 642 978 q 686 1049 686 1019 z "},"Ǖ":{"ha":921,"x_min":114,"x_max":813,"o":"m 786 914 l 813 914 l 813 374 q 778 188 813 274 q 667 47 744 101 q 464 -8 589 -8 q 229 72 319 -8 q 114 381 114 174 l 114 914 l 269 914 l 269 299 q 333 78 269 136 q 490 19 396 19 q 654 69 588 19 q 753 199 721 118 q 786 374 786 279 l 786 914 m 286 1147 l 286 1175 l 635 1175 l 635 1147 l 286 1147 m 382 1049 q 360 1099 382 1078 q 308 1119 339 1119 q 258 1099 279 1119 q 238 1049 238 1078 q 258 999 238 1019 q 308 978 279 978 q 360 999 338 978 q 382 1049 382 1019 m 686 1049 q 665 1099 686 1078 q 613 1119 643 1119 q 563 1099 583 1119 q 542 1049 542 1078 q 563 999 542 1019 q 613 978 583 978 q 664 999 642 978 q 686 1049 686 1019 z "},"Ụ":{"ha":921,"x_min":114,"x_max":813,"o":"m 786 914 l 813 914 l 813 374 q 778 188 813 274 q 667 47 744 101 q 464 -8 589 -8 q 229 72 319 -8 q 114 381 114 174 l 114 914 l 269 914 l 269 299 q 333 78 269 136 q 490 19 396 19 q 654 69 588 19 q 753 199 721 118 q 786 374 786 279 l 786 914 m 536 -171 q 515 -121 536 -142 q 463 -100 493 -100 q 413 -121 433 -100 q 392 -171 392 -142 q 413 -221 392 -200 q 463 -242 433 -242 q 514 -221 492 -242 q 536 -171 536 -200 z "},"Ủ":{"ha":921,"x_min":114,"x_max":813,"o":"m 786 914 l 813 914 l 813 374 q 778 188 813 274 q 667 47 744 101 q 464 -8 589 -8 q 229 72 319 -8 q 114 381 114 174 l 114 914 l 269 914 l 269 299 q 333 78 269 136 q 490 19 396 19 q 654 69 588 19 q 753 199 721 118 q 786 374 786 279 l 786 914 m 535 1139 q 547 1099 547 1121 q 463 978 547 1044 l 436 1013 q 464 1090 464 1053 q 436 1138 464 1128 q 414 1142 424 1142 q 390 1136 400 1142 q 363 1118 379 1131 l 343 1138 q 390 1167 363 1157 q 447 1178 418 1178 q 499 1168 475 1178 q 535 1139 522 1158 z "},"Ư":{"ha":1003,"x_min":114,"x_max":1058,"o":"m 1054 1113 q 1058 1074 1058 1094 q 1010 940 1058 994 q 885 886 961 886 l 813 886 l 813 374 q 778 188 813 274 q 667 47 744 101 q 464 -8 589 -8 q 229 72 319 -8 q 114 381 114 174 l 114 914 l 269 914 l 269 299 q 333 78 269 136 q 490 19 396 19 q 654 69 588 19 q 753 199 721 118 q 786 374 786 279 l 786 914 l 885 914 q 990 960 949 914 q 1031 1074 1031 1007 q 1026 1113 1031 1094 l 1054 1113 z "},"Ứ":{"ha":1003,"x_min":114,"x_max":1058,"o":"m 556 1158 l 667 1158 l 481 978 l 446 978 l 556 1158 m 1054 1113 q 1058 1074 1058 1094 q 1010 940 1058 994 q 885 886 961 886 l 813 886 l 813 374 q 778 188 813 274 q 667 47 744 101 q 464 -8 589 -8 q 229 72 319 -8 q 114 381 114 174 l 114 914 l 269 914 l 269 299 q 333 78 269 136 q 490 19 396 19 q 654 69 588 19 q 753 199 721 118 q 786 374 786 279 l 786 914 l 885 914 q 990 960 949 914 q 1031 1074 1031 1007 q 1026 1113 1031 1094 l 1054 1113 z "},"Ự":{"ha":1003,"x_min":114,"x_max":1058,"o":"m 1054 1113 q 1058 1074 1058 1094 q 1010 940 1058 994 q 885 886 961 886 l 813 886 l 813 374 q 778 188 813 274 q 667 47 744 101 q 464 -8 589 -8 q 229 72 319 -8 q 114 381 114 174 l 114 914 l 269 914 l 269 299 q 333 78 269 136 q 490 19 396 19 q 654 69 588 19 q 753 199 721 118 q 786 374 786 279 l 786 914 l 885 914 q 990 960 949 914 q 1031 1074 1031 1007 q 1026 1113 1031 1094 l 1054 1113 m 536 -171 q 515 -121 536 -142 q 463 -100 493 -100 q 413 -121 433 -100 q 392 -171 392 -142 q 413 -221 392 -200 q 463 -242 433 -242 q 514 -221 492 -242 q 536 -171 536 -200 z "},"Ừ":{"ha":1003,"x_min":114,"x_max":1058,"o":"m 371 1158 l 481 978 l 446 978 l 260 1158 l 371 1158 m 1054 1113 q 1058 1074 1058 1094 q 1010 940 1058 994 q 885 886 961 886 l 813 886 l 813 374 q 778 188 813 274 q 667 47 744 101 q 464 -8 589 -8 q 229 72 319 -8 q 114 381 114 174 l 114 914 l 269 914 l 269 299 q 333 78 269 136 q 490 19 396 19 q 654 69 588 19 q 753 199 721 118 q 786 374 786 279 l 786 914 l 885 914 q 990 960 949 914 q 1031 1074 1031 1007 q 1026 1113 1031 1094 l 1054 1113 z "},"Ử":{"ha":1003,"x_min":114,"x_max":1058,"o":"m 535 1139 q 547 1099 547 1121 q 463 978 547 1044 l 436 1013 q 464 1090 464 1053 q 436 1138 464 1128 q 414 1142 424 1142 q 390 1136 400 1142 q 363 1118 379 1131 l 343 1138 q 390 1167 363 1157 q 447 1178 418 1178 q 499 1168 475 1178 q 535 1139 522 1158 m 1054 1113 q 1058 1074 1058 1094 q 1010 940 1058 994 q 885 886 961 886 l 813 886 l 813 374 q 778 188 813 274 q 667 47 744 101 q 464 -8 589 -8 q 229 72 319 -8 q 114 381 114 174 l 114 914 l 269 914 l 269 299 q 333 78 269 136 q 490 19 396 19 q 654 69 588 19 q 753 199 721 118 q 786 374 786 279 l 786 914 l 885 914 q 990 960 949 914 q 1031 1074 1031 1007 q 1026 1113 1031 1094 l 1054 1113 z "},"Ữ":{"ha":1003,"x_min":114,"x_max":1058,"o":"m 1054 1113 q 1058 1074 1058 1094 q 1010 940 1058 994 q 885 886 961 886 l 813 886 l 813 374 q 778 188 813 274 q 667 47 744 101 q 464 -8 589 -8 q 229 72 319 -8 q 114 381 114 174 l 114 914 l 269 914 l 269 299 q 333 78 269 136 q 490 19 396 19 q 654 69 588 19 q 753 199 721 118 q 786 374 786 279 l 786 914 l 885 914 q 990 960 949 914 q 1031 1074 1031 1007 q 1026 1113 1031 1094 l 1054 1113 m 646 1049 q 601 1007 622 1022 q 547 985 581 992 q 503 979 519 979 q 421 1007 456 979 q 399 1024 415 1011 q 370 1043 383 1036 q 344 1050 357 1050 q 323 1044 332 1049 q 307 1032 314 1039 q 297 1022 300 1025 l 278 1042 q 322 1083 300 1067 q 376 1107 343 1099 q 417 1113 401 1113 q 504 1083 465 1113 q 526 1065 511 1078 q 554 1047 542 1053 q 579 1042 567 1042 q 601 1047 592 1042 q 617 1059 610 1053 q 626 1068 624 1065 l 646 1049 z "},"Ű":{"ha":921,"x_min":114,"x_max":813,"o":"m 786 914 l 813 914 l 813 374 q 778 188 813 274 q 667 47 744 101 q 464 -8 589 -8 q 229 72 319 -8 q 114 381 114 174 l 114 914 l 269 914 l 269 299 q 333 78 269 136 q 490 19 396 19 q 654 69 588 19 q 753 199 721 118 q 786 374 786 279 l 786 914 m 469 1158 l 581 1158 l 394 978 l 360 978 l 469 1158 m 643 1158 l 754 1158 l 568 978 l 533 978 l 643 1158 z "},"Ū":{"ha":921,"x_min":114,"x_max":813,"o":"m 786 914 l 813 914 l 813 374 q 778 188 813 274 q 667 47 744 101 q 464 -8 589 -8 q 229 72 319 -8 q 114 381 114 174 l 114 914 l 269 914 l 269 299 q 333 78 269 136 q 490 19 396 19 q 654 69 588 19 q 753 199 721 118 q 786 374 786 279 l 786 914 m 288 978 l 288 1006 l 636 1006 l 636 978 l 288 978 z "},"Ų":{"ha":921,"x_min":114,"x_max":813,"o":"m 813 914 l 813 374 q 779 186 813 268 q 661 43 746 104 q 551 -40 581 -15 q 506 -97 522 -65 q 489 -156 489 -129 q 517 -201 489 -189 q 540 -207 528 -207 q 564 -201 554 -207 q 590 -182 574 -194 l 610 -201 q 563 -231 590 -221 q 506 -242 535 -242 q 454 -232 478 -242 q 418 -203 431 -222 q 406 -164 406 -185 q 510 -29 406 -101 q 549 0 510 -29 q 464 -8 510 -8 q 229 72 319 -8 q 114 381 114 174 l 114 914 l 269 914 l 269 299 q 333 78 269 136 q 490 19 396 19 q 654 69 588 19 q 753 199 721 118 q 786 374 786 279 l 786 914 l 813 914 z "},"Ʊ":{"ha":1064,"x_min":69,"x_max":994,"o":"m 711 886 q 916 715 838 832 q 994 457 994 599 q 932 225 994 332 q 763 55 869 118 q 532 -8 657 -8 q 301 54 407 -8 q 132 224 194 117 q 69 457 69 331 q 148 716 69 600 q 353 886 226 832 l 181 886 l 181 914 l 439 914 l 439 878 q 376 843 401 863 q 270 706 307 790 q 233 457 233 622 q 270 208 233 292 q 376 71 307 124 q 532 19 443 19 q 688 71 619 19 q 793 208 756 124 q 831 457 831 292 q 793 706 831 622 q 688 843 756 790 q 625 878 660 865 l 625 914 l 883 914 l 883 886 l 711 886 z "},"Ů":{"ha":921,"x_min":114,"x_max":813,"o":"m 786 914 l 813 914 l 813 374 q 778 188 813 274 q 667 47 744 101 q 464 -8 589 -8 q 229 72 319 -8 q 114 381 114 174 l 114 914 l 269 914 l 269 299 q 333 78 269 136 q 490 19 396 19 q 654 69 588 19 q 753 199 721 118 q 786 374 786 279 l 786 914 m 463 1211 q 545 1177 511 1211 q 579 1094 579 1143 q 545 1012 579 1046 q 463 978 511 978 q 380 1012 414 978 q 346 1094 346 1046 q 381 1177 346 1143 q 463 1211 415 1211 m 463 1006 q 491 1024 482 1006 q 500 1094 500 1043 q 491 1165 500 1146 q 463 1183 482 1183 q 435 1165 443 1183 q 426 1094 426 1147 q 435 1024 426 1042 q 463 1006 443 1006 z "},"Ũ":{"ha":921,"x_min":114,"x_max":813,"o":"m 786 914 l 813 914 l 813 374 q 778 188 813 274 q 667 47 744 101 q 464 -8 589 -8 q 229 72 319 -8 q 114 381 114 174 l 114 914 l 269 914 l 269 299 q 333 78 269 136 q 490 19 396 19 q 654 69 588 19 q 753 199 721 118 q 786 374 786 279 l 786 914 m 646 1049 q 601 1007 622 1022 q 547 985 581 992 q 503 979 519 979 q 421 1007 456 979 q 399 1024 415 1011 q 370 1043 383 1036 q 344 1050 357 1050 q 323 1044 332 1049 q 307 1032 314 1039 q 297 1022 300 1025 l 278 1042 q 322 1083 300 1067 q 376 1107 343 1099 q 417 1113 401 1113 q 504 1083 465 1113 q 526 1065 511 1078 q 554 1047 542 1053 q 579 1042 567 1042 q 601 1047 592 1042 q 617 1059 610 1053 q 626 1068 624 1065 l 646 1049 z "},"Ʋ":{"ha":917,"x_min":114,"x_max":813,"o":"m 626 913 q 758 864 704 913 q 813 739 813 815 l 813 451 q 760 227 813 333 q 624 56 708 121 q 451 -8 540 -8 q 229 72 319 -8 q 114 381 114 174 l 114 914 l 269 914 l 269 299 q 323 89 269 156 q 451 22 376 22 q 610 82 532 22 q 737 241 688 142 q 786 451 786 340 l 786 739 q 740 844 786 803 q 626 885 693 885 q 588 881 607 885 l 588 908 q 626 913 607 913 z "},"Ʌ":{"ha":951,"x_min":63,"x_max":889,"o":"m 486 922 l 889 0 l 717 0 l 413 697 l 93 0 l 63 0 l 486 922 z "},"Ⱳ":{"ha":1231,"x_min":63,"x_max":1450,"o":"m 1397 1096 q 1450 1069 1425 1086 l 1450 1032 q 1389 1069 1422 1058 q 1329 1079 1361 1079 q 1243 1054 1281 1079 q 1190 982 1206 1029 l 854 -8 l 615 547 l 375 -8 l 63 914 l 228 914 l 456 246 l 686 779 l 914 254 l 1094 789 q 1164 992 1126 881 q 1227 1076 1182 1046 q 1329 1107 1272 1107 q 1397 1096 1368 1107 z "},"Ỵ":{"ha":939,"x_min":56,"x_max":882,"o":"m 850 914 l 882 914 l 544 306 l 544 0 l 388 0 l 388 306 l 56 914 l 233 914 l 542 358 l 850 914 m 538 -171 q 516 -121 538 -142 q 464 -100 494 -100 q 414 -121 435 -100 q 393 -171 393 -142 q 414 -221 393 -200 q 464 -242 435 -242 q 515 -221 493 -242 q 538 -171 538 -200 z "},"Ƴ":{"ha":939,"x_min":56,"x_max":1174,"o":"m 1174 1071 l 1174 1036 q 1144 1057 1161 1047 q 1060 1079 1104 1079 q 987 1060 1019 1079 q 933 1006 954 1042 l 544 306 l 544 0 l 388 0 l 388 306 l 56 914 l 233 914 l 542 358 l 908 1019 q 973 1085 933 1063 q 1058 1107 1013 1107 q 1158 1081 1111 1107 l 1174 1071 z "},"Ỷ":{"ha":939,"x_min":56,"x_max":882,"o":"m 850 914 l 882 914 l 544 306 l 544 0 l 388 0 l 388 306 l 56 914 l 233 914 l 542 358 l 850 914 m 540 1139 q 553 1099 553 1121 q 468 978 553 1044 l 442 1013 q 469 1090 469 1053 q 442 1138 469 1128 q 419 1142 429 1142 q 395 1136 406 1142 q 368 1118 385 1131 l 349 1138 q 396 1167 368 1157 q 453 1178 424 1178 q 504 1168 481 1178 q 540 1139 528 1158 z "},"Ỹ":{"ha":939,"x_min":56,"x_max":882,"o":"m 850 914 l 882 914 l 544 306 l 544 0 l 388 0 l 388 306 l 56 914 l 233 914 l 542 358 l 850 914 m 650 1050 q 606 1008 626 1024 q 551 986 585 993 q 507 981 524 981 q 425 1008 460 981 q 403 1025 419 1013 q 374 1044 388 1038 q 349 1051 361 1051 q 327 1045 336 1050 q 311 1033 318 1040 q 301 1024 304 1026 l 282 1043 q 326 1084 304 1068 q 381 1108 347 1100 q 421 1114 406 1114 q 508 1085 469 1114 q 531 1067 515 1079 q 558 1049 546 1054 q 583 1043 571 1043 q 605 1049 596 1043 q 621 1060 614 1054 q 631 1069 628 1067 l 650 1050 z "},"Ź":{"ha":892,"x_min":94,"x_max":796,"o":"m 796 914 l 290 28 l 796 28 l 796 0 l 94 0 l 599 886 l 94 886 l 94 914 l 796 914 m 536 1158 l 647 1158 l 461 978 l 426 978 l 536 1158 z "},"Ž":{"ha":892,"x_min":94,"x_max":796,"o":"m 796 914 l 290 28 l 796 28 l 796 0 l 94 0 l 599 886 l 94 886 l 94 914 l 796 914 m 618 1213 l 444 978 l 269 1213 l 408 1213 l 496 1094 l 583 1213 l 618 1213 z "},"Ż":{"ha":892,"x_min":94,"x_max":796,"o":"m 796 914 l 290 28 l 796 28 l 796 0 l 94 0 l 599 886 l 94 886 l 94 914 l 796 914 m 518 1049 q 497 1099 518 1078 q 444 1119 475 1119 q 394 1099 415 1119 q 374 1049 374 1078 q 394 999 374 1019 q 444 978 415 978 q 496 999 474 978 q 518 1049 518 1019 z "},"Ẓ":{"ha":892,"x_min":94,"x_max":796,"o":"m 796 914 l 290 28 l 796 28 l 796 0 l 94 0 l 599 886 l 94 886 l 94 914 l 796 914 m 518 -171 q 497 -121 518 -142 q 444 -100 475 -100 q 394 -121 415 -100 q 374 -171 374 -142 q 394 -221 374 -200 q 444 -242 415 -242 q 496 -221 474 -242 q 518 -171 518 -200 z "},"ă":{"ha":865,"x_min":69,"x_max":753,"o":"m 546 893 q 506 798 546 838 q 411 758 467 758 q 315 798 356 758 q 275 893 275 838 l 356 893 q 366 813 356 840 q 411 786 376 786 q 456 813 446 786 q 467 893 467 840 l 546 893 m 753 667 l 753 0 l 596 0 l 596 46 q 411 -8 511 -8 q 281 17 343 -8 q 169 92 219 43 q 95 203 121 142 q 69 333 69 265 q 95 464 69 401 q 169 575 121 526 q 281 649 219 624 q 411 675 343 675 q 596 621 511 675 l 596 667 l 753 667 m 411 21 q 596 81 515 21 l 596 586 q 411 646 515 646 q 289 594 328 646 q 242 479 250 542 q 233 333 233 417 q 242 188 233 250 q 289 73 250 125 q 411 21 328 21 z "},"ắ":{"ha":865,"x_min":69,"x_max":753,"o":"m 546 893 q 506 798 546 838 q 411 758 467 758 q 315 798 356 758 q 275 893 275 838 l 356 893 q 366 813 356 840 q 411 786 376 786 q 456 813 446 786 q 467 893 467 840 l 546 893 m 503 1101 l 614 1101 l 428 921 l 393 921 l 503 1101 m 753 667 l 753 0 l 596 0 l 596 46 q 411 -8 511 -8 q 281 17 343 -8 q 169 92 219 43 q 95 203 121 142 q 69 333 69 265 q 95 464 69 401 q 169 575 121 526 q 281 649 219 624 q 411 675 343 675 q 596 621 511 675 l 596 667 l 753 667 m 411 21 q 596 81 515 21 l 596 586 q 411 646 515 646 q 289 594 328 646 q 242 479 250 542 q 233 333 233 417 q 242 188 233 250 q 289 73 250 125 q 411 21 328 21 z "},"ặ":{"ha":865,"x_min":69,"x_max":753,"o":"m 546 893 q 506 798 546 838 q 411 758 467 758 q 315 798 356 758 q 275 893 275 838 l 356 893 q 366 813 356 840 q 411 786 376 786 q 456 813 446 786 q 467 893 467 840 l 546 893 m 753 667 l 753 0 l 596 0 l 596 46 q 411 -8 511 -8 q 281 17 343 -8 q 169 92 219 43 q 95 203 121 142 q 69 333 69 265 q 95 464 69 401 q 169 575 121 526 q 281 649 219 624 q 411 675 343 675 q 596 621 511 675 l 596 667 l 753 667 m 411 21 q 596 81 515 21 l 596 586 q 411 646 515 646 q 289 594 328 646 q 242 479 250 542 q 233 333 233 417 q 242 188 233 250 q 289 73 250 125 q 411 21 328 21 m 485 -171 q 463 -121 485 -142 q 411 -100 442 -100 q 361 -121 382 -100 q 340 -171 340 -142 q 361 -221 340 -200 q 411 -242 382 -242 q 463 -221 440 -242 q 485 -171 485 -200 z "},"ằ":{"ha":865,"x_min":69,"x_max":753,"o":"m 356 893 q 366 813 356 840 q 411 786 376 786 q 456 813 446 786 q 467 893 467 840 l 547 893 q 507 798 547 838 q 411 758 467 758 q 316 798 356 758 q 276 893 276 838 l 356 893 m 319 1101 l 429 921 l 394 921 l 208 1101 l 319 1101 m 753 667 l 753 0 l 596 0 l 596 46 q 411 -8 511 -8 q 281 17 343 -8 q 169 92 219 43 q 95 203 121 142 q 69 333 69 265 q 95 464 69 401 q 169 575 121 526 q 281 649 219 624 q 411 675 343 675 q 596 621 511 675 l 596 667 l 753 667 m 411 21 q 596 81 515 21 l 596 586 q 411 646 515 646 q 289 594 328 646 q 242 479 250 542 q 233 333 233 417 q 242 188 233 250 q 289 73 250 125 q 411 21 328 21 z "},"ẳ":{"ha":865,"x_min":69,"x_max":753,"o":"m 546 893 q 506 798 546 838 q 411 758 467 758 q 315 798 356 758 q 275 893 275 838 l 356 893 q 366 813 356 840 q 411 786 376 786 q 456 813 446 786 q 467 893 467 840 l 546 893 m 507 1082 q 519 1042 519 1064 q 435 921 519 988 l 408 956 q 436 1033 436 996 q 408 1081 436 1071 q 386 1085 396 1085 q 362 1079 372 1085 q 335 1061 351 1074 l 315 1081 q 363 1110 335 1100 q 419 1121 390 1121 q 471 1111 447 1121 q 507 1082 494 1101 m 753 667 l 753 0 l 596 0 l 596 46 q 411 -8 511 -8 q 281 17 343 -8 q 169 92 219 43 q 95 203 121 142 q 69 333 69 265 q 95 464 69 401 q 169 575 121 526 q 281 649 219 624 q 411 675 343 675 q 596 621 511 675 l 596 667 l 753 667 m 411 21 q 596 81 515 21 l 596 586 q 411 646 515 646 q 289 594 328 646 q 242 479 250 542 q 233 333 233 417 q 242 188 233 250 q 289 73 250 125 q 411 21 328 21 z "},"ẵ":{"ha":865,"x_min":69,"x_max":753,"o":"m 594 990 q 550 949 571 964 q 496 926 529 933 q 451 921 468 921 q 369 949 404 921 q 348 965 364 953 q 319 985 332 978 q 293 992 306 992 q 272 985 281 990 q 256 974 263 981 q 246 964 249 967 l 226 983 q 270 1024 249 1008 q 325 1049 292 1040 q 365 1054 350 1054 q 453 1025 414 1054 q 475 1007 460 1019 q 503 989 490 994 q 528 983 515 983 q 549 989 540 983 q 565 1001 558 994 q 575 1010 572 1007 l 594 990 m 546 893 q 506 798 546 838 q 411 758 467 758 q 315 798 356 758 q 275 893 275 838 l 356 893 q 366 813 356 840 q 411 786 376 786 q 456 813 446 786 q 467 893 467 840 l 546 893 m 753 667 l 753 0 l 596 0 l 596 46 q 411 -8 511 -8 q 281 17 343 -8 q 169 92 219 43 q 95 203 121 142 q 69 333 69 265 q 95 464 69 401 q 169 575 121 526 q 281 649 219 624 q 411 675 343 675 q 596 621 511 675 l 596 667 l 753 667 m 411 21 q 596 81 515 21 l 596 586 q 411 646 515 646 q 289 594 328 646 q 242 479 250 542 q 233 333 233 417 q 242 188 233 250 q 289 73 250 125 q 411 21 328 21 z "},"ǎ":{"ha":865,"x_min":69,"x_max":753,"o":"m 585 993 l 411 758 l 236 993 l 375 993 l 463 875 l 550 993 l 585 993 m 753 667 l 753 0 l 596 0 l 596 46 q 411 -8 511 -8 q 281 17 343 -8 q 169 92 219 43 q 95 203 121 142 q 69 333 69 265 q 95 464 69 401 q 169 575 121 526 q 281 649 219 624 q 411 675 343 675 q 596 621 511 675 l 596 667 l 753 667 m 411 21 q 596 81 515 21 l 596 586 q 411 646 515 646 q 289 594 328 646 q 242 479 250 542 q 233 333 233 417 q 242 188 233 250 q 289 73 250 125 q 411 21 328 21 z "},"ấ":{"ha":865,"x_min":69,"x_max":753,"o":"m 585 758 l 550 758 l 463 876 l 375 758 l 236 758 l 411 993 l 585 758 m 504 1201 l 615 1201 l 429 1021 l 394 1021 l 504 1201 m 753 667 l 753 0 l 596 0 l 596 46 q 411 -8 511 -8 q 281 17 343 -8 q 169 92 219 43 q 95 203 121 142 q 69 333 69 265 q 95 464 69 401 q 169 575 121 526 q 281 649 219 624 q 411 675 343 675 q 596 621 511 675 l 596 667 l 753 667 m 411 21 q 596 81 515 21 l 596 586 q 411 646 515 646 q 289 594 328 646 q 242 479 250 542 q 233 333 233 417 q 242 188 233 250 q 289 73 250 125 q 411 21 328 21 z "},"ậ":{"ha":865,"x_min":69,"x_max":753,"o":"m 585 758 l 550 758 l 463 876 l 375 758 l 236 758 l 411 993 l 585 758 m 753 667 l 753 0 l 596 0 l 596 46 q 411 -8 511 -8 q 281 17 343 -8 q 169 92 219 43 q 95 203 121 142 q 69 333 69 265 q 95 464 69 401 q 169 575 121 526 q 281 649 219 624 q 411 675 343 675 q 596 621 511 675 l 596 667 l 753 667 m 411 21 q 596 81 515 21 l 596 586 q 411 646 515 646 q 289 594 328 646 q 242 479 250 542 q 233 333 233 417 q 242 188 233 250 q 289 73 250 125 q 411 21 328 21 m 485 -171 q 463 -121 485 -142 q 411 -100 442 -100 q 361 -121 382 -100 q 340 -171 340 -142 q 361 -221 340 -200 q 411 -242 382 -242 q 463 -221 440 -242 q 485 -171 485 -200 z "},"ầ":{"ha":865,"x_min":69,"x_max":753,"o":"m 317 1201 l 426 1021 l 392 1021 l 206 1201 l 317 1201 m 585 758 l 550 758 l 463 876 l 375 758 l 236 758 l 411 993 l 585 758 m 753 667 l 753 0 l 596 0 l 596 46 q 411 -8 511 -8 q 281 17 343 -8 q 169 92 219 43 q 95 203 121 142 q 69 333 69 265 q 95 464 69 401 q 169 575 121 526 q 281 649 219 624 q 411 675 343 675 q 596 621 511 675 l 596 667 l 753 667 m 411 21 q 596 81 515 21 l 596 586 q 411 646 515 646 q 289 594 328 646 q 242 479 250 542 q 233 333 233 417 q 242 188 233 250 q 289 73 250 125 q 411 21 328 21 z "},"ẩ":{"ha":865,"x_min":69,"x_max":753,"o":"m 585 758 l 550 758 l 463 876 l 375 758 l 236 758 l 411 993 l 585 758 m 563 1146 q 575 1106 575 1128 q 490 985 575 1051 l 464 1019 q 492 1097 492 1060 q 464 1144 492 1135 q 442 1149 451 1149 q 417 1143 428 1149 q 390 1125 407 1138 l 371 1144 q 418 1174 390 1164 q 475 1185 446 1185 q 526 1175 503 1185 q 563 1146 550 1165 m 753 667 l 753 0 l 596 0 l 596 46 q 411 -8 511 -8 q 281 17 343 -8 q 169 92 219 43 q 95 203 121 142 q 69 333 69 265 q 95 464 69 401 q 169 575 121 526 q 281 649 219 624 q 411 675 343 675 q 596 621 511 675 l 596 667 l 753 667 m 411 21 q 596 81 515 21 l 596 586 q 411 646 515 646 q 289 594 328 646 q 242 479 250 542 q 233 333 233 417 q 242 188 233 250 q 289 73 250 125 q 411 21 328 21 z "},"ẫ":{"ha":865,"x_min":69,"x_max":753,"o":"m 585 758 l 550 758 l 463 876 l 375 758 l 236 758 l 411 993 l 585 758 m 594 1090 q 550 1049 571 1064 q 496 1026 529 1033 q 451 1021 468 1021 q 369 1049 404 1021 q 348 1065 364 1053 q 319 1085 332 1078 q 293 1092 306 1092 q 272 1085 281 1090 q 256 1074 263 1081 q 246 1064 249 1067 l 226 1083 q 270 1124 249 1108 q 325 1149 292 1140 q 365 1154 350 1154 q 453 1125 414 1154 q 475 1107 460 1119 q 503 1089 490 1094 q 528 1083 515 1083 q 549 1089 540 1083 q 565 1101 558 1094 q 575 1110 572 1107 l 594 1090 m 753 667 l 753 0 l 596 0 l 596 46 q 411 -8 511 -8 q 281 17 343 -8 q 169 92 219 43 q 95 203 121 142 q 69 333 69 265 q 95 464 69 401 q 169 575 121 526 q 281 649 219 624 q 411 675 343 675 q 596 621 511 675 l 596 667 l 753 667 m 411 21 q 596 81 515 21 l 596 586 q 411 646 515 646 q 289 594 328 646 q 242 479 250 542 q 233 333 233 417 q 242 188 233 250 q 289 73 250 125 q 411 21 328 21 z "},"ǟ":{"ha":865,"x_min":69,"x_max":753,"o":"m 236 928 l 236 956 l 586 956 l 586 928 l 236 928 m 332 829 q 310 879 332 858 q 258 900 289 900 q 208 879 229 900 q 188 829 188 858 q 208 779 188 800 q 258 758 229 758 q 310 779 288 758 q 332 829 332 800 m 635 829 q 613 879 635 858 q 561 900 592 900 q 511 879 532 900 q 490 829 490 858 q 511 779 490 800 q 561 758 532 758 q 613 779 590 758 q 635 829 635 800 m 753 667 l 753 0 l 596 0 l 596 46 q 411 -8 511 -8 q 281 17 343 -8 q 169 92 219 43 q 95 203 121 142 q 69 333 69 265 q 95 464 69 401 q 169 575 121 526 q 281 649 219 624 q 411 675 343 675 q 596 621 511 675 l 596 667 l 753 667 m 411 21 q 596 81 515 21 l 596 586 q 411 646 515 646 q 289 594 328 646 q 242 479 250 542 q 233 333 233 417 q 242 188 233 250 q 289 73 250 125 q 411 21 328 21 z "},"ạ":{"ha":865,"x_min":69,"x_max":753,"o":"m 753 667 l 753 0 l 596 0 l 596 46 q 411 -8 511 -8 q 281 17 343 -8 q 169 92 219 43 q 95 203 121 142 q 69 333 69 265 q 95 464 69 401 q 169 575 121 526 q 281 649 219 624 q 411 675 343 675 q 596 621 511 675 l 596 667 l 753 667 m 411 21 q 596 81 515 21 l 596 586 q 411 646 515 646 q 289 594 328 646 q 242 479 250 542 q 233 333 233 417 q 242 188 233 250 q 289 73 250 125 q 411 21 328 21 m 485 -171 q 463 -121 485 -142 q 411 -100 442 -100 q 361 -121 382 -100 q 340 -171 340 -142 q 361 -221 340 -200 q 411 -242 382 -242 q 463 -221 440 -242 q 485 -171 485 -200 z "},"ả":{"ha":865,"x_min":69,"x_max":753,"o":"m 483 919 q 496 879 496 901 q 411 758 496 825 l 385 793 q 413 871 413 833 q 385 918 413 908 q 363 922 372 922 q 338 917 349 922 q 311 899 328 911 l 292 918 q 339 948 311 938 q 396 958 367 958 q 447 949 424 958 q 483 919 471 939 m 753 667 l 753 0 l 596 0 l 596 46 q 411 -8 511 -8 q 281 17 343 -8 q 169 92 219 43 q 95 203 121 142 q 69 333 69 265 q 95 464 69 401 q 169 575 121 526 q 281 649 219 624 q 411 675 343 675 q 596 621 511 675 l 596 667 l 753 667 m 411 21 q 596 81 515 21 l 596 586 q 411 646 515 646 q 289 594 328 646 q 242 479 250 542 q 233 333 233 417 q 242 188 233 250 q 289 73 250 125 q 411 21 328 21 z "},"ɑ":{"ha":865,"x_min":69,"x_max":753,"o":"m 753 667 l 753 0 l 596 0 l 596 46 q 411 -8 511 -8 q 281 17 343 -8 q 169 92 219 43 q 95 203 121 142 q 69 333 69 265 q 95 464 69 401 q 169 575 121 526 q 281 649 219 624 q 411 675 343 675 q 596 621 511 675 l 596 667 l 753 667 m 411 21 q 596 81 515 21 l 596 586 q 411 646 515 646 q 289 594 328 646 q 242 479 250 542 q 233 333 233 417 q 242 188 233 250 q 289 73 250 125 q 411 21 328 21 z "},"ɒ":{"ha":865,"x_min":113,"x_max":796,"o":"m 269 621 q 454 675 354 675 q 585 649 522 675 q 696 575 647 624 q 770 464 744 526 q 796 333 796 401 q 770 203 796 265 q 696 92 744 142 q 585 17 647 43 q 454 -8 522 -8 q 269 46 354 -8 l 269 0 l 113 0 l 113 667 l 269 667 l 269 621 m 454 21 q 576 73 538 21 q 624 188 615 125 q 632 333 632 250 q 624 479 632 417 q 576 594 615 542 q 454 646 538 646 q 269 586 350 646 l 269 81 q 454 21 350 21 z "},"ā":{"ha":865,"x_min":69,"x_max":753,"o":"m 753 667 l 753 0 l 596 0 l 596 46 q 411 -8 511 -8 q 281 17 343 -8 q 169 92 219 43 q 95 203 121 142 q 69 333 69 265 q 95 464 69 401 q 169 575 121 526 q 281 649 219 624 q 411 675 343 675 q 596 621 511 675 l 596 667 l 753 667 m 411 21 q 596 81 515 21 l 596 586 q 411 646 515 646 q 289 594 328 646 q 242 479 250 542 q 233 333 233 417 q 242 188 233 250 q 289 73 250 125 q 411 21 328 21 m 238 758 l 238 786 l 585 786 l 585 758 l 238 758 z "},"ą":{"ha":865,"x_min":69,"x_max":753,"o":"m 753 667 l 753 0 l 596 0 l 596 46 q 411 -8 511 -8 q 281 17 343 -8 q 169 92 219 43 q 95 203 121 142 q 69 333 69 265 q 95 464 69 401 q 169 575 121 526 q 281 649 219 624 q 411 675 343 675 q 596 621 511 675 l 596 667 l 753 667 m 411 21 q 596 81 515 21 l 596 586 q 411 646 515 646 q 289 594 328 646 q 242 479 250 542 q 233 333 233 417 q 242 188 233 250 q 289 73 250 125 q 411 21 328 21 m 696 -37 q 649 -94 667 -62 q 632 -154 632 -126 q 660 -201 632 -189 q 683 -207 671 -207 q 707 -201 697 -207 q 733 -182 717 -194 l 753 -201 q 706 -231 733 -221 q 649 -242 678 -242 q 597 -232 621 -242 q 561 -203 574 -222 q 549 -164 549 -185 q 653 -29 549 -101 q 699 0 676 -12 l 753 0 q 732 -11 749 -1 q 696 -37 715 -21 z "},"ḅ":{"ha":865,"x_min":113,"x_max":796,"o":"m 454 21 q 576 73 538 21 q 624 188 615 125 q 632 333 632 250 q 624 479 632 417 q 576 594 615 542 q 454 646 538 646 q 269 586 350 646 l 269 82 q 454 21 350 21 m 696 575 q 770 464 744 526 q 796 333 796 401 q 770 203 796 265 q 696 92 744 142 q 585 17 647 43 q 454 -8 522 -8 q 269 46 354 -8 l 269 0 l 113 0 l 113 914 l 269 914 l 269 621 q 454 675 350 675 q 585 649 524 675 q 696 575 647 624 m 528 -171 q 506 -121 528 -142 q 454 -100 485 -100 q 404 -121 425 -100 q 383 -171 383 -142 q 404 -221 383 -200 q 454 -242 425 -242 q 506 -221 483 -242 q 528 -171 528 -200 z "},"ɓ":{"ha":865,"x_min":113,"x_max":796,"o":"m 696 575 q 770 464 744 526 q 796 333 796 401 q 770 203 796 265 q 696 92 744 142 q 585 17 647 43 q 454 -8 522 -8 q 269 46 354 -8 l 269 0 l 113 0 l 113 929 q 163 1058 113 1008 q 300 1107 214 1107 q 414 1069 367 1107 l 414 1032 q 328 1075 368 1075 q 313 1074 318 1075 q 276 1038 282 1067 q 269 929 269 1008 l 269 621 q 454 675 350 675 q 585 649 524 675 q 696 575 647 624 m 454 21 q 576 73 538 21 q 624 188 615 125 q 632 333 632 250 q 624 479 632 417 q 576 594 615 542 q 454 646 538 646 q 269 586 350 646 l 269 82 q 454 21 350 21 z "},"ʘ":{"ha":1064,"x_min":69,"x_max":994,"o":"m 532 922 q 763 859 657 922 q 932 689 869 796 q 994 457 994 582 q 932 225 994 332 q 763 55 869 118 q 532 -8 657 -8 q 301 54 407 -8 q 132 224 194 117 q 69 457 69 331 q 132 690 69 583 q 301 860 194 797 q 532 922 407 922 m 688 71 q 793 208 756 124 q 831 457 831 292 q 793 706 831 622 q 688 843 756 790 q 532 893 621 893 q 376 843 442 893 q 270 706 307 790 q 233 457 233 622 q 270 208 233 292 q 376 71 307 124 q 532 19 443 19 q 688 71 619 19 m 611 457 q 588 513 611 489 q 532 536 564 536 q 476 513 500 536 q 453 457 453 489 q 476 402 453 425 q 532 379 499 379 q 588 402 565 379 q 611 457 611 425 z "},"ć":{"ha":756,"x_min":69,"x_max":686,"o":"m 632 113 q 664 149 650 131 l 686 131 q 653 92 664 103 q 542 17 604 43 q 411 -8 479 -8 q 281 17 343 -8 q 169 92 219 43 q 95 203 121 142 q 69 333 69 265 q 95 464 69 401 q 169 575 121 526 q 281 649 219 624 q 411 675 343 675 q 542 649 479 675 q 653 575 604 624 q 686 536 664 564 l 664 518 q 632 554 650 536 q 531 622 589 599 q 411 646 474 646 q 289 594 328 646 q 242 479 250 542 q 233 333 233 417 q 242 188 233 250 q 289 73 250 125 q 411 21 328 21 q 531 44 474 21 q 632 113 589 68 m 471 939 l 582 939 l 396 758 l 361 758 l 471 939 z "},"č":{"ha":756,"x_min":69,"x_max":686,"o":"m 632 113 q 664 149 650 131 l 686 131 q 653 92 664 103 q 542 17 604 43 q 411 -8 479 -8 q 281 17 343 -8 q 169 92 219 43 q 95 203 121 142 q 69 333 69 265 q 95 464 69 401 q 169 575 121 526 q 281 649 219 624 q 411 675 343 675 q 542 649 479 675 q 653 575 604 624 q 686 536 664 564 l 664 518 q 632 554 650 536 q 531 622 589 599 q 411 646 474 646 q 289 594 328 646 q 242 479 250 542 q 233 333 233 417 q 242 188 233 250 q 289 73 250 125 q 411 21 328 21 q 531 44 474 21 q 632 113 589 68 m 551 993 l 378 758 l 203 993 l 342 993 l 429 875 l 517 993 l 551 993 z "},"ċ":{"ha":756,"x_min":69,"x_max":686,"o":"m 632 113 q 664 149 650 131 l 686 131 q 653 92 664 103 q 542 17 604 43 q 411 -8 479 -8 q 281 17 343 -8 q 169 92 219 43 q 95 203 121 142 q 69 333 69 265 q 95 464 69 401 q 169 575 121 526 q 281 649 219 624 q 411 675 343 675 q 542 649 479 675 q 653 575 604 624 q 686 536 664 564 l 664 518 q 632 554 650 536 q 531 622 589 599 q 411 646 474 646 q 289 594 328 646 q 242 479 250 542 q 233 333 233 417 q 242 188 233 250 q 289 73 250 125 q 411 21 328 21 q 531 44 474 21 q 632 113 589 68 m 451 829 q 430 879 451 858 q 378 900 408 900 q 328 879 349 900 q 307 829 307 858 q 328 779 307 800 q 378 758 349 758 q 429 779 407 758 q 451 829 451 800 z "},"ƈ":{"ha":803,"x_min":69,"x_max":831,"o":"m 69 333 q 95 464 69 401 q 169 575 121 526 q 281 649 219 624 q 411 675 343 675 q 564 639 492 675 l 564 679 q 618 804 564 756 q 751 853 672 853 q 831 836 793 853 l 831 806 q 751 825 794 825 q 638 784 685 825 q 592 679 592 743 l 592 624 l 592 589 q 411 646 511 646 q 289 594 328 646 q 242 479 250 542 q 233 333 233 417 q 242 188 233 250 q 289 73 250 125 q 411 21 328 21 q 531 44 474 21 q 632 113 589 68 q 664 149 650 131 l 686 131 q 653 92 664 103 q 542 17 604 43 q 411 -8 479 -8 q 281 17 343 -8 q 169 92 219 43 q 95 203 121 142 q 69 333 69 265 z "},"ð":{"ha":717,"x_min":83,"x_max":631,"o":"m 240 232 q 268 66 240 113 q 354 19 296 19 q 451 60 418 19 q 485 176 485 101 q 432 404 485 272 l 408 467 q 384 476 396 474 q 349 478 372 478 q 268 433 296 478 q 240 264 240 389 l 240 232 m 83 250 q 115 372 83 314 q 206 468 146 431 q 349 506 267 506 q 394 503 372 506 l 232 914 l 408 914 l 604 408 q 631 274 631 343 q 598 133 631 197 q 503 30 565 68 q 354 -8 440 -8 q 216 26 278 -8 q 119 119 154 60 q 83 250 83 178 m 222 653 l 574 763 l 582 735 l 231 626 l 222 653 z "},"ď":{"ha":1010,"x_min":69,"x_max":982,"o":"m 233 333 q 242 188 233 250 q 289 73 250 125 q 411 21 328 21 q 596 82 515 21 l 596 586 q 411 646 515 646 q 289 594 328 646 q 242 479 250 542 q 233 333 233 417 m 69 333 q 95 464 69 401 q 169 575 121 526 q 280 649 218 624 q 411 675 342 675 q 596 621 515 675 l 596 914 l 753 914 l 753 0 l 596 0 l 596 46 q 411 -8 511 -8 q 281 17 343 -8 q 169 92 219 43 q 95 203 121 142 q 69 333 69 265 m 901 914 q 958 892 935 914 q 982 831 982 869 q 893 663 982 763 l 865 663 q 887 703 876 676 q 900 757 897 731 q 845 781 868 757 q 822 836 822 804 q 845 891 822 868 q 901 914 868 914 z "},"ḓ":{"ha":865,"x_min":69,"x_max":753,"o":"m 233 333 q 242 188 233 250 q 289 73 250 125 q 411 21 328 21 q 596 82 515 21 l 596 586 q 411 646 515 646 q 289 594 328 646 q 242 479 250 542 q 233 333 233 417 m 69 333 q 95 464 69 401 q 169 575 121 526 q 280 649 218 624 q 411 675 342 675 q 596 621 515 675 l 596 914 l 753 914 l 753 0 l 596 0 l 596 46 q 411 -8 511 -8 q 281 17 343 -8 q 169 92 219 43 q 95 203 121 142 q 69 333 69 265 m 585 -335 l 550 -335 l 463 -217 l 375 -335 l 236 -335 l 411 -100 l 585 -335 z "},"đ":{"ha":878,"x_min":69,"x_max":836,"o":"m 233 333 q 242 188 233 250 q 289 73 250 125 q 411 21 328 21 q 596 82 515 21 l 596 586 q 411 646 515 646 q 289 594 328 646 q 242 479 250 542 q 233 333 233 417 m 69 333 q 95 464 69 401 q 169 575 121 526 q 280 649 218 624 q 411 675 342 675 q 596 621 515 675 l 596 914 l 753 914 l 753 0 l 596 0 l 596 46 q 411 -8 511 -8 q 281 17 343 -8 q 169 92 219 43 q 95 203 121 142 q 69 333 69 265 m 513 782 l 836 782 l 836 754 l 513 754 l 513 782 z "},"ḍ":{"ha":865,"x_min":69,"x_max":753,"o":"m 233 333 q 242 188 233 250 q 289 73 250 125 q 411 21 328 21 q 596 82 515 21 l 596 586 q 411 646 515 646 q 289 594 328 646 q 242 479 250 542 q 233 333 233 417 m 69 333 q 95 464 69 401 q 169 575 121 526 q 280 649 218 624 q 411 675 342 675 q 596 621 515 675 l 596 914 l 753 914 l 753 0 l 596 0 l 596 46 q 411 -8 511 -8 q 281 17 343 -8 q 169 92 219 43 q 95 203 121 142 q 69 333 69 265 m 485 -171 q 463 -121 485 -142 q 411 -100 442 -100 q 361 -121 382 -100 q 340 -171 340 -142 q 361 -221 340 -200 q 411 -242 382 -242 q 463 -221 440 -242 q 485 -171 485 -200 z "},"ʤ":{"ha":1326,"x_min":69,"x_max":1257,"o":"m 1071 279 q 1156 225 1119 253 q 1225 146 1193 197 q 1257 21 1257 94 q 1223 -122 1257 -58 q 1128 -220 1189 -185 q 986 -256 1067 -256 q 841 -212 894 -256 q 763 -121 788 -168 q 742 -69 747 -86 l 765 -69 l 782 -107 q 844 -182 808 -151 q 950 -212 881 -212 q 1056 -155 1014 -212 q 1097 21 1097 -97 q 1058 179 1097 106 q 1001 237 1039 218 q 932 263 964 256 q 890 275 900 271 l 1029 638 l 753 638 l 753 667 l 1221 667 l 1071 279 m 753 0 l 596 0 l 596 46 q 411 -8 511 -8 q 281 17 343 -8 q 169 92 219 43 q 95 203 121 142 q 69 333 69 265 q 95 464 69 401 q 169 575 121 526 q 280 649 218 624 q 411 675 342 675 q 596 621 515 675 l 596 914 l 753 914 l 753 667 l 753 638 l 753 0 m 596 586 q 411 646 515 646 q 289 594 328 646 q 242 479 250 542 q 233 333 233 417 q 242 188 233 250 q 289 73 250 125 q 411 21 328 21 q 596 82 515 21 l 596 586 z "},"ɗ":{"ha":878,"x_min":69,"x_max":899,"o":"m 785 1107 q 899 1069 849 1107 l 899 1032 q 813 1075 853 1075 q 796 1074 801 1075 q 759 1038 765 1067 q 753 929 753 1008 l 753 0 l 596 0 l 596 46 q 411 -8 511 -8 q 281 17 343 -8 q 169 92 219 43 q 95 203 121 142 q 69 333 69 265 q 95 464 69 401 q 169 575 121 526 q 280 649 218 624 q 411 675 342 675 q 596 621 515 675 l 596 929 q 647 1058 596 1008 q 785 1107 699 1107 m 596 586 q 411 646 515 646 q 289 594 328 646 q 242 479 250 542 q 233 333 233 417 q 242 188 233 250 q 289 73 250 125 q 411 21 328 21 q 596 82 515 21 l 596 586 z "},"ḏ":{"ha":865,"x_min":69,"x_max":753,"o":"m 233 333 q 242 188 233 250 q 289 73 250 125 q 411 21 328 21 q 596 82 515 21 l 596 586 q 411 646 515 646 q 289 594 328 646 q 242 479 250 542 q 233 333 233 417 m 69 333 q 95 464 69 401 q 169 575 121 526 q 280 649 218 624 q 411 675 342 675 q 596 621 515 675 l 596 914 l 753 914 l 753 0 l 596 0 l 596 46 q 411 -8 511 -8 q 281 17 343 -8 q 169 92 219 43 q 95 203 121 142 q 69 333 69 265 m 238 -128 l 238 -100 l 585 -100 l 585 -128 l 238 -128 z "},"ɖ":{"ha":878,"x_min":69,"x_max":899,"o":"m 796 -140 q 813 -142 801 -142 q 899 -99 853 -142 l 899 -136 q 785 -174 849 -174 q 647 -124 699 -174 q 596 4 596 -75 l 596 46 q 411 -8 511 -8 q 281 17 343 -8 q 169 92 219 43 q 95 203 121 142 q 69 333 69 265 q 95 464 69 401 q 169 575 121 526 q 280 649 218 624 q 411 675 342 675 q 596 621 515 675 l 596 914 l 753 914 l 753 4 q 759 -104 753 -75 q 796 -140 765 -133 m 596 586 q 411 646 515 646 q 289 594 328 646 q 242 479 250 542 q 233 333 233 417 q 242 188 233 250 q 289 73 250 125 q 411 21 328 21 q 596 82 515 21 l 596 586 z "},"ě":{"ha":801,"x_min":69,"x_max":732,"o":"m 574 993 l 400 758 l 225 993 l 364 993 l 451 875 l 539 993 l 574 993 m 732 318 l 233 318 q 243 179 233 242 q 292 69 253 117 q 411 21 332 21 q 560 58 490 21 q 672 163 629 96 l 697 146 q 573 33 649 74 q 411 -8 497 -8 q 281 17 343 -8 q 169 92 219 43 q 95 203 121 142 q 69 333 69 265 q 94 464 69 401 q 165 575 119 526 q 275 649 214 624 q 404 675 336 675 q 533 649 472 675 q 639 575 593 624 q 708 464 683 526 q 732 333 732 401 l 732 318 m 400 646 q 288 597 325 646 q 242 486 251 549 q 233 347 233 424 l 568 347 q 558 488 567 426 q 512 597 549 549 q 400 646 475 646 z "},"ȩ":{"ha":801,"x_min":69,"x_max":732,"o":"m 732 318 l 233 318 q 243 179 233 242 q 292 69 253 117 q 411 21 332 21 q 560 58 490 21 q 672 163 629 96 l 697 146 q 573 33 649 74 q 411 -8 497 -8 q 281 17 343 -8 q 169 92 219 43 q 95 203 121 142 q 69 333 69 265 q 94 464 69 401 q 165 575 119 526 q 275 649 214 624 q 404 675 336 675 q 533 649 472 675 q 639 575 593 624 q 708 464 683 526 q 732 333 732 401 l 732 318 m 400 646 q 288 597 325 646 q 242 486 251 549 q 233 347 233 424 l 568 347 q 558 488 567 426 q 512 597 549 549 q 400 646 475 646 m 425 6 l 425 -62 q 503 -90 474 -65 q 533 -158 533 -114 q 500 -230 533 -207 q 411 -253 467 -253 q 322 -230 356 -253 q 288 -158 288 -207 l 372 -158 q 382 -211 372 -197 q 411 -225 392 -225 q 440 -211 431 -225 q 450 -158 450 -197 q 414 -90 450 -90 l 397 -90 l 397 6 l 425 6 z "},"ế":{"ha":801,"x_min":69,"x_max":732,"o":"m 576 758 l 542 758 l 454 876 l 367 758 l 228 758 l 403 993 l 576 758 m 496 1201 l 607 1201 l 421 1021 l 386 1021 l 496 1201 m 732 318 l 233 318 q 243 179 233 242 q 292 69 253 117 q 411 21 332 21 q 560 58 490 21 q 672 163 629 96 l 697 146 q 573 33 649 74 q 411 -8 497 -8 q 281 17 343 -8 q 169 92 219 43 q 95 203 121 142 q 69 333 69 265 q 94 464 69 401 q 165 575 119 526 q 275 649 214 624 q 404 675 336 675 q 533 649 472 675 q 639 575 593 624 q 708 464 683 526 q 732 333 732 401 l 732 318 m 400 646 q 288 597 325 646 q 242 486 251 549 q 233 347 233 424 l 568 347 q 558 488 567 426 q 512 597 549 549 q 400 646 475 646 z "},"ệ":{"ha":801,"x_min":69,"x_max":732,"o":"m 476 -171 q 455 -121 476 -142 q 403 -100 433 -100 q 353 -121 374 -100 q 332 -171 332 -142 q 353 -221 332 -200 q 403 -242 374 -242 q 454 -221 432 -242 q 476 -171 476 -200 m 576 758 l 542 758 l 454 876 l 367 758 l 228 758 l 403 993 l 576 758 m 732 318 l 233 318 q 243 179 233 242 q 292 69 253 117 q 411 21 332 21 q 560 58 490 21 q 672 163 629 96 l 697 146 q 573 33 649 74 q 411 -8 497 -8 q 281 17 343 -8 q 169 92 219 43 q 95 203 121 142 q 69 333 69 265 q 94 464 69 401 q 165 575 119 526 q 275 649 214 624 q 404 675 336 675 q 533 649 472 675 q 639 575 593 624 q 708 464 683 526 q 732 333 732 401 l 732 318 m 400 646 q 288 597 325 646 q 242 486 251 549 q 233 347 233 424 l 568 347 q 558 488 567 426 q 512 597 549 549 q 400 646 475 646 z "},"ề":{"ha":801,"x_min":69,"x_max":732,"o":"m 308 1201 l 418 1021 l 383 1021 l 197 1201 l 308 1201 m 576 758 l 542 758 l 454 876 l 367 758 l 228 758 l 403 993 l 576 758 m 732 318 l 233 318 q 243 179 233 242 q 292 69 253 117 q 411 21 332 21 q 560 58 490 21 q 672 163 629 96 l 697 146 q 573 33 649 74 q 411 -8 497 -8 q 281 17 343 -8 q 169 92 219 43 q 95 203 121 142 q 69 333 69 265 q 94 464 69 401 q 165 575 119 526 q 275 649 214 624 q 404 675 336 675 q 533 649 472 675 q 639 575 593 624 q 708 464 683 526 q 732 333 732 401 l 732 318 m 400 646 q 288 597 325 646 q 242 486 251 549 q 233 347 233 424 l 568 347 q 558 488 567 426 q 512 597 549 549 q 400 646 475 646 z "},"ể":{"ha":801,"x_min":69,"x_max":732,"o":"m 576 758 l 542 758 l 454 876 l 367 758 l 228 758 l 403 993 l 576 758 m 554 1146 q 567 1106 567 1128 q 482 985 567 1051 l 456 1019 q 483 1097 483 1060 q 456 1144 483 1135 q 433 1149 443 1149 q 409 1143 419 1149 q 382 1125 399 1138 l 363 1144 q 410 1174 382 1164 q 467 1185 438 1185 q 518 1175 494 1185 q 554 1146 542 1165 m 732 318 l 233 318 q 243 179 233 242 q 292 69 253 117 q 411 21 332 21 q 560 58 490 21 q 672 163 629 96 l 697 146 q 573 33 649 74 q 411 -8 497 -8 q 281 17 343 -8 q 169 92 219 43 q 95 203 121 142 q 69 333 69 265 q 94 464 69 401 q 165 575 119 526 q 275 649 214 624 q 404 675 336 675 q 533 649 472 675 q 639 575 593 624 q 708 464 683 526 q 732 333 732 401 l 732 318 m 400 646 q 288 597 325 646 q 242 486 251 549 q 233 347 233 424 l 568 347 q 558 488 567 426 q 512 597 549 549 q 400 646 475 646 z "},"ễ":{"ha":801,"x_min":69,"x_max":732,"o":"m 576 758 l 542 758 l 454 876 l 367 758 l 228 758 l 403 993 l 576 758 m 586 1090 q 542 1049 563 1064 q 488 1026 521 1033 q 443 1021 460 1021 q 361 1049 396 1021 q 340 1065 356 1053 q 310 1085 324 1078 q 285 1092 297 1092 q 263 1085 272 1090 q 247 1074 254 1081 q 238 1064 240 1067 l 218 1083 q 262 1124 240 1108 q 317 1149 283 1140 q 357 1154 342 1154 q 444 1125 406 1154 q 467 1107 451 1119 q 494 1089 482 1094 q 519 1083 507 1083 q 541 1089 532 1083 q 557 1101 550 1094 q 567 1110 564 1107 l 586 1090 m 732 318 l 233 318 q 243 179 233 242 q 292 69 253 117 q 411 21 332 21 q 560 58 490 21 q 672 163 629 96 l 697 146 q 573 33 649 74 q 411 -8 497 -8 q 281 17 343 -8 q 169 92 219 43 q 95 203 121 142 q 69 333 69 265 q 94 464 69 401 q 165 575 119 526 q 275 649 214 624 q 404 675 336 675 q 533 649 472 675 q 639 575 593 624 q 708 464 683 526 q 732 333 732 401 l 732 318 m 400 646 q 288 597 325 646 q 242 486 251 549 q 233 347 233 424 l 568 347 q 558 488 567 426 q 512 597 549 549 q 400 646 475 646 z "},"ė":{"ha":801,"x_min":69,"x_max":732,"o":"m 476 829 q 455 879 476 858 q 403 900 433 900 q 353 879 374 900 q 332 829 332 858 q 353 779 332 800 q 403 758 374 758 q 454 779 432 758 q 476 829 476 800 m 732 318 l 233 318 q 243 179 233 242 q 292 69 253 117 q 411 21 332 21 q 560 58 490 21 q 672 163 629 96 l 697 146 q 573 33 649 74 q 411 -8 497 -8 q 281 17 343 -8 q 169 92 219 43 q 95 203 121 142 q 69 333 69 265 q 94 464 69 401 q 165 575 119 526 q 275 649 214 624 q 404 675 336 675 q 533 649 472 675 q 639 575 593 624 q 708 464 683 526 q 732 333 732 401 l 732 318 m 400 646 q 288 597 325 646 q 242 486 251 549 q 233 347 233 424 l 568 347 q 558 488 567 426 q 512 597 549 549 q 400 646 475 646 z "},"ẹ":{"ha":801,"x_min":69,"x_max":732,"o":"m 476 -171 q 455 -121 476 -142 q 403 -100 433 -100 q 353 -121 374 -100 q 332 -171 332 -142 q 353 -221 332 -200 q 403 -242 374 -242 q 454 -221 432 -242 q 476 -171 476 -200 m 732 318 l 233 318 q 243 179 233 242 q 292 69 253 117 q 411 21 332 21 q 560 58 490 21 q 672 163 629 96 l 697 146 q 573 33 649 74 q 411 -8 497 -8 q 281 17 343 -8 q 169 92 219 43 q 95 203 121 142 q 69 333 69 265 q 94 464 69 401 q 165 575 119 526 q 275 649 214 624 q 404 675 336 675 q 533 649 472 675 q 639 575 593 624 q 708 464 683 526 q 732 333 732 401 l 732 318 m 400 646 q 288 597 325 646 q 242 486 251 549 q 233 347 233 424 l 568 347 q 558 488 567 426 q 512 597 549 549 q 400 646 475 646 z "},"ẻ":{"ha":801,"x_min":69,"x_max":732,"o":"m 474 919 q 486 879 486 901 q 401 758 486 825 l 375 793 q 403 871 403 833 q 375 918 403 908 q 353 922 363 922 q 328 917 339 922 q 301 899 318 911 l 282 918 q 329 948 301 938 q 386 958 357 958 q 438 949 414 958 q 474 919 461 939 m 732 318 l 233 318 q 243 179 233 242 q 292 69 253 117 q 411 21 332 21 q 560 58 490 21 q 672 163 629 96 l 697 146 q 573 33 649 74 q 411 -8 497 -8 q 281 17 343 -8 q 169 92 219 43 q 95 203 121 142 q 69 333 69 265 q 94 464 69 401 q 165 575 119 526 q 275 649 214 624 q 404 675 336 675 q 533 649 472 675 q 639 575 593 624 q 708 464 683 526 q 732 333 732 401 l 732 318 m 400 646 q 288 597 325 646 q 242 486 251 549 q 233 347 233 424 l 568 347 q 558 488 567 426 q 512 597 549 549 q 400 646 475 646 z "},"ē":{"ha":801,"x_min":69,"x_max":732,"o":"m 225 758 l 225 786 l 574 786 l 574 758 l 225 758 m 732 318 l 233 318 q 243 179 233 242 q 292 69 253 117 q 411 21 332 21 q 560 58 490 21 q 672 163 629 96 l 697 146 q 573 33 649 74 q 411 -8 497 -8 q 281 17 343 -8 q 169 92 219 43 q 95 203 121 142 q 69 333 69 265 q 94 464 69 401 q 165 575 119 526 q 275 649 214 624 q 404 675 336 675 q 533 649 472 675 q 639 575 593 624 q 708 464 683 526 q 732 333 732 401 l 732 318 m 400 646 q 288 597 325 646 q 242 486 251 549 q 233 347 233 424 l 568 347 q 558 488 567 426 q 512 597 549 549 q 400 646 475 646 z "},"ę":{"ha":801,"x_min":69,"x_max":732,"o":"m 732 318 l 233 318 q 243 179 233 242 q 292 69 253 117 q 411 21 332 21 q 560 58 490 21 q 672 163 629 96 l 697 146 q 653 92 679 118 q 597 43 625 64 q 525 -7 568 22 q 481 -37 504 -19 q 434 -94 451 -62 q 417 -154 417 -126 q 444 -201 417 -189 q 468 -207 456 -207 q 492 -201 482 -207 q 518 -182 501 -194 l 538 -201 q 490 -231 518 -221 q 433 -242 463 -242 q 382 -232 406 -242 q 346 -203 358 -222 q 333 -164 333 -185 q 438 -29 333 -101 q 482 -1 457 -15 q 411 -8 443 -8 q 281 17 343 -8 q 169 92 219 43 q 95 203 121 142 q 69 333 69 265 q 94 464 69 401 q 165 575 119 526 q 275 649 214 624 q 404 675 336 675 q 533 649 472 675 q 639 575 593 624 q 708 464 683 526 q 732 333 732 401 l 732 318 m 568 347 q 558 488 567 426 q 512 597 549 549 q 400 646 475 646 q 288 597 325 646 q 242 486 251 549 q 233 347 233 424 l 568 347 z "},"ɛ":{"ha":681,"x_min":81,"x_max":608,"o":"m 557 -108 q 586 -24 578 -65 l 608 -24 q 598 -70 607 -43 q 576 -121 589 -97 q 498 -212 551 -168 q 353 -256 444 -256 q 215 -222 276 -256 q 117 -131 153 -189 q 81 -3 81 -74 q 131 147 81 82 q 263 236 181 211 q 131 322 182 261 q 81 451 81 383 q 117 559 81 507 q 215 643 153 611 q 353 675 278 675 q 393 672 376 675 q 510 622 467 661 q 576 540 554 582 q 598 490 589 517 q 608 443 607 463 l 586 443 q 557 528 578 485 q 483 611 532 575 q 353 647 433 647 q 269 606 301 647 q 238 451 238 564 q 269 293 238 336 q 353 250 301 250 l 433 250 l 433 222 l 353 222 q 267 173 296 222 q 238 10 238 124 l 238 -15 q 266 -181 238 -135 q 353 -228 294 -228 q 483 -192 433 -228 q 557 -108 532 -156 z "},"ɜ":{"ha":681,"x_min":72,"x_max":600,"o":"m 124 -108 q 198 -192 149 -156 q 328 -228 247 -228 q 415 -181 386 -228 q 443 -15 443 -135 l 443 10 q 414 173 443 124 q 328 222 385 222 l 247 222 l 247 250 l 328 250 q 411 293 379 250 q 443 451 443 336 q 411 606 443 564 q 328 647 379 647 q 198 611 247 647 q 124 528 149 575 q 94 443 103 485 l 72 443 q 83 490 74 463 q 104 540 93 517 q 170 622 126 582 q 288 672 214 661 q 328 675 304 675 q 465 643 403 675 q 564 559 528 611 q 600 451 600 507 q 549 322 600 383 q 418 236 499 261 q 550 147 500 211 q 600 -3 600 82 q 564 -131 600 -74 q 466 -222 528 -189 q 328 -256 404 -256 q 183 -212 236 -256 q 104 -121 129 -168 q 83 -70 93 -97 q 72 -24 74 -43 l 94 -24 q 124 -108 103 -65 z "},"ɞ":{"ha":714,"x_min":72,"x_max":633,"o":"m 451 236 q 583 147 533 211 q 633 -3 633 82 q 597 -131 633 -74 q 499 -222 561 -189 q 361 -256 438 -256 q 216 -212 269 -256 q 138 -121 163 -168 q 91 28 110 -65 q 72 238 72 121 q 138 540 72 410 q 216 631 163 588 q 361 675 269 675 q 499 643 436 675 q 597 559 561 611 q 633 451 633 507 q 583 322 633 383 q 451 236 532 261 m 476 10 q 447 173 476 124 q 361 222 418 222 l 281 222 l 281 250 l 361 250 q 444 293 413 250 q 476 451 476 336 q 444 606 476 564 q 361 647 413 647 q 234 611 278 647 q 163 526 190 575 q 119 417 140 489 q 99 238 99 344 q 117 29 99 121 q 163 -107 136 -62 q 235 -192 190 -156 q 361 -228 279 -228 q 448 -181 419 -228 q 476 -15 476 -135 l 476 10 z "},"ɝ":{"ha":1006,"x_min":72,"x_max":971,"o":"m 936 325 q 971 342 956 331 l 971 310 q 946 299 958 303 q 874 286 911 286 q 774 315 818 286 q 710 397 731 344 l 686 464 l 474 388 l 472 388 q 446 407 465 388 l 703 501 l 736 407 q 790 338 753 363 q 874 314 828 314 q 936 325 908 314 m 124 -108 q 198 -192 149 -156 q 328 -228 247 -228 q 415 -181 386 -228 q 443 -15 443 -135 l 443 10 q 414 173 443 124 q 328 222 385 222 l 247 222 l 247 250 l 328 250 q 411 293 379 250 q 443 451 443 336 q 411 606 443 564 q 328 647 379 647 q 198 611 247 647 q 124 528 149 575 q 94 443 103 485 l 72 443 q 83 490 74 463 q 104 540 93 517 q 170 622 126 582 q 288 672 214 661 q 328 675 304 675 q 465 643 403 675 q 564 559 528 611 q 600 451 600 507 q 549 322 600 383 q 418 236 499 261 q 550 147 500 211 q 600 -3 600 82 q 564 -131 600 -74 q 466 -222 528 -189 q 328 -256 404 -256 q 183 -212 236 -256 q 104 -121 129 -168 q 83 -70 93 -97 q 72 -24 74 -43 l 94 -24 q 124 -108 103 -65 z "},"ɘ":{"ha":801,"x_min":69,"x_max":732,"o":"m 69 333 q 94 464 69 401 q 163 575 118 526 q 269 649 208 624 q 397 675 329 675 q 526 649 465 675 q 636 575 588 624 q 707 464 682 526 q 732 333 732 401 q 706 203 732 265 q 632 92 681 142 q 521 17 583 43 q 390 -8 458 -8 q 228 33 304 -8 q 104 146 153 74 l 129 163 q 242 58 172 96 q 390 21 311 21 q 509 69 469 21 q 558 179 549 117 q 568 318 568 242 l 69 318 l 69 333 m 401 646 q 290 597 326 646 q 244 488 253 549 q 233 347 235 426 l 568 347 q 559 486 568 424 q 513 597 550 549 q 401 646 476 646 z "},"ʃ":{"ha":407,"x_min":-21,"x_max":428,"o":"m 282 4 q 231 -124 282 -75 q 93 -174 179 -174 q -21 -136 29 -174 l -21 -99 q 65 -142 25 -142 q 82 -140 76 -142 q 119 -104 113 -133 q 125 4 125 -75 l 125 929 q 176 1058 125 1008 q 314 1107 228 1107 q 428 1069 378 1107 l 428 1032 q 342 1075 382 1075 q 325 1074 331 1075 q 288 1038 294 1067 q 282 929 282 1008 l 282 4 z "},"ẽ":{"ha":801,"x_min":69,"x_max":732,"o":"m 732 318 l 233 318 q 243 179 233 242 q 292 69 253 117 q 411 21 332 21 q 560 58 490 21 q 672 163 629 96 l 697 146 q 573 33 649 74 q 411 -8 497 -8 q 281 17 343 -8 q 169 92 219 43 q 95 203 121 142 q 69 333 69 265 q 94 464 69 401 q 165 575 119 526 q 275 649 214 624 q 404 675 336 675 q 533 649 472 675 q 639 575 593 624 q 708 464 683 526 q 732 333 732 401 l 732 318 m 400 646 q 288 597 325 646 q 242 486 251 549 q 233 347 233 424 l 568 347 q 558 488 567 426 q 512 597 549 549 q 400 646 475 646 m 583 828 q 539 786 560 801 q 485 764 518 771 q 440 758 457 758 q 358 786 393 758 q 337 803 353 790 q 308 822 321 815 q 282 829 294 829 q 260 823 269 828 q 244 811 251 818 q 235 801 238 804 l 215 821 q 259 862 238 846 q 314 886 281 878 q 354 892 339 892 q 442 863 403 892 q 464 844 449 857 q 492 826 479 832 q 517 821 504 821 q 538 826 529 821 q 554 838 547 832 q 564 847 561 844 l 583 828 z "},"ǝ":{"ha":801,"x_min":69,"x_max":732,"o":"m 69 349 l 568 349 q 558 488 568 425 q 509 598 549 550 q 390 646 469 646 q 242 608 311 646 q 129 504 172 571 l 104 521 q 228 634 153 593 q 390 675 304 675 q 521 649 458 675 q 632 575 583 624 q 706 464 681 526 q 732 333 732 401 q 707 203 732 265 q 636 92 682 140 q 526 17 588 43 q 397 -8 465 -8 q 269 17 329 -8 q 163 92 208 43 q 94 203 118 140 q 69 333 69 265 l 69 349 m 401 21 q 513 69 476 21 q 559 181 550 118 q 568 319 568 243 l 233 319 q 244 179 235 240 q 290 69 253 118 q 401 21 326 21 z "},"ə":{"ha":801,"x_min":69,"x_max":732,"o":"m 69 349 l 568 349 q 558 488 568 425 q 509 598 549 550 q 390 646 469 646 q 242 608 311 646 q 129 504 172 571 l 104 521 q 228 634 153 593 q 390 675 304 675 q 521 649 458 675 q 632 575 583 624 q 706 464 681 526 q 732 333 732 401 q 707 203 732 265 q 636 92 682 140 q 526 17 588 43 q 397 -8 465 -8 q 269 17 329 -8 q 163 92 208 43 q 94 203 118 140 q 69 333 69 265 l 69 349 m 401 21 q 513 69 476 21 q 559 181 550 118 q 568 319 568 243 l 233 319 q 244 179 235 240 q 290 69 253 118 q 401 21 326 21 z "},"ɚ":{"ha":1164,"x_min":69,"x_max":1094,"o":"m 1060 325 q 1094 342 1079 331 l 1094 310 q 1069 299 1082 303 q 997 286 1035 286 q 898 315 942 286 q 833 397 854 344 l 810 464 l 536 365 l 535 365 q 508 385 528 365 l 826 501 l 860 407 q 914 338 876 363 q 997 314 951 314 q 1060 325 1032 314 m 519 40 q 617 193 617 82 q 574 378 617 263 l 260 264 q 343 98 297 164 q 468 32 389 32 q 519 40 493 32 m 96 235 l 564 406 q 483 569 529 503 q 358 636 436 636 q 296 624 329 636 q 168 537 221 596 q 99 401 115 478 l 69 408 q 147 558 89 493 q 285 651 204 622 q 401 672 342 672 q 547 640 475 672 q 655 560 610 610 q 724 447 700 511 q 744 326 744 389 q 715 188 744 253 q 638 81 688 126 q 525 11 589 35 q 414 -8 469 -8 q 271 25 338 -8 q 168 106 213 56 q 100 221 124 157 l 96 235 z "},"ʒ":{"ha":682,"x_min":78,"x_max":604,"o":"m 418 279 q 503 225 467 253 q 572 146 540 197 q 604 21 604 94 q 570 -122 604 -58 q 475 -220 536 -185 q 333 -256 414 -256 q 188 -212 242 -256 q 110 -121 135 -168 q 89 -70 99 -97 q 78 -24 79 -43 l 100 -24 q 129 -107 111 -76 q 192 -182 156 -151 q 297 -212 228 -212 q 403 -155 361 -212 q 444 21 444 -97 q 406 179 444 106 q 349 237 386 218 q 279 263 311 256 q 238 275 247 271 l 376 638 l 100 638 l 100 667 l 568 667 l 418 279 z "},"ɣ":{"ha":835,"x_min":33,"x_max":800,"o":"m 547 68 q 593 -37 582 6 q 604 -125 604 -81 q 570 -219 604 -183 q 488 -256 536 -256 q 406 -222 438 -256 q 374 -137 374 -187 q 387 -65 374 -99 q 413 -8 400 -31 q 431 24 426 15 l 33 667 l 204 667 l 503 147 l 768 667 l 800 667 l 521 114 l 547 68 m 488 -222 q 513 -165 513 -208 q 468 -36 513 -115 l 450 -8 q 422 -61 436 -28 q 408 -133 408 -94 q 429 -200 408 -175 q 474 -225 450 -225 q 488 -222 483 -225 z "},"ğ":{"ha":865,"x_min":69,"x_max":753,"o":"m 753 60 q 718 -101 753 -26 q 608 -221 683 -175 q 418 -267 533 -267 q 237 -225 314 -267 q 121 -107 160 -183 l 147 -93 q 253 -200 182 -162 q 418 -237 324 -237 q 563 -155 529 -237 q 596 46 596 -72 q 411 -8 511 -8 q 281 17 343 -8 q 169 92 219 43 q 95 203 121 142 q 69 333 69 265 q 95 464 69 401 q 169 575 121 526 q 281 649 219 624 q 411 675 343 675 q 596 621 511 675 l 596 667 l 753 667 l 753 60 m 233 333 q 242 188 233 250 q 289 73 250 125 q 411 21 328 21 q 596 81 515 21 l 596 586 q 411 646 515 646 q 289 594 328 646 q 242 479 250 542 q 233 333 233 417 m 546 893 q 506 798 546 838 q 411 758 467 758 q 315 798 356 758 q 275 893 275 838 l 356 893 q 366 813 356 840 q 411 786 376 786 q 456 813 446 786 q 467 893 467 840 l 546 893 z "},"ǧ":{"ha":865,"x_min":69,"x_max":753,"o":"m 753 60 q 718 -101 753 -26 q 608 -221 683 -175 q 418 -267 533 -267 q 237 -225 314 -267 q 121 -107 160 -183 l 147 -93 q 253 -200 182 -162 q 418 -237 324 -237 q 563 -155 529 -237 q 596 46 596 -72 q 411 -8 511 -8 q 281 17 343 -8 q 169 92 219 43 q 95 203 121 142 q 69 333 69 265 q 95 464 69 401 q 169 575 121 526 q 281 649 219 624 q 411 675 343 675 q 596 621 511 675 l 596 667 l 753 667 l 753 60 m 233 333 q 242 188 233 250 q 289 73 250 125 q 411 21 328 21 q 596 81 515 21 l 596 586 q 411 646 515 646 q 289 594 328 646 q 242 479 250 542 q 233 333 233 417 m 585 993 l 411 758 l 236 993 l 375 993 l 463 875 l 550 993 l 585 993 z "},"ģ":{"ha":865,"x_min":69,"x_max":753,"o":"m 753 60 q 718 -101 753 -26 q 608 -221 683 -175 q 418 -267 533 -267 q 237 -225 314 -267 q 121 -107 160 -183 l 147 -93 q 253 -200 182 -162 q 418 -237 324 -237 q 563 -155 529 -237 q 596 46 596 -72 q 411 -8 511 -8 q 281 17 343 -8 q 169 92 219 43 q 95 203 121 142 q 69 333 69 265 q 95 464 69 401 q 169 575 121 526 q 281 649 219 624 q 411 675 343 675 q 596 621 511 675 l 596 667 l 753 667 l 753 60 m 233 333 q 242 188 233 250 q 289 73 250 125 q 411 21 328 21 q 596 81 515 21 l 596 586 q 411 646 515 646 q 289 594 328 646 q 242 479 250 542 q 233 333 233 417 m 503 939 l 614 939 l 428 758 l 393 758 l 503 939 z "},"ġ":{"ha":865,"x_min":69,"x_max":753,"o":"m 753 60 q 718 -101 753 -26 q 608 -221 683 -175 q 418 -267 533 -267 q 237 -225 314 -267 q 121 -107 160 -183 l 147 -93 q 253 -200 182 -162 q 418 -237 324 -237 q 563 -155 529 -237 q 596 46 596 -72 q 411 -8 511 -8 q 281 17 343 -8 q 169 92 219 43 q 95 203 121 142 q 69 333 69 265 q 95 464 69 401 q 169 575 121 526 q 281 649 219 624 q 411 675 343 675 q 596 621 511 675 l 596 667 l 753 667 l 753 60 m 233 333 q 242 188 233 250 q 289 73 250 125 q 411 21 328 21 q 596 81 515 21 l 596 586 q 411 646 515 646 q 289 594 328 646 q 242 479 250 542 q 233 333 233 417 m 485 829 q 463 879 485 858 q 411 900 442 900 q 361 879 382 900 q 340 829 340 858 q 361 779 340 800 q 411 758 382 758 q 463 779 440 758 q 485 829 485 800 z "},"ɠ":{"ha":899,"x_min":69,"x_max":899,"o":"m 785 853 q 899 815 849 853 l 899 778 q 813 821 853 821 q 796 819 801 821 q 759 783 765 813 q 753 675 753 754 l 753 60 q 718 -101 753 -26 q 608 -221 683 -175 q 418 -267 533 -267 q 237 -225 314 -267 q 121 -107 160 -183 l 147 -93 q 253 -200 182 -162 q 418 -237 324 -237 q 563 -155 529 -237 q 596 46 596 -72 q 411 -8 511 -8 q 281 17 343 -8 q 169 92 219 43 q 95 203 121 142 q 69 333 69 265 q 95 464 69 401 q 169 575 121 526 q 281 649 219 624 q 411 675 343 675 q 596 621 511 675 l 596 675 q 647 803 596 754 q 785 853 699 853 m 596 586 q 411 646 515 646 q 289 594 328 646 q 242 479 250 542 q 233 333 233 417 q 242 188 233 250 q 289 73 250 125 q 411 21 328 21 q 596 81 515 21 l 596 586 z "},"ʔ":{"ha":676,"x_min":69,"x_max":596,"o":"m 325 922 q 466 888 404 922 q 562 796 528 853 q 596 672 596 739 q 573 569 596 613 q 519 500 550 526 q 439 443 488 474 q 396 414 408 424 q 328 351 346 379 q 311 276 311 322 l 311 0 l 283 0 l 283 331 q 289 402 283 369 q 315 464 294 435 q 354 510 332 485 q 383 543 367 522 q 429 618 419 585 q 439 713 439 651 q 398 846 439 803 q 300 889 357 889 q 121 774 186 889 q 92 690 103 743 l 69 690 q 81 737 71 710 q 101 788 90 764 q 180 878 126 835 q 325 922 233 922 z "},"ʕ":{"ha":676,"x_min":81,"x_max":607,"o":"m 351 922 q 497 878 443 922 q 575 788 550 835 q 597 737 588 764 q 607 690 606 710 l 585 690 q 556 774 574 743 q 376 889 490 889 q 278 846 319 889 q 238 713 238 803 q 247 618 238 651 q 293 543 257 585 q 322 510 310 522 q 361 464 344 485 q 388 402 382 435 q 393 331 393 369 l 393 0 l 365 0 l 365 276 q 348 351 365 322 q 281 414 331 379 q 238 443 268 424 q 158 500 189 474 q 103 569 126 526 q 81 672 81 613 q 115 796 81 739 q 210 888 149 853 q 351 922 272 922 z "},"ɂ":{"ha":665,"x_min":69,"x_max":596,"o":"m 325 660 q 466 625 404 660 q 562 533 528 590 q 596 410 596 476 q 573 307 596 350 q 519 238 550 264 q 439 181 488 211 q 396 151 408 161 q 328 88 346 117 q 311 14 311 60 l 311 0 l 283 0 l 283 68 q 289 140 283 107 q 315 201 294 172 q 354 247 332 222 q 383 281 367 260 q 429 356 419 322 q 439 450 439 389 q 398 583 439 540 q 300 626 357 626 q 121 511 186 626 q 92 428 103 481 l 69 428 q 81 474 71 447 q 101 525 90 501 q 180 616 126 572 q 325 660 233 660 z "},"ʡ":{"ha":676,"x_min":69,"x_max":596,"o":"m 325 922 q 466 888 404 922 q 562 796 528 853 q 596 672 596 739 q 573 569 596 613 q 519 500 550 526 q 439 443 488 474 q 396 414 408 424 q 328 351 346 379 q 311 276 311 322 l 311 0 l 283 0 l 283 331 q 289 402 283 369 q 315 464 294 435 q 354 510 332 485 q 383 543 367 522 q 429 618 419 585 q 439 713 439 651 q 398 846 439 803 q 300 889 357 889 q 121 774 186 889 q 92 690 103 743 l 69 690 q 81 737 71 710 q 101 788 90 764 q 180 878 126 835 q 325 922 233 922 m 524 264 l 524 236 l 156 236 l 156 264 l 524 264 z "},"ʢ":{"ha":676,"x_min":81,"x_max":607,"o":"m 351 922 q 497 878 443 922 q 575 788 550 835 q 597 737 588 764 q 607 690 606 710 l 585 690 q 556 774 574 743 q 376 889 490 889 q 278 846 319 889 q 238 713 238 803 q 247 618 238 651 q 293 543 257 585 q 322 510 310 522 q 361 464 344 485 q 388 402 382 435 q 393 331 393 369 l 393 0 l 365 0 l 365 276 q 348 351 365 322 q 281 414 331 379 q 238 443 268 424 q 158 500 189 474 q 103 569 126 526 q 81 672 81 613 q 115 796 81 739 q 210 888 149 853 q 351 922 272 922 m 153 264 l 521 264 l 521 236 l 153 236 l 153 264 z "},"ħ":{"ha":847,"x_min":43,"x_max":733,"o":"m 665 594 q 717 501 700 556 q 733 371 733 447 l 733 0 l 576 0 l 576 411 q 537 578 576 526 q 447 629 497 629 q 356 591 403 629 q 294 494 310 553 q 285 433 288 464 q 283 354 283 401 l 283 0 l 126 0 l 126 914 l 283 914 l 283 554 q 365 635 310 601 q 482 668 421 668 q 583 652 538 668 q 665 594 629 636 m 43 782 l 367 782 l 367 754 l 43 754 l 43 782 z "},"ḥ":{"ha":832,"x_min":113,"x_max":719,"o":"m 651 601 q 703 508 686 563 q 719 378 719 454 l 719 0 l 563 0 l 563 418 q 523 585 563 533 q 433 636 483 636 q 342 598 389 636 q 281 501 296 560 q 272 440 274 471 q 269 361 269 408 l 269 0 l 113 0 l 113 914 l 269 914 l 269 561 q 351 642 296 608 q 468 675 407 675 q 569 659 524 675 q 651 601 615 643 m 488 -171 q 466 -121 488 -142 q 414 -100 444 -100 q 364 -121 385 -100 q 343 -171 343 -142 q 364 -221 343 -200 q 414 -242 385 -242 q 465 -221 443 -242 q 488 -171 488 -200 z "},"ɧ":{"ha":832,"x_min":113,"x_max":719,"o":"m 719 4 q 669 -124 719 -75 q 532 -174 618 -174 q 418 -136 467 -174 l 418 -99 q 504 -142 464 -142 q 519 -140 514 -142 q 556 -104 550 -133 q 563 4 563 -75 l 563 418 q 523 585 563 533 q 433 636 483 636 q 342 598 389 636 q 281 501 296 560 q 272 440 274 471 q 269 361 269 408 l 269 0 l 113 0 l 113 929 q 164 1058 113 1008 q 301 1107 215 1107 q 415 1069 368 1107 l 415 1032 q 329 1075 369 1075 q 314 1074 319 1075 q 276 1037 283 1067 q 269 929 269 1007 l 269 561 q 351 642 296 608 q 468 675 407 675 q 569 659 524 675 q 651 601 615 643 q 703 508 686 563 q 719 378 719 454 l 719 4 z "},"ɦ":{"ha":832,"x_min":113,"x_max":719,"o":"m 651 601 q 703 508 686 563 q 719 378 719 454 l 719 0 l 563 0 l 563 418 q 523 585 563 533 q 433 636 483 636 q 342 598 389 636 q 281 501 296 560 q 272 440 274 471 q 269 361 269 408 l 269 0 l 113 0 l 113 929 q 164 1058 113 1008 q 301 1107 215 1107 q 415 1069 365 1107 l 415 1032 q 329 1075 369 1075 q 313 1074 318 1075 q 276 1038 282 1067 q 269 929 269 1008 l 269 561 q 351 642 296 608 q 468 675 407 675 q 569 659 524 675 q 651 601 615 643 z "},"ɥ":{"ha":832,"x_min":113,"x_max":719,"o":"m 181 67 q 129 160 146 106 q 113 290 113 214 l 113 668 l 269 668 l 269 250 q 309 83 269 135 q 399 32 349 32 q 490 70 443 32 q 551 167 536 108 q 560 229 558 197 q 563 307 563 261 l 563 668 l 719 668 l 719 -246 l 563 -246 l 563 107 q 481 26 536 60 q 364 -7 425 -7 q 263 9 308 -7 q 181 67 217 25 z "},"ı":{"ha":407,"x_min":125,"x_max":282,"o":"m 282 667 l 125 667 l 125 0 l 282 0 l 282 667 z "},"ǐ":{"ha":407,"x_min":29,"x_max":378,"o":"m 378 993 l 204 758 l 29 993 l 168 993 l 256 875 l 343 993 l 378 993 m 282 667 l 125 667 l 125 0 l 282 0 l 282 667 m 29 993 l 168 993 l 256 875 l 343 993 l 378 993 l 204 758 l 29 993 m 158 972 l 71 972 l 200 800 l 243 857 l 158 972 z "},"ḯ":{"ha":435,"x_min":-7,"x_max":442,"o":"m 138 829 q 116 879 138 858 q 64 900 94 900 q 14 879 35 900 q -7 829 -7 858 q 14 779 -7 800 q 64 758 35 758 q 115 779 93 758 q 138 829 138 800 m 442 829 q 420 879 442 858 q 368 900 399 900 q 318 879 339 900 q 297 829 297 858 q 318 779 297 800 q 368 758 339 758 q 419 779 397 758 q 442 829 442 800 m 310 1108 l 421 1108 l 235 928 l 200 928 l 310 1108 m 293 667 l 136 667 l 136 0 l 293 0 l 293 667 z "},"ị":{"ha":408,"x_min":125,"x_max":283,"o":"m 282 667 l 125 667 l 125 0 l 282 0 l 282 667 m 125 843 q 148 788 125 811 q 204 765 171 765 q 260 788 238 765 q 283 843 283 811 q 260 899 283 875 q 204 922 236 922 q 149 899 172 922 q 125 843 125 875 m 275 -171 q 253 -121 275 -142 q 201 -100 232 -100 q 151 -121 172 -100 q 131 -171 131 -142 q 151 -221 131 -200 q 201 -242 172 -242 q 253 -221 231 -242 q 275 -171 275 -200 z "},"ỉ":{"ha":408,"x_min":85,"x_max":289,"o":"m 276 919 q 289 879 289 901 q 204 758 289 825 l 178 793 q 206 871 206 833 q 178 918 206 908 q 156 922 165 922 q 131 917 142 922 q 104 899 121 911 l 85 918 q 132 948 104 938 q 189 958 160 958 q 240 949 217 958 q 276 919 264 939 m 282 667 l 125 667 l 125 0 l 282 0 l 282 667 z "},"ī":{"ha":406,"x_min":29,"x_max":376,"o":"m 282 667 l 125 667 l 125 0 l 282 0 l 282 667 m 29 758 l 29 786 l 376 786 l 376 758 l 29 758 z "},"į":{"ha":408,"x_min":78,"x_max":283,"o":"m 225 -37 q 178 -94 196 -62 q 161 -154 161 -126 q 189 -201 161 -189 q 213 -207 200 -207 q 236 -201 226 -207 q 263 -182 246 -194 l 282 -201 q 235 -231 263 -221 q 178 -242 207 -242 q 126 -232 150 -242 q 90 -203 103 -222 q 78 -164 78 -185 q 182 -29 78 -101 q 228 0 206 -12 l 282 0 q 261 -11 278 -1 q 225 -37 244 -21 m 282 667 l 125 667 l 125 0 l 282 0 l 282 667 m 125 843 q 148 788 125 811 q 204 765 171 765 q 260 788 238 765 q 283 843 283 811 q 260 899 283 875 q 204 922 236 922 q 149 899 172 922 q 125 843 125 875 z "},"ɩ":{"ha":414,"x_min":125,"x_max":428,"o":"m 325 25 q 342 24 331 24 q 428 67 382 24 l 428 29 q 314 -8 378 -8 q 176 41 228 -8 q 125 169 125 90 l 125 667 l 282 667 l 282 169 q 288 61 282 90 q 325 25 294 32 z "},"ɨ":{"ha":407,"x_min":42,"x_max":365,"o":"m 365 340 l 365 313 l 42 313 l 42 340 l 365 340 m 125 0 l 125 667 l 282 667 l 282 0 l 125 0 m 125 843 q 148 788 125 811 q 204 765 171 765 q 260 788 238 765 q 283 843 283 811 q 260 899 283 875 q 204 922 236 922 q 149 899 172 922 q 125 843 125 875 z "},"ĩ":{"ha":424,"x_min":28,"x_max":396,"o":"m 396 828 q 351 786 372 801 q 297 764 331 771 q 253 758 269 758 q 171 786 206 758 q 149 803 165 790 q 120 822 133 815 q 94 829 107 829 q 73 823 82 828 q 57 811 64 818 q 47 801 50 804 l 28 821 q 72 862 50 846 q 126 886 93 878 q 167 892 151 892 q 254 863 215 892 q 276 844 261 857 q 304 826 292 832 q 329 821 317 821 q 351 826 342 821 q 367 838 360 832 q 376 847 374 844 l 396 828 m 133 0 l 290 0 l 290 667 l 133 667 l 133 0 z "},"ɟ":{"ha":415,"x_min":-118,"x_max":369,"o":"m 286 667 l 286 17 q 229 -185 286 -108 q 56 -267 167 -267 q -54 -235 -11 -267 q -118 -153 -97 -201 l -82 -153 l -78 -160 q -40 -208 -65 -187 q 11 -229 -15 -229 q 91 -192 65 -229 q 123 -104 117 -154 q 129 17 129 -54 l 129 667 l 286 667 m 369 340 l 369 313 l 46 313 l 46 340 l 369 340 z "},"ʄ":{"ha":415,"x_min":-118,"x_max":432,"o":"m 318 1107 q 432 1069 382 1107 l 432 1032 q 346 1075 386 1075 q 329 1074 335 1075 q 292 1038 299 1067 q 286 929 286 1008 l 286 17 q 229 -185 286 -108 q 56 -267 167 -267 q -54 -235 -11 -267 q -118 -153 -97 -201 l -82 -153 l -78 -160 q -40 -208 -65 -187 q 11 -229 -15 -229 q 91 -192 65 -229 q 123 -104 117 -154 q 129 17 129 -54 l 129 929 q 181 1058 129 1008 q 318 1107 232 1107 m 369 340 l 369 313 l 46 313 l 46 340 l 369 340 z "},"ķ":{"ha":740,"x_min":113,"x_max":685,"o":"m 406 378 l 685 0 l 490 0 l 310 243 l 140 0 l 113 0 l 113 914 l 269 914 l 269 233 l 574 667 l 607 667 l 406 378 m 343 -100 l 454 -100 l 268 -281 l 233 -281 l 343 -100 z "},"ƙ":{"ha":740,"x_min":113,"x_max":685,"o":"m 685 0 l 490 0 l 310 243 l 140 0 l 113 0 l 113 929 q 163 1058 113 1008 q 300 1107 214 1107 q 415 1069 365 1107 l 415 1032 q 329 1075 368 1075 q 313 1074 318 1075 q 276 1038 282 1067 q 269 929 269 1008 l 269 233 l 574 667 l 607 667 l 406 378 l 685 0 z "},"ĺ":{"ha":407,"x_min":125,"x_max":407,"o":"m 125 0 l 282 0 l 282 914 l 125 914 l 125 0 m 296 1158 l 407 1158 l 221 978 l 186 978 l 296 1158 z "},"ľ":{"ha":553,"x_min":125,"x_max":511,"o":"m 431 914 q 488 892 464 914 q 511 831 511 869 q 422 663 511 763 l 394 663 q 416 703 406 676 q 429 757 426 731 q 374 781 397 757 q 351 836 351 804 q 374 891 351 868 q 431 914 397 914 m 125 914 l 282 914 l 282 0 l 125 0 l 125 914 z "},"ḽ":{"ha":407,"x_min":29,"x_max":378,"o":"m 125 0 l 282 0 l 282 914 l 125 914 l 125 0 m 378 -335 l 343 -335 l 256 -217 l 168 -335 l 29 -335 l 204 -100 l 378 -335 z "},"ļ":{"ha":407,"x_min":39,"x_max":282,"o":"m 125 914 l 282 914 l 282 0 l 125 0 l 125 914 m 149 -100 l 260 -100 l 74 -281 l 39 -281 l 149 -100 z "},"ḷ":{"ha":408,"x_min":125,"x_max":282,"o":"m 125 0 l 282 0 l 282 914 l 125 914 l 125 0 m 275 -171 q 253 -121 275 -142 q 201 -100 232 -100 q 151 -121 172 -100 q 131 -171 131 -142 q 151 -221 131 -200 q 201 -242 172 -242 q 253 -221 231 -242 q 275 -171 275 -200 z "},"ɮ":{"ha":857,"x_min":126,"x_max":788,"o":"m 601 279 q 687 225 650 253 q 756 146 724 197 q 788 21 788 94 q 753 -122 788 -58 q 658 -220 719 -185 q 517 -256 597 -256 q 372 -212 425 -256 q 293 -121 318 -168 q 272 -69 278 -86 l 296 -69 l 313 -107 q 375 -182 339 -151 q 481 -212 411 -212 q 586 -155 544 -212 q 628 21 628 -97 q 589 179 628 106 q 532 237 569 218 q 463 263 494 256 q 421 275 431 271 l 560 638 l 283 638 l 283 667 l 751 667 l 601 279 m 283 0 l 126 0 l 126 914 l 283 914 l 283 667 l 283 638 l 283 0 z "},"ɭ":{"ha":407,"x_min":125,"x_max":428,"o":"m 325 -140 q 342 -142 331 -142 q 428 -99 382 -142 l 428 -136 q 314 -174 378 -174 q 176 -124 228 -174 q 125 4 125 -75 l 125 914 l 282 914 l 282 4 q 288 -104 282 -75 q 325 -140 294 -133 z "},"ɫ":{"ha":418,"x_min":25,"x_max":393,"o":"m 131 0 l 131 914 l 288 914 l 288 0 l 131 0 m 393 460 q 349 418 369 433 q 294 396 328 403 q 250 390 267 390 q 168 418 203 390 q 147 435 163 422 q 117 454 131 447 q 92 461 104 461 q 70 455 79 460 q 54 443 61 450 q 44 433 47 436 l 25 453 q 69 494 47 478 q 124 518 90 510 q 164 524 149 524 q 251 494 213 524 q 274 476 258 489 q 301 458 289 464 q 326 453 314 453 q 348 458 339 453 q 364 470 357 464 q 374 479 371 476 l 393 460 z "},"ł":{"ha":407,"x_min":42,"x_max":365,"o":"m 125 914 l 282 914 l 282 0 l 125 0 l 125 914 m 365 621 l 365 583 l 42 293 l 42 331 l 365 621 z "},"ḿ":{"ha":1161,"x_min":113,"x_max":1049,"o":"m 992 607 q 1037 515 1025 567 q 1049 392 1049 463 l 1049 0 l 892 0 l 892 392 l 893 469 q 874 591 893 546 q 797 636 854 636 q 728 613 760 636 q 681 556 696 590 q 664 487 668 522 q 660 392 660 451 l 660 0 l 503 0 l 503 392 l 504 465 q 485 590 504 544 q 408 636 467 636 q 338 613 371 636 q 292 556 306 590 q 269 413 269 501 l 269 0 l 113 0 l 113 667 l 269 667 l 269 579 q 307 628 288 610 q 442 675 360 675 q 601 607 544 675 q 642 536 626 576 q 696 628 657 592 q 832 675 749 675 q 992 607 932 675 m 674 939 l 785 939 l 599 758 l 564 758 l 674 939 z "}}}
